<svg width="324" height="326" viewBox="0 0 324 326" fill="none" xmlns="http://www.w3.org/2000/svg">
<path d="M239.764 204.919C196.767 229.83 127.05 229.83 84.044 204.919C51.8374 186.256 43.74 158.904 59.8021 135.88H264.006C280.068 158.904 271.971 186.256 239.764 204.919Z" fill="#FAFAFA"/>
<path opacity="0.2" d="M58.3044 82.8164C55.9535 89.5424 54.1838 96.4576 53.0145 103.486L161.84 135.876L58.3044 82.8164ZM149.24 6.98535L161.84 135.876L174.44 6.98535H149.24ZM101.297 25.2321L161.84 135.876L122.91 13.4569C115.279 16.5426 108.027 20.4935 101.297 25.2321ZM68.3942 61.0751L161.826 135.876L81.9876 42.4575C76.8617 48.2064 72.3089 54.4418 68.3942 61.0751ZM265.375 82.8164L161.84 135.876L270.661 103.486C269.493 96.4577 267.725 89.5425 265.375 82.8164ZM161.84 135.876H271.852C272.157 132.541 272.325 129.169 272.355 125.758L161.84 135.876ZM51.8237 135.876H161.84L51.3199 125.758C51.3566 129.169 51.5245 132.541 51.8237 135.876ZM241.688 42.4437L161.84 135.876L255.272 61.0751C251.36 54.4423 246.81 48.2069 241.688 42.4575V42.4437ZM200.747 13.4569L161.84 135.876L222.36 25.2321C215.629 20.4943 208.378 16.5434 200.747 13.4569Z" fill="#0A9D56"/>
<path d="M161.904 219.639C185.603 219.639 204.814 208.509 204.814 194.779C204.814 181.049 185.603 169.919 161.904 169.919C138.206 169.919 118.994 181.049 118.994 194.779C118.994 208.509 138.206 219.639 161.904 219.639Z" fill="#E6E6E6"/>
<path d="M180.888 178.465C180.705 173.949 183.274 147.848 183.274 147.848L167.995 154.26C169.406 165.632 171.701 174.457 171.783 180.947C171.783 180.947 175.635 184.813 177.783 187.281C179.592 189.434 181.584 191.427 183.737 193.235C185.395 194.559 189.141 195.434 189.86 194.339C187.254 191.316 184.204 187.968 182.303 184.721C181.396 183.242 181.012 181.579 180.888 178.465Z" fill="#FFA8A7"/>
<path d="M194.843 197.87C195.008 197.893 194.875 199.817 193.84 200.476C192.645 201.241 189.366 202.286 185.541 201.127C181.717 199.968 179.844 198.347 178.543 196.707C177.242 195.067 175.429 192.755 173.734 192.058C172.159 191.413 170.528 190.341 170.098 189.718C169.667 189.095 170.226 186.709 170.226 186.709L194.843 197.87Z" fill="#263238"/>
<path d="M171.701 179.12C171.559 179.174 171.437 179.269 171.351 179.394C171.264 179.518 171.217 179.665 171.215 179.816C171.142 180.709 171.444 181.589 171.009 183.086C170.551 184.535 170.262 186.032 170.148 187.547C170.125 188.807 172.649 190.089 174.233 191.051C175.818 192.013 177.595 193.799 179.07 195.654C180.545 197.509 184.167 199.776 186.718 200.234C190.621 200.912 193.378 200.193 194.454 198.832C195.787 197.147 195.237 195.961 191.179 193.052C190.41 192.498 187.79 190.158 186.906 189.32C184.511 187.053 182.285 184.071 181.662 180.618C181.64 180.211 181.478 179.825 181.204 179.523C180.949 179.357 180.647 179.279 180.343 179.303C179.567 179.298 178.794 179.414 178.053 179.647C177.389 179.857 176.097 180.036 175.946 180.851C175.924 181.23 175.952 181.611 176.029 181.983C176.029 182.161 176.093 182.775 175.933 182.853C175.772 182.931 175.502 182.477 175.42 182.335C175.026 181.671 174.925 181.286 174.32 181.048C173.716 180.81 172.085 180.531 171.76 179.798L171.701 179.12Z" fill="#37474F"/>
<path d="M191.816 193.524C186.073 193.039 183.572 196.451 182.862 198.7C184.05 199.417 185.348 199.934 186.705 200.229C190.607 200.907 193.524 200.229 194.601 198.855C195.856 197.266 195.512 195.768 191.816 193.524Z" fill="#FAFAFA"/>
<path d="M183.315 192.242C183.251 192.232 183.193 192.199 183.151 192.15C183.104 192.087 183.082 192.008 183.091 191.93C183.099 191.852 183.137 191.78 183.196 191.729C184.186 190.835 186.727 189.846 188.738 190.41C188.774 190.42 188.807 190.438 188.836 190.462C188.865 190.486 188.888 190.516 188.905 190.549C188.923 190.583 188.933 190.619 188.935 190.656C188.938 190.694 188.933 190.731 188.921 190.767C188.912 190.804 188.895 190.839 188.872 190.87C188.849 190.901 188.82 190.927 188.786 190.946C188.753 190.966 188.716 190.979 188.678 190.984C188.64 190.989 188.601 190.987 188.564 190.977C186.686 190.46 184.337 191.458 183.549 192.168C183.518 192.198 183.481 192.22 183.441 192.232C183.4 192.245 183.357 192.248 183.315 192.242Z" fill="#F0F0F0"/>
<path d="M181.172 190.355C181.109 190.345 181.052 190.312 181.012 190.263C180.963 190.202 180.941 190.124 180.948 190.046C180.956 189.969 180.993 189.897 181.053 189.846C182.042 188.93 184.589 187.955 186.595 188.523C186.631 188.534 186.665 188.552 186.694 188.576C186.723 188.6 186.747 188.63 186.764 188.664C186.781 188.698 186.791 188.735 186.794 188.773C186.796 188.811 186.791 188.849 186.778 188.885C186.757 188.959 186.709 189.023 186.642 189.062C186.575 189.102 186.496 189.113 186.421 189.095C184.543 188.573 182.193 189.553 181.406 190.281C181.375 190.312 181.338 190.334 181.298 190.347C181.257 190.359 181.214 190.362 181.172 190.355Z" fill="#F0F0F0"/>
<path d="M179.253 188.28C179.188 188.27 179.129 188.236 179.088 188.184C179.041 188.122 179.02 188.044 179.029 187.966C179.037 187.889 179.075 187.818 179.134 187.767C180.123 186.874 182.674 185.885 184.676 186.443C184.712 186.455 184.745 186.473 184.774 186.498C184.803 186.522 184.826 186.552 184.843 186.586C184.86 186.62 184.87 186.656 184.873 186.694C184.876 186.732 184.871 186.769 184.859 186.805C184.849 186.843 184.832 186.878 184.809 186.908C184.786 186.939 184.757 186.965 184.724 186.985C184.691 187.004 184.654 187.017 184.616 187.022C184.578 187.028 184.539 187.026 184.502 187.016C182.624 186.498 180.274 187.497 179.487 188.207C179.455 188.235 179.418 188.257 179.378 188.269C179.338 188.282 179.295 188.286 179.253 188.28Z" fill="#F0F0F0"/>
<path d="M177.375 186.219C177.314 186.209 177.258 186.176 177.219 186.127C177.172 186.066 177.149 185.989 177.156 185.912C177.163 185.834 177.198 185.762 177.256 185.71C178.63 184.437 181.268 183.878 183.274 184.433C183.311 184.443 183.344 184.462 183.373 184.486C183.403 184.51 183.426 184.54 183.444 184.574C183.461 184.608 183.471 184.645 183.473 184.683C183.476 184.721 183.47 184.759 183.457 184.794C183.436 184.868 183.387 184.931 183.321 184.971C183.254 185.01 183.175 185.022 183.1 185.005C181.291 184.501 178.832 185.005 177.604 186.141C177.574 186.169 177.538 186.191 177.498 186.205C177.459 186.218 177.417 186.223 177.375 186.219Z" fill="#F0F0F0"/>
<path d="M153.523 156.554L139.572 154.764C138.922 163.502 139.247 171.563 138.381 179.748C137.813 182.184 137.158 193.222 137.314 196.455C137.548 201.315 143.268 201.429 143.946 198.631C144.624 195.833 147.152 182.289 147.358 181.039C148.714 175.502 153.403 156.994 153.523 156.554Z" fill="#FFA8A7"/>
<path d="M145.297 201.269C144.958 204.062 144.381 205.89 143.245 207.465C142.109 209.041 140.103 209.421 138.138 208.803C136.174 208.184 133.7 206.719 133.279 204.259C132.858 201.8 133.073 200.137 133.682 197.577L145.297 201.269Z" fill="#263238"/>
<path d="M138.381 179.747C137.557 179.747 137.309 184.158 136.609 187.9C135.853 191.907 134.488 193.496 133.833 196.78C133.087 200.531 133.192 202.24 134.442 204.621C135.693 207.003 140.474 209.595 143.099 206.481C145.242 203.939 145.503 200.985 145.553 197.188C145.604 193.263 146.053 190.574 146.401 187.62C146.73 184.794 148.05 181.405 147.358 181.039C147.275 181.451 147.193 181.978 147.111 182.385C147.046 182.692 146.868 184.217 146.41 184.217C146.392 183.859 146.41 183.5 146.465 183.146C146.529 182.83 146.468 182.502 146.295 182.23C146.057 181.985 145.745 181.824 145.407 181.772C144.61 181.561 142.201 181.314 141.372 181.167C140.964 181.103 140.552 181.057 140.144 181.034C139.793 181.004 139.44 181.027 139.096 181.103C138.998 181.127 138.907 181.171 138.828 181.232C138.749 181.294 138.684 181.372 138.638 181.46C138.585 181.596 138.561 181.741 138.569 181.886C138.551 182.149 138.5 182.409 138.418 182.66C138.381 182.766 138.29 182.898 138.175 182.862C138.061 182.825 138.051 182.72 138.056 182.624C138.079 182.166 138.161 181.84 138.216 181.309C138.239 181.066 138.303 180.732 138.322 180.485C138.34 180.237 138.349 179.985 138.381 179.747Z" fill="#37474F"/>
<path d="M133.471 198.956C133.187 201.301 133.229 202.922 134.209 204.786C135.459 207.173 140.621 209.792 143.263 206.678C144.569 205.13 145.013 203.225 145.297 201.264C143.996 198.635 135.894 196.982 133.471 198.956Z" fill="#FAFAFA"/>
<path d="M143.442 196.982C143.407 196.978 143.372 196.967 143.341 196.95C141.158 195.884 138.713 195.473 136.302 195.768C136.224 195.78 136.144 195.762 136.079 195.717C136.014 195.671 135.969 195.603 135.954 195.525C135.947 195.487 135.947 195.448 135.956 195.41C135.965 195.372 135.981 195.336 136.005 195.304C136.028 195.273 136.057 195.247 136.091 195.227C136.125 195.208 136.162 195.195 136.201 195.191C138.749 194.866 141.337 195.301 143.639 196.441C143.673 196.46 143.703 196.484 143.728 196.514C143.752 196.544 143.77 196.579 143.781 196.616C143.792 196.653 143.796 196.692 143.792 196.73C143.788 196.769 143.776 196.806 143.758 196.84C143.726 196.893 143.679 196.935 143.622 196.961C143.566 196.986 143.503 196.993 143.442 196.982Z" fill="#F0F0F0"/>
<path d="M136.673 192.974C136.616 192.966 136.563 192.942 136.52 192.905C136.477 192.867 136.446 192.818 136.43 192.764C136.42 192.726 136.417 192.687 136.422 192.649C136.427 192.611 136.44 192.574 136.46 192.541C136.479 192.507 136.505 192.478 136.536 192.455C136.568 192.432 136.603 192.416 136.641 192.407C140.392 191.468 143.923 193.506 144.069 193.593C144.104 193.611 144.134 193.636 144.158 193.666C144.182 193.696 144.2 193.731 144.21 193.769C144.22 193.806 144.222 193.845 144.216 193.884C144.21 193.922 144.196 193.959 144.175 193.991C144.131 194.057 144.063 194.104 143.985 194.122C143.908 194.14 143.827 194.128 143.758 194.087C143.721 194.087 140.295 192.095 136.805 192.97C136.762 192.983 136.717 192.984 136.673 192.974Z" fill="#F0F0F0"/>
<path d="M137.048 190.327C136.992 190.319 136.94 190.295 136.896 190.259C136.852 190.222 136.82 190.175 136.801 190.121C136.791 190.084 136.788 190.045 136.792 190.006C136.797 189.968 136.81 189.931 136.829 189.897C136.848 189.864 136.874 189.834 136.904 189.81C136.935 189.787 136.97 189.769 137.007 189.759C138.286 189.44 139.616 189.379 140.918 189.582C142.221 189.784 143.47 190.244 144.592 190.936C144.624 190.957 144.652 190.984 144.673 191.016C144.695 191.048 144.709 191.084 144.717 191.121C144.724 191.159 144.724 191.198 144.715 191.235C144.707 191.273 144.692 191.308 144.67 191.339C144.621 191.404 144.55 191.447 144.47 191.459C144.391 191.472 144.31 191.454 144.244 191.408C142.121 190.13 139.58 189.74 137.172 190.323C137.131 190.332 137.09 190.333 137.048 190.327Z" fill="#F0F0F0"/>
<path d="M137.479 187.364C137.424 187.355 137.372 187.331 137.329 187.294C137.286 187.258 137.254 187.211 137.236 187.158C137.224 187.121 137.22 187.082 137.224 187.043C137.228 187.005 137.24 186.967 137.259 186.933C137.277 186.899 137.303 186.87 137.334 186.846C137.365 186.823 137.4 186.806 137.438 186.796C141.312 185.701 144.917 187.959 145.068 188.056C145.101 188.076 145.129 188.102 145.152 188.134C145.174 188.165 145.19 188.201 145.198 188.238C145.206 188.276 145.207 188.315 145.199 188.353C145.192 188.391 145.177 188.427 145.155 188.459C145.132 188.492 145.104 188.52 145.07 188.541C145.037 188.563 145 188.578 144.96 188.585C144.921 188.592 144.881 188.592 144.842 188.583C144.803 188.575 144.766 188.559 144.734 188.537C144.697 188.537 141.216 186.338 137.616 187.355C137.572 187.367 137.525 187.37 137.479 187.364Z" fill="#EBEBEB"/>
<path d="M152.744 77.0867C150.17 81.6667 144.793 89.3382 144.115 102.813C143.048 124.036 142.421 135.051 142.421 135.051C141.175 139.072 140.25 139.416 139.517 150.06C138.931 158.556 138.834 169.122 138.834 169.122C138.834 169.122 145.045 172.424 150.147 170.638C152.478 163.841 156.252 148.805 158.877 139.677C161.263 131.392 163.915 118.041 163.915 118.041L167.716 138.472C166.981 142.903 166.852 147.413 167.331 151.878C167.959 157.562 170.157 168.847 170.157 168.847C170.157 168.847 177.077 171.38 181.534 168.389C181.534 168.389 183.778 143.909 183.975 137.039C184.273 126.729 184.538 109.476 183.732 95.3151C183.425 89.9016 181.538 80.7278 180.865 77.073L152.744 77.0867Z" fill="#37474F"/>
<path d="M138.683 167.111C140.662 168.485 147.958 169.978 150.784 169.076L149.68 172.177C149.68 172.177 147.848 172.822 144.024 172.419C140.199 172.016 138.683 170.225 138.683 170.225V167.111Z" fill="#455A64"/>
<path d="M169.841 167.62C172.108 168.536 179.093 168.394 181.69 166.882L181.442 170.432C181.442 170.432 180.224 171.522 176.102 171.755C172.2 171.98 170.386 170.862 170.386 170.862L169.841 167.62Z" fill="#455A64"/>
<path d="M163.892 118.041L166.763 101.374C166.763 101.374 175.759 100.752 179.161 97.7837C179.161 97.7837 174.778 103.371 168.664 104.017L165.678 118.041L167.675 138.294L163.892 118.041Z" fill="#263238"/>
<path d="M148.544 35.7659C148.544 35.7659 149.144 40.2909 147.605 44.0099C146.607 46.4419 144.935 50.8799 143.025 55.7347C141.239 60.3147 139.063 72.928 153.912 77.2973C162.495 79.8255 174.577 77.3981 178.644 74.1875C189.517 65.6 187.305 55.7622 175.195 43.1901C172.388 40.268 171.348 33.8423 171.348 33.8423L148.544 35.7659Z" fill="#37474F"/>
<path d="M170.734 48.9243C175.497 49.1167 176.743 49.1487 184.552 51.9151L193.222 55.002L204.122 60.3148C204.315 61.7895 204.718 64.5238 203.481 66.6077C202.478 68.2977 200.756 68.055 197.564 67.3222C192.956 66.2642 179.977 62.9758 179.977 62.9758L170.734 48.9243Z" fill="#FFA8A7"/>
<path d="M190.758 54.1086C191.147 59.8978 191.889 60.9786 194.115 63.461L193.657 55.1849L193.236 54.9788L190.758 54.1086Z" fill="#F28F8F"/>
<path d="M191.674 56.3253C191.715 58.6674 192.42 60.9498 193.708 62.9067C195.263 65.1894 197.564 66.8603 200.216 67.6333C201.892 68.0409 204.072 67.6104 204.283 63.6212C204.535 58.8031 202.501 54.7177 200.646 49.5744C198.123 42.5761 197.44 40.8724 197.051 38.7976C196.804 37.474 196.959 34.9413 196.401 33.6864C195.771 32.224 194.955 30.8492 193.973 29.5964C192.901 28.1675 191.94 29.0926 191.779 29.3354C190.763 28.3781 189.489 28.4194 188.921 29.2667C188.412 29.1936 187.893 29.2842 187.439 29.5254C186.984 29.7665 186.618 30.1459 186.393 30.6086C185.628 30.4117 184.525 30.92 184.561 31.9185C184.658 32.3194 184.841 32.6945 185.097 33.0177C185.033 33.6497 186.325 36.155 185.903 36.9656C185.482 37.7763 184.502 37.7992 183.261 38.0236C181.942 38.2664 180.709 38.9396 180.421 39.8556C180.197 40.5701 180.632 40.8632 181.273 40.8586C181.841 40.8586 183.251 40.5609 184.332 40.5335C185.922 40.4922 186.535 40.4235 187.332 40.7579C188.259 41.1044 189.14 41.566 189.952 42.1319C190.552 42.6311 191.202 43.2998 191.477 45.5531C191.752 47.8065 191.674 53.7605 191.674 56.3253Z" fill="#FFA8A7"/>
<path opacity="0.5" d="M187.579 35.2072C187.373 35.3186 187.136 35.36 186.904 35.3253C186.672 35.2906 186.457 35.1817 186.292 35.0149C186.531 35.4729 186.7 35.7614 186.87 36.0179C187.135 36.4118 187.657 36.7553 188.17 36.2606C188.683 35.766 188.564 35.3034 188.317 34.4836C188.253 34.6499 188.154 34.8006 188.027 34.9255C187.899 35.0503 187.747 35.1464 187.579 35.2072ZM192.475 33.2745C192.306 33.263 192.144 33.2035 192.008 33.1029C191.872 33.0022 191.767 32.8647 191.706 32.7066C191.706 32.7661 191.706 33.0317 191.729 33.2562C191.729 33.3432 191.729 33.4256 191.729 33.4897C191.729 33.7508 191.216 34.1355 190.96 34.1538C190.703 34.1722 190.259 34.108 189.934 33.4027C189.936 33.4194 189.936 33.4364 189.934 33.4531C189.947 33.6955 189.886 33.9361 189.758 34.1425C189.63 34.3489 189.442 34.5111 189.219 34.6073C189.072 34.6824 188.905 34.7109 188.742 34.6888C188.578 34.6667 188.425 34.5951 188.303 34.4836C188.447 34.9023 188.662 35.2929 188.94 35.6378C189.398 36.1828 190.039 35.6652 190.19 35.3355C190.2 35.4693 190.248 35.5974 190.329 35.704C190.411 35.8106 190.521 35.8911 190.648 35.9355C191.134 36.1095 191.564 35.7019 191.679 34.7355C191.679 34.7355 191.679 34.7034 191.679 34.6851C191.958 35.5233 192.755 35.4454 192.998 34.9233C193.236 34.1923 193.39 33.4362 193.456 32.6699C193.451 33.018 193.071 33.302 192.475 33.2745Z" fill="#F28F8F"/>
<path d="M191.912 34.5612V34.6025C191.99 34.8773 192.173 35.1108 192.42 35.12C192.482 35.1234 192.544 35.1142 192.603 35.0929C192.661 35.0717 192.714 35.0388 192.759 34.9963C192.858 34.8922 192.929 34.7645 192.965 34.6254C193.159 33.98 193.298 33.3198 193.382 32.6514V32.7018V32.6743C193.428 32.2987 193.451 31.9003 193.533 31.5201C193.575 31.3278 193.634 31.14 193.689 30.9568C193.743 30.771 193.759 30.5762 193.735 30.3843C193.776 30.5759 193.776 30.7743 193.735 30.9659C193.694 31.1583 193.648 31.3415 193.625 31.5339C193.565 31.914 193.575 32.2987 193.552 32.6926V32.6422V32.6743C193.514 33.3622 193.418 34.0456 193.263 34.717C193.225 34.9116 193.135 35.0921 193.002 35.2391C192.928 35.3189 192.839 35.3828 192.74 35.4269C192.641 35.471 192.534 35.4944 192.425 35.4956C192.201 35.4984 191.986 35.4128 191.825 35.2574C191.678 35.1161 191.566 34.9419 191.5 34.749V34.7902L191.912 34.5612Z" fill="#F28F8F"/>
<path d="M194.422 31.3506C194.353 31.5634 194.239 31.7587 194.088 31.9231C193.938 32.0933 193.771 32.2469 193.588 32.3811L193.474 32.1887C193.869 32.0141 194.2 31.7213 194.422 31.3506Z" fill="#F28F8F"/>
<path d="M188.926 29.2668C189.094 29.5879 189.232 29.9236 189.338 30.2699C189.448 30.6088 189.553 30.9523 189.641 31.2958L189.787 31.8087L189.906 32.3309L190.135 33.3934V33.4667L190.318 34.5796L190.401 35.1338C190.411 35.2938 190.455 35.4499 190.529 35.5918C190.566 35.6419 190.612 35.6839 190.666 35.7154C190.719 35.7469 190.779 35.7672 190.84 35.775C190.899 35.785 190.96 35.7797 191.016 35.7596C191.072 35.7396 191.122 35.7055 191.161 35.6605C191.36 35.3941 191.479 35.0763 191.505 34.7445V34.6667C191.542 34.2387 191.551 33.8088 191.532 33.3797V32.0103C191.532 31.5523 191.532 31.0943 191.555 30.6637C191.555 30.4347 191.587 30.2057 191.61 29.9859C191.621 29.7592 191.68 29.5375 191.784 29.3355C191.715 29.5465 191.688 29.7692 191.706 29.9905C191.706 30.2149 191.706 30.4485 191.706 30.6592L191.798 32.0011L191.894 33.343L191.926 34.0209C191.938 34.2608 191.93 34.5013 191.903 34.7399V34.7674C191.877 35.1951 191.716 35.6037 191.445 35.9353C191.359 36.0327 191.249 36.107 191.127 36.1518C191.005 36.1966 190.873 36.2103 190.744 36.1918C190.623 36.1721 190.507 36.1302 190.401 36.0681C190.288 36.0015 190.192 35.9089 190.121 35.7979C190.019 35.6087 189.959 35.3991 189.947 35.1842L189.87 34.6163L189.76 33.4759V33.4392L189.599 32.3996L189.521 31.8729L189.412 31.3462C189.294 30.6435 189.132 29.949 188.926 29.2668Z" fill="#F28F8F"/>
<path d="M186.407 30.6042C187.15 31.5627 187.773 32.6087 188.262 33.7186L188.592 34.5614C188.688 34.8315 188.809 35.0921 188.953 35.34C189.109 35.5919 189.26 35.798 189.521 35.7705C189.662 35.754 189.797 35.7074 189.918 35.6339C190.039 35.5604 190.143 35.4617 190.222 35.3445C190.17 35.4971 190.082 35.635 189.966 35.7466C189.849 35.8581 189.708 35.9402 189.553 35.9857C189.373 36.025 189.184 35.9921 189.027 35.8941C188.888 35.7982 188.767 35.6789 188.67 35.5415C188.486 35.2867 188.332 35.0116 188.212 34.7217L187.868 33.8973C187.639 33.3477 187.378 32.8118 187.135 32.2668C186.892 31.7218 186.636 31.1859 186.407 30.6042Z" fill="#F28F8F"/>
<path d="M188.285 34.392L188.326 34.4881C188.458 34.8065 188.54 35.1433 188.569 35.4866C188.572 35.6687 188.532 35.849 188.452 36.0129C188.373 36.1767 188.256 36.3196 188.111 36.4301C187.962 36.5535 187.773 36.6172 187.58 36.6087C187.389 36.5928 187.208 36.5175 187.062 36.3934C186.811 36.1467 186.606 35.8566 186.457 35.537L185.45 33.7691C185.285 33.4714 185.116 33.1783 184.955 32.8531C184.78 32.5595 184.655 32.2392 184.584 31.905C184.691 32.231 184.846 32.5396 185.042 32.821L185.592 33.6775C185.963 34.2454 186.302 34.8454 186.641 35.4225C186.782 35.7173 186.969 35.9878 187.195 36.224C187.302 36.3283 187.444 36.3907 187.593 36.4C187.743 36.4092 187.891 36.3647 188.01 36.2743C188.145 36.1872 188.257 36.0689 188.337 35.9294C188.416 35.7899 188.461 35.6334 188.468 35.4728C188.464 35.1368 188.416 34.8028 188.326 34.479L188.285 34.392Z" fill="#F28F8F"/>
<path d="M190.643 35.679C191.281 36.0936 191.832 36.6288 192.265 37.2545C192.71 37.8533 193.004 38.551 193.121 39.288C192.937 38.5816 192.583 37.9307 192.091 37.3919C191.628 36.8467 191.063 36.3971 190.428 36.0683L190.643 35.679Z" fill="#F28F8F"/>
<path d="M195.691 39.9978C195.031 40.4558 194.179 40.4558 193.584 40.8359C192.988 41.216 191.674 42.0862 190.3 41.4771C189.247 41.0191 187.644 40.5336 186.792 40.5611C186.977 40.6073 187.159 40.6655 187.337 40.7351C188.264 41.0817 189.144 41.5433 189.957 42.1091C190.557 42.6084 191.207 43.277 191.482 45.5304C191.482 45.6586 191.514 45.8098 191.527 45.9884C191.527 45.9884 191.587 44.1885 192.054 43.2862C192.521 42.3839 193.854 41.8389 195.127 41.0878C196.401 40.3367 196.35 39.5535 195.691 39.9978Z" fill="#F28F8F"/>
<path d="M161.812 49.3777C158.452 49.8181 155.13 50.5101 151.874 51.4478C150.468 52.1761 147.546 53.6875 148.421 62.6917C148.718 65.7558 151.269 70.4365 151.169 75.8043C151.104 79.5003 148.879 81.7583 146.676 89.013C153.829 96.625 179.748 96.7395 183.21 90.2908C182.349 80.6041 180.43 79.9171 181.332 70.7892C181.332 70.7892 183.206 66.7313 182.89 64.1619C182.432 60.3972 181.566 59.0964 177.888 55.0523C175.767 52.7212 173.364 50.6627 170.734 48.9243C167.753 48.8581 164.771 49.0096 161.812 49.3777Z" fill="#0A9D56"/>
<path d="M158.18 47.2616C157.031 46.2815 155.272 45.6769 152.565 43.4785C148.796 40.4236 144.834 30.2881 150.275 27.9798C149.753 19.8457 161.217 16.7405 166.342 17.7389C181.268 20.6518 175.104 30.3934 175.104 30.3934L158.18 47.2616Z" fill="#37474F"/>
<path d="M171.76 25.163C173.633 26.6653 174.65 27.105 175.369 35.239C175.928 41.5823 174.636 44.0097 171.92 45.4937C170.959 46.0203 169.053 46.4555 167.194 46.4509L167.496 49.4187C167.496 49.4187 170.922 53.3942 170.885 58.4917C159.536 53.701 157.686 50.3439 157.686 50.3439L156.216 40.3457C155.9 41.0373 154.068 42.1457 152.304 40.3824C150.23 38.3122 150.298 35.5276 151.768 34.3276C153.239 33.1277 155.309 33.8421 156.266 35.6238C158.07 36.1276 159.248 34.3963 158.327 27.7645C161.977 25.2592 167.093 23.3585 171.76 25.163Z" fill="#FFA8A7"/>
<path d="M171.458 21.7602C172.562 24.5861 172.127 29.4776 168.128 31.4332C168.815 29.505 168.366 26.0517 168.366 26.0517C168.366 26.0517 166.099 33.2377 157.626 32.9217L156.335 25.3281C160.109 21.9618 166.241 19.058 171.458 21.7602Z" fill="#37474F"/>
<path d="M167.194 46.4373C161.638 46.2358 158.492 44.1473 157.686 42.0588C157.686 42.0588 158.093 44.6878 160.008 45.8923C162.33 47.3487 167.336 47.9075 167.336 47.9075L167.194 46.4373Z" fill="#F28F8F"/>
<path d="M169.328 40.5337L165.453 39.6177C165.381 39.8659 165.36 40.1263 165.391 40.383C165.423 40.6396 165.507 40.8871 165.638 41.1102C165.768 41.3333 165.943 41.5272 166.152 41.6801C166.361 41.833 166.598 41.9416 166.85 41.9993C167.372 42.1172 167.92 42.0311 168.38 41.7586C168.841 41.4862 169.18 41.0479 169.328 40.5337Z" fill="#B16668"/>
<path d="M167.711 42.0085C167.428 42.0702 167.134 42.0702 166.85 42.0085C166.501 41.9277 166.182 41.7491 165.931 41.4936C165.679 41.2381 165.506 40.9163 165.431 40.5658C165.915 40.5337 166.396 40.6562 166.806 40.9155C167.216 41.1747 167.533 41.5575 167.711 42.0085Z" fill="#F28F8F"/>
<path d="M162.934 33.8056C162.959 34.0194 163.046 34.2211 163.186 34.3852C163.325 34.5492 163.51 34.6682 163.717 34.7269C163.924 34.7856 164.144 34.7815 164.348 34.715C164.553 34.6485 164.733 34.5227 164.866 34.3535C164.999 34.1844 165.079 33.9795 165.095 33.7649C165.112 33.5503 165.064 33.3357 164.958 33.1484C164.852 32.9611 164.693 32.8094 164.5 32.7128C164.308 32.6161 164.091 32.5788 163.878 32.6056C163.594 32.64 163.335 32.7856 163.158 33.0106C162.981 33.2355 162.901 33.5214 162.934 33.8056Z" fill="#263238"/>
<path d="M170.757 32.9173C170.781 33.1314 170.867 33.3337 171.006 33.4984C171.145 33.6631 171.33 33.7828 171.537 33.8422C171.744 33.9016 171.964 33.8981 172.169 33.832C172.374 33.766 172.555 33.6404 172.688 33.4713C172.822 33.3022 172.902 33.0973 172.918 32.8825C172.935 32.6677 172.887 32.4528 172.781 32.2653C172.676 32.0777 172.516 31.9258 172.324 31.8291C172.131 31.7323 171.914 31.695 171.701 31.7219C171.56 31.7383 171.424 31.7823 171.301 31.8513C171.177 31.9204 171.069 32.013 170.981 32.124C170.894 32.235 170.829 32.3622 170.79 32.4983C170.752 32.6345 170.741 32.7768 170.757 32.9173Z" fill="#263238"/>
<path d="M167.359 31.9094L168.806 39.0359L172.067 37.2634L167.359 31.9094Z" fill="#F28F8F"/>
<path d="M173.569 30.6363L171 30.0867C171.029 29.9183 171.091 29.7575 171.184 29.614C171.277 29.4705 171.398 29.3473 171.54 29.2519C171.681 29.1564 171.841 29.0907 172.009 29.0586C172.176 29.0265 172.349 29.0288 172.516 29.0653C172.859 29.1425 173.16 29.3484 173.356 29.6407C173.552 29.933 173.628 30.2893 173.569 30.6363Z" fill="#263238"/>
<path d="M161.753 31.6667L164.043 30.3293C163.962 30.1772 163.852 30.0427 163.719 29.9339C163.585 29.8251 163.431 29.7441 163.266 29.6959C163.101 29.6476 162.928 29.633 162.757 29.6529C162.585 29.6728 162.42 29.7269 162.27 29.8118C161.958 29.9915 161.729 30.2865 161.632 30.6334C161.536 30.9803 161.579 31.3514 161.753 31.6667Z" fill="#263238"/>
<path d="M163.58 36.7919C163.631 37.7079 162.664 38.5185 161.391 38.5872C160.118 38.6559 159.069 37.9689 159.019 37.0438C158.968 36.1186 159.935 35.3171 161.208 35.2438C162.481 35.1705 163.53 35.8667 163.58 36.7919Z" fill="#F28F8F"/>
<path d="M177.197 34.3277C177.522 35.1933 176.835 36.2559 175.658 36.7047C174.481 37.1536 173.253 36.8192 172.91 35.9536C172.566 35.088 173.267 34.0254 174.449 33.5766C175.63 33.1278 176.867 33.4758 177.197 34.3277Z" fill="#F28F8F"/>
<path d="M140.3 102.813C139.696 101.897 138.862 101.077 138.72 99.9547C138.673 99.6675 138.695 99.3733 138.782 99.0957C138.87 98.8182 139.021 98.5649 139.224 98.3563C139.324 98.286 139.407 98.1936 139.467 98.0861C139.497 97.9899 139.506 97.8885 139.494 97.7884C139.454 97.3681 139.545 96.9455 139.755 96.5793C139.856 96.4322 139.986 96.3077 140.137 96.2138C140.289 96.1199 140.458 96.0588 140.635 96.0343C140.535 95.4085 140.636 94.767 140.923 94.2023C141.271 93.5382 142.077 93.0893 142.435 93.9412C142.6 94.3644 142.723 94.8033 142.801 95.2511C143.004 96.364 143.074 97.497 143.012 98.6265C142.957 99.8036 142.746 103.129 140.928 103.014C140.786 102.991 140.378 102.941 140.3 102.813Z" fill="#F28F8F"/>
<path d="M152.982 51.2144C147.129 52.1304 145.389 53.1196 141.697 57.9653C137.456 63.53 131.722 70.1298 130.023 72.6991C127.925 75.8777 127.389 77.1417 130.508 81.3279C132.134 83.4805 134.424 86.1094 136.714 89.0314C138.546 91.3214 140.758 93.8267 142.494 96.1945C142.734 96.4578 142.895 96.7837 142.959 97.1346C143.022 97.4855 142.985 97.847 142.851 98.1777C142.634 98.6101 142.443 99.0552 142.279 99.5105C142.189 100.126 142.148 100.748 142.155 101.37C142.091 101.988 141.793 102.666 141.193 102.84C140.9 102.916 140.593 102.916 140.3 102.84C140.754 103.307 141.278 103.701 141.853 104.008C142.434 104.318 143.112 104.397 143.749 104.228C144.349 104.04 144.853 103.568 145.48 103.477C145.814 103.431 146.163 103.5 146.501 103.477C146.845 103.434 147.165 103.283 147.417 103.046C147.825 102.666 148.059 102.071 148.581 101.878C148.839 101.82 149.101 101.776 149.364 101.745C149.625 101.666 149.862 101.525 150.056 101.333C150.25 101.142 150.394 100.906 150.477 100.646C150.637 100.128 150.703 99.5851 150.674 99.0433C150.673 97.5835 150.592 96.1249 150.431 94.674C150.352 94.1799 150.186 93.7038 149.941 93.2679C149.689 92.755 149.451 92.2283 149.167 91.729C147.239 88.349 141.212 77.128 141.212 77.128L151.782 66.4383C151.782 66.4383 157.324 57.0172 152.982 51.2144Z" fill="#FFA8A7"/>
<path d="M141.23 77.0867C138.821 78.8316 135.532 78.511 134.36 78.2591C136.993 80.5491 141.793 78.0988 141.793 78.0988L141.23 77.0867Z" fill="#F28F8F"/>
<path d="M128.685 169.044C128.605 169.058 128.522 169.042 128.453 168.998C128.384 168.953 128.335 168.885 128.314 168.806L128.241 168.504C128.146 168.124 127.918 167.79 127.597 167.565C127.277 167.34 126.886 167.237 126.496 167.276L126.185 167.308C126.101 167.323 126.015 167.304 125.945 167.255C125.875 167.206 125.828 167.131 125.814 167.047C125.799 166.963 125.818 166.877 125.867 166.808C125.916 166.738 125.991 166.691 126.075 166.676L126.377 166.598C126.757 166.504 127.09 166.275 127.316 165.955C127.541 165.634 127.644 165.243 127.604 164.853L127.572 164.542C127.558 164.458 127.577 164.372 127.626 164.302C127.675 164.233 127.75 164.186 127.833 164.171C127.917 164.156 128.003 164.176 128.073 164.225C128.142 164.274 128.19 164.348 128.204 164.432L128.282 164.734C128.376 165.115 128.605 165.449 128.925 165.674C129.246 165.9 129.637 166.002 130.027 165.962L130.334 165.93C130.415 165.923 130.495 165.946 130.559 165.995C130.624 166.044 130.668 166.116 130.682 166.195C130.697 166.275 130.681 166.358 130.637 166.426C130.592 166.495 130.523 166.543 130.444 166.562L130.142 166.64C129.762 166.735 129.43 166.964 129.206 167.285C128.981 167.605 128.879 167.995 128.919 168.385L128.946 168.696C128.955 168.776 128.932 168.857 128.884 168.921C128.835 168.986 128.765 169.03 128.685 169.044ZM127.439 166.754C127.814 166.892 128.145 167.126 128.401 167.432C128.539 167.056 128.773 166.723 129.079 166.466C128.705 166.327 128.373 166.094 128.117 165.788C127.98 166.164 127.746 166.497 127.439 166.754Z" fill="#E0E0E0"/>
<path d="M119.31 159.211C119.23 159.225 119.148 159.208 119.08 159.164C119.012 159.119 118.963 159.051 118.944 158.972L118.866 158.67C118.771 158.29 118.542 157.957 118.222 157.731C117.901 157.506 117.511 157.404 117.121 157.443L116.809 157.475C116.729 157.482 116.648 157.458 116.584 157.409C116.519 157.36 116.476 157.289 116.461 157.209C116.447 157.129 116.464 157.047 116.508 156.979C116.552 156.911 116.621 156.862 116.699 156.843L117.002 156.765C117.382 156.67 117.715 156.441 117.94 156.121C118.166 155.801 118.268 155.41 118.229 155.02L118.197 154.708C118.191 154.628 118.215 154.548 118.264 154.484C118.313 154.42 118.383 154.376 118.463 154.36C118.542 154.347 118.624 154.365 118.692 154.409C118.76 154.453 118.809 154.52 118.829 154.599L118.907 154.901C119.001 155.281 119.229 155.615 119.55 155.841C119.871 156.066 120.262 156.168 120.652 156.128L120.963 156.096C121.044 156.09 121.124 156.114 121.188 156.163C121.252 156.212 121.296 156.283 121.311 156.362C121.324 156.442 121.307 156.523 121.263 156.591C121.219 156.659 121.151 156.708 121.073 156.728L120.771 156.806C120.39 156.9 120.057 157.128 119.831 157.449C119.606 157.77 119.503 158.161 119.544 158.551L119.576 158.863C119.583 158.943 119.559 159.024 119.51 159.088C119.461 159.152 119.39 159.196 119.31 159.211ZM118.064 156.921C118.44 157.058 118.773 157.292 119.031 157.598C119.168 157.223 119.402 156.889 119.708 156.632C119.333 156.494 118.999 156.261 118.742 155.954C118.606 156.333 118.372 156.67 118.064 156.93V156.921Z" fill="#E0E0E0"/>
<path d="M194.88 146.909C194.8 146.92 194.718 146.901 194.651 146.855C194.584 146.81 194.537 146.741 194.518 146.662L194.449 146.355C194.364 145.973 194.144 145.635 193.829 145.402C193.515 145.17 193.126 145.059 192.736 145.091L192.425 145.114C192.344 145.118 192.264 145.093 192.201 145.042C192.137 144.991 192.095 144.919 192.082 144.839C192.07 144.759 192.089 144.677 192.135 144.61C192.181 144.543 192.25 144.496 192.329 144.477L192.636 144.408C193.018 144.322 193.356 144.1 193.589 143.785C193.822 143.47 193.934 143.082 193.904 142.691L193.881 142.384C193.875 142.303 193.9 142.224 193.95 142.16C194.001 142.097 194.073 142.055 194.153 142.043C194.233 142.031 194.314 142.049 194.381 142.095C194.448 142.14 194.495 142.209 194.514 142.288L194.582 142.59C194.667 142.973 194.888 143.313 195.204 143.546C195.519 143.779 195.909 143.89 196.3 143.859L196.611 143.836C196.692 143.831 196.771 143.857 196.834 143.908C196.896 143.959 196.938 144.031 196.95 144.111C196.962 144.191 196.944 144.273 196.898 144.34C196.852 144.408 196.782 144.455 196.703 144.472L196.4 144.541C196.019 144.627 195.68 144.847 195.447 145.162C195.215 145.476 195.103 145.864 195.132 146.254L195.155 146.566C195.161 146.647 195.137 146.728 195.086 146.792C195.034 146.856 194.961 146.898 194.88 146.909ZM193.694 144.596C194.065 144.744 194.391 144.985 194.642 145.297C194.789 144.925 195.03 144.598 195.343 144.349C194.968 144.206 194.64 143.964 194.394 143.648C194.246 144.022 194.001 144.349 193.685 144.596H193.694Z" fill="#E0E0E0"/>
<path d="M202.414 158.098C202.339 158.068 202.278 158.011 202.243 157.938C202.208 157.865 202.202 157.781 202.226 157.704L202.322 157.406C202.44 157.032 202.419 156.629 202.263 156.269C202.108 155.909 201.828 155.617 201.475 155.446L201.196 155.309C201.123 155.273 201.066 155.211 201.037 155.136C201.007 155.061 201.007 154.977 201.035 154.901C201.065 154.826 201.122 154.765 201.196 154.73C201.269 154.695 201.352 154.689 201.429 154.713L201.732 154.805C202.104 154.923 202.507 154.903 202.867 154.748C203.226 154.594 203.517 154.314 203.687 153.962L203.825 153.683C203.86 153.61 203.922 153.553 203.997 153.524C204.073 153.494 204.157 153.494 204.232 153.523C204.308 153.552 204.369 153.61 204.404 153.683C204.438 153.756 204.444 153.839 204.42 153.916L204.329 154.214C204.21 154.588 204.23 154.991 204.385 155.351C204.539 155.711 204.819 156.003 205.171 156.174L205.455 156.312C205.494 156.327 205.53 156.351 205.56 156.38C205.59 156.409 205.614 156.444 205.631 156.483C205.647 156.522 205.656 156.563 205.657 156.606C205.657 156.648 205.649 156.689 205.634 156.729C205.618 156.768 205.595 156.803 205.566 156.833C205.536 156.864 205.501 156.888 205.462 156.904C205.424 156.921 205.382 156.93 205.34 156.93C205.298 156.931 205.256 156.923 205.217 156.907L204.919 156.816C204.546 156.696 204.142 156.716 203.782 156.87C203.421 157.025 203.129 157.305 202.959 157.658L202.822 157.938C202.787 158.011 202.725 158.069 202.65 158.098C202.574 158.128 202.49 158.128 202.414 158.098ZM202.551 155.501C202.796 155.817 202.954 156.191 203.009 156.587C203.321 156.338 203.695 156.18 204.09 156.129C203.844 155.814 203.686 155.439 203.632 155.043C203.32 155.29 202.946 155.448 202.551 155.501Z" fill="#E0E0E0"/>
<path d="M128.699 150.014C128.576 150.034 128.451 150.008 128.346 149.94C128.242 149.872 128.167 149.768 128.136 149.648L128.021 149.19C127.875 148.608 127.524 148.097 127.033 147.752C126.542 147.406 125.944 147.249 125.346 147.307L124.888 147.358C124.764 147.369 124.641 147.333 124.541 147.258C124.442 147.182 124.375 147.073 124.353 146.95C124.332 146.827 124.358 146.701 124.425 146.597C124.493 146.492 124.598 146.417 124.719 146.387L125.177 146.268C125.76 146.123 126.271 145.773 126.616 145.281C126.961 144.79 127.117 144.19 127.055 143.593L127.009 143.135C126.998 143.012 127.034 142.889 127.11 142.791C127.185 142.692 127.295 142.626 127.417 142.605C127.539 142.583 127.664 142.609 127.769 142.676C127.873 142.742 127.948 142.846 127.98 142.966L128.094 143.424C128.241 144.006 128.592 144.517 129.084 144.861C129.576 145.206 130.176 145.362 130.774 145.301L131.232 145.256C131.355 145.245 131.478 145.28 131.577 145.356C131.675 145.431 131.742 145.541 131.763 145.663C131.785 145.786 131.759 145.912 131.691 146.016C131.623 146.12 131.518 146.193 131.397 146.222L130.939 146.341C130.356 146.486 129.845 146.836 129.5 147.327C129.155 147.819 128.999 148.418 129.061 149.016L129.107 149.474C129.119 149.599 129.084 149.723 129.008 149.824C128.933 149.924 128.822 149.992 128.699 150.014ZM126.794 146.515C127.37 146.725 127.88 147.084 128.273 147.555C128.481 146.979 128.839 146.468 129.308 146.075C128.733 145.865 128.224 145.506 127.833 145.036C127.625 145.612 127.266 146.123 126.794 146.515Z" fill="#E0E0E0"/>
<path d="M192.819 169.081C192.696 169.06 192.586 168.994 192.51 168.895C192.435 168.797 192.399 168.673 192.411 168.549L192.457 168.068C192.514 167.47 192.353 166.872 192.005 166.383C191.657 165.893 191.144 165.545 190.561 165.403L190.103 165.288C189.984 165.256 189.881 165.181 189.815 165.078C189.749 164.974 189.723 164.849 189.744 164.728C189.764 164.607 189.83 164.497 189.926 164.421C190.023 164.345 190.145 164.308 190.268 164.317L190.726 164.363C191.323 164.421 191.922 164.262 192.411 163.914C192.901 163.567 193.249 163.055 193.391 162.472L193.51 162.014C193.532 161.886 193.604 161.771 193.71 161.696C193.816 161.621 193.948 161.591 194.076 161.613C194.204 161.635 194.318 161.707 194.394 161.813C194.469 161.919 194.499 162.05 194.477 162.179L194.436 162.637C194.378 163.234 194.537 163.832 194.884 164.322C195.232 164.812 195.744 165.16 196.327 165.302L196.785 165.417C196.904 165.449 197.007 165.524 197.073 165.627C197.14 165.731 197.165 165.856 197.144 165.977C197.124 166.098 197.059 166.208 196.962 166.284C196.865 166.36 196.743 166.397 196.62 166.388L196.162 166.342C195.565 166.285 194.967 166.445 194.478 166.792C193.988 167.139 193.64 167.651 193.497 168.233L193.378 168.691C193.352 168.815 193.28 168.925 193.176 168.997C193.072 169.07 192.944 169.1 192.819 169.081ZM192.191 165.146C192.665 165.536 193.025 166.045 193.236 166.621C193.625 166.147 194.134 165.785 194.71 165.572C194.238 165.183 193.878 164.676 193.666 164.102C193.276 164.575 192.767 164.936 192.191 165.146Z" fill="#E0E0E0"/>
<path d="M191.972 83.3612L193.282 84.9367L195.256 84.41C196.726 84.0207 200.619 82.9857 201.64 79.7842C201.886 79.0094 201.828 78.17 201.479 77.4361C201.129 76.7022 200.514 76.1285 199.757 75.8311C199 75.5337 198.159 75.5348 197.403 75.8343C196.648 76.1337 196.034 76.709 195.686 77.4439C195.891 76.6179 195.76 75.7442 195.321 75.0149C194.882 74.2857 194.172 73.7607 193.346 73.5554C192.52 73.3502 191.646 73.4814 190.917 73.9203C190.188 74.3592 189.663 75.0698 189.457 75.8958C188.422 79.0972 191.001 82.1979 191.972 83.3612Z" fill="#0A9D56"/>
<path opacity="0.25" d="M191.972 83.3612L193.282 84.9367L195.256 84.41C196.726 84.0207 200.619 82.9857 201.64 79.7842C201.886 79.0094 201.828 78.17 201.479 77.4361C201.129 76.7022 200.514 76.1285 199.757 75.8311C199 75.5337 198.159 75.5348 197.403 75.8343C196.648 76.1337 196.034 76.709 195.686 77.4439C195.891 76.6179 195.76 75.7442 195.321 75.0149C194.882 74.2857 194.172 73.7607 193.346 73.5554C192.52 73.3502 191.646 73.4814 190.917 73.9203C190.188 74.3592 189.663 75.0698 189.457 75.8958C188.422 79.0972 191.001 82.1979 191.972 83.3612Z" fill="white"/>
<path d="M135.455 45.0406L137.676 45.5948L139.109 43.8177C140.177 42.4941 143.002 38.9858 141.807 35.4226C141.519 34.5553 140.912 33.8305 140.108 33.3957C139.304 32.9609 138.365 32.8489 137.481 33.0824C136.598 33.316 135.837 33.8775 135.353 34.6527C134.869 35.4279 134.699 36.3584 134.878 37.2546C134.475 36.4368 133.777 35.8024 132.925 35.4797C132.072 35.157 131.129 35.17 130.286 35.5162C129.443 35.8624 128.763 36.516 128.383 37.3446C128.003 38.1732 127.953 39.1151 128.241 39.9797C129.437 43.5521 133.81 44.633 135.455 45.0406Z" fill="#0A9D56"/>
<path opacity="0.35" d="M135.455 45.0406L137.676 45.5948L139.109 43.8177C140.177 42.4941 143.002 38.9858 141.807 35.4226C141.519 34.5553 140.912 33.8305 140.108 33.3957C139.304 32.9609 138.365 32.8489 137.481 33.0824C136.598 33.316 135.837 33.8775 135.353 34.6527C134.869 35.4279 134.699 36.3584 134.878 37.2546C134.475 36.4368 133.777 35.8024 132.925 35.4797C132.072 35.157 131.129 35.17 130.286 35.5162C129.443 35.8624 128.763 36.516 128.383 37.3446C128.003 38.1732 127.953 39.1151 128.241 39.9797C129.437 43.5521 133.81 44.633 135.455 45.0406Z" fill="white"/>
<path d="M129.185 57.3744L130.508 57.2599L130.966 56.0142C131.3 55.0982 132.194 52.6341 130.87 50.9075C130.543 50.5067 130.079 50.2416 129.568 50.1639C129.057 50.0861 128.535 50.2011 128.104 50.4866C127.673 50.7721 127.363 51.2077 127.235 51.7087C127.108 52.2097 127.171 52.7403 127.412 53.1975C127.045 52.7929 126.533 52.5488 125.987 52.5178C125.442 52.4868 124.906 52.6714 124.495 53.0318C124.084 53.3922 123.831 53.8995 123.791 54.4445C123.751 54.9895 123.926 55.5285 124.279 55.9455C125.603 57.6813 128.204 57.4569 129.185 57.3744Z" fill="#0A9D56"/>
<path d="M98.2969 118.343C94.3948 116.127 89.027 116.466 83.1005 119.887C71.1925 126.757 61.5104 143.515 61.5104 157.287C61.5104 164.157 63.924 168.994 67.8262 171.252L75.2046 175.497C79.1067 177.746 84.502 177.416 90.456 173.981C102.364 167.111 112.051 150.353 112.051 136.581C112.051 129.711 109.646 124.893 105.758 122.63C104.123 121.682 99.9457 119.278 98.2969 118.343Z" fill="#0A9D56"/>
<path opacity="0.15" d="M62.3027 150.128C61.7918 152.481 61.5262 154.88 61.5104 157.287C61.5104 164.157 63.924 168.993 67.8262 171.251L75.2046 175.497C79.1067 177.746 84.502 177.416 90.456 173.981C92.5286 172.766 94.4688 171.339 96.2451 169.722L62.3027 150.128Z" fill="black"/>
<path d="M105.73 157.846C109.632 151.081 112.046 143.46 112.046 136.581C112.046 122.813 102.378 117.23 90.4514 124.119C78.5251 131.007 68.8613 147.747 68.8613 161.514C68.8613 175.282 78.548 180.865 90.456 173.981C93.587 172.126 96.428 169.821 98.8878 167.139L107.7 168.751C107.955 168.797 108.217 168.774 108.46 168.684C108.703 168.595 108.918 168.442 109.082 168.241C109.246 168.041 109.353 167.8 109.393 167.544C109.432 167.288 109.403 167.027 109.307 166.786L105.73 157.846Z" fill="#0A9D56"/>
<path opacity="0.35" d="M105.73 157.846C109.632 151.081 112.046 143.46 112.046 136.581C112.046 122.813 102.378 117.23 90.4514 124.119C78.5251 131.007 68.8613 147.747 68.8613 161.514C68.8613 175.282 78.548 180.865 90.456 173.981C93.587 172.126 96.428 169.821 98.8878 167.139L107.7 168.751C107.955 168.797 108.217 168.774 108.46 168.684C108.703 168.595 108.918 168.442 109.082 168.241C109.246 168.041 109.353 167.8 109.393 167.544C109.432 167.288 109.403 167.027 109.307 166.786L105.73 157.846Z" fill="white"/>
<path d="M100.917 145.48C101.72 144.476 102.183 143.242 102.236 141.958C102.236 140.735 101.778 140.227 101.32 140.062C101.742 139.24 101.97 138.333 101.988 137.41C101.988 136.164 101.283 134.721 99.7763 135.578L94.1475 138.82C94.5139 136.274 94.3536 134.314 93.6253 132.381C92.9567 130.609 91.2712 131.158 90.3644 131.923C90.1349 132.083 89.9439 132.293 89.8052 132.536C89.6666 132.779 89.5838 133.05 89.5629 133.329C89.5629 133.503 89.5629 133.856 89.5995 134.309C89.6453 135.395 89.7552 137.932 89.5995 138.596C89.4438 139.26 87.708 143.785 86.595 146.602C86.553 146.707 86.5298 146.819 86.5263 146.932V162.211C86.5263 162.472 86.6683 162.604 86.8515 162.54L86.9156 162.508L97.0329 156.678C97.8004 156.174 98.4395 155.497 98.8991 154.702C99.3587 153.906 99.6262 153.015 99.6801 152.098C99.6815 151.636 99.6324 151.175 99.5335 150.724C100.432 149.68 100.993 148.388 101.141 147.019C101.161 146.496 101.085 145.975 100.917 145.48ZM99.0252 150.06C98.8728 150.162 98.7585 150.312 98.7 150.486C98.6269 150.647 98.6155 150.83 98.6679 150.999C98.8284 151.486 98.9058 151.997 98.8969 152.51C98.8476 153.138 98.6536 153.746 98.3302 154.286C98.0068 154.826 97.5628 155.284 97.0329 155.625L87.2958 161.258V146.661C87.7904 145.407 90.0438 139.604 90.3186 138.596C90.5384 137.753 90.4743 135.848 90.3873 133.833C90.3873 133.503 90.3598 133.233 90.3552 133.05C90.6481 132.738 91.0225 132.514 91.4361 132.404C91.5867 132.355 91.7456 132.337 91.9033 132.352C92.061 132.366 92.2141 132.412 92.3533 132.488C92.4925 132.563 92.6149 132.666 92.7131 132.79C92.8114 132.914 92.8833 133.057 92.9246 133.21C93.6482 135.134 93.7627 137.085 93.3002 139.727C93.2789 139.796 93.274 139.869 93.2859 139.939C93.2978 140.01 93.3263 140.077 93.3689 140.135C93.4075 140.177 93.4607 140.203 93.5177 140.207C93.5748 140.212 93.6313 140.194 93.6757 140.158L99.7992 136.636C100.875 136.018 101.228 137.185 101.228 137.854C101.206 138.717 100.925 139.553 100.422 140.254C100.285 140.435 100.22 140.66 100.239 140.886C100.239 141.078 100.376 141.184 100.532 141.143C100.569 141.143 101.448 140.927 101.448 142.402C101.414 143.403 100.99 144.352 100.266 145.045C100.123 145.178 100.024 145.353 99.9824 145.544C99.9585 145.62 99.9519 145.701 99.963 145.78C99.9741 145.859 100.003 145.935 100.046 146.002C100.046 146.002 100.353 146.35 100.353 147.435C100.358 148.081 99.6389 149.73 99.0252 150.078V150.06ZM85.0012 146.854L80.5861 149.391C80.4688 149.469 80.3741 149.577 80.3113 149.703C80.2399 149.837 80.2007 149.986 80.1968 150.138V167.922C80.1968 168.178 80.3388 168.316 80.522 168.247L80.5861 168.22L85.0012 165.678C85.1195 165.601 85.2145 165.493 85.276 165.366C85.3479 165.232 85.3871 165.083 85.3905 164.931V147.147C85.3905 146.858 85.221 146.716 85.0012 146.849V146.854ZM82.7845 164.226C82.3265 164.491 81.9509 164.226 81.9509 163.598C81.9562 163.286 82.0343 162.979 82.1791 162.703C82.3238 162.426 82.5311 162.187 82.7845 162.004C83.2425 161.739 83.618 162.004 83.618 162.636C83.612 162.947 83.5335 163.252 83.3888 163.527C83.2441 163.803 83.0372 164.04 82.7845 164.221V164.226Z" fill="#FAFAFA"/>
<path d="M225.511 118.343C229.413 116.127 234.781 116.466 240.708 119.887C252.616 126.757 262.298 143.515 262.298 157.287C262.298 164.157 259.884 168.994 255.982 171.252L248.603 175.497C244.701 177.746 239.306 177.416 233.352 173.981C221.444 167.111 211.757 150.353 211.757 136.581C211.757 129.711 214.162 124.893 218.05 122.63C219.685 121.682 223.862 119.278 225.511 118.343Z" fill="#0A9D56"/>
<path opacity="0.15" d="M261.505 150.128C262.016 152.481 262.282 154.88 262.297 157.287C262.297 164.157 259.884 168.993 255.982 171.251L248.603 175.497C244.701 177.746 239.306 177.416 233.352 173.981C231.279 172.766 229.339 171.339 227.563 169.722L261.505 150.128Z" fill="black"/>
<path d="M218.078 157.846C214.176 151.081 211.762 143.46 211.762 136.581C211.762 122.813 221.43 117.23 233.357 124.119C245.283 131.007 254.947 147.747 254.947 161.514C254.947 175.282 245.26 180.865 233.352 173.981C230.221 172.126 227.38 169.821 224.92 167.139L216.108 168.751C215.853 168.797 215.591 168.774 215.348 168.684C215.105 168.595 214.89 168.442 214.726 168.241C214.562 168.041 214.455 167.8 214.415 167.544C214.376 167.288 214.405 167.027 214.501 166.786L218.078 157.846Z" fill="#0A9D56"/>
<path opacity="0.35" d="M218.078 157.846C214.176 151.081 211.762 143.46 211.762 136.581C211.762 122.813 221.43 117.23 233.357 124.119C245.283 131.007 254.947 147.747 254.947 161.514C254.947 175.282 245.26 180.865 233.352 173.981C230.221 172.126 227.38 169.821 224.92 167.139L216.108 168.751C215.853 168.797 215.591 168.774 215.348 168.684C215.105 168.595 214.89 168.442 214.726 168.241C214.562 168.041 214.455 167.8 214.415 167.544C214.376 167.288 214.405 167.027 214.501 166.786L218.078 157.846Z" fill="white"/>
<path d="M240.524 167.633C240.301 167.614 240.084 167.544 239.891 167.429C239.699 167.314 239.534 167.157 239.411 166.969L233.109 158.909L226.885 159.678C226.686 159.69 226.487 159.655 226.303 159.575C226.12 159.495 225.959 159.374 225.832 159.22C225.57 158.944 225.37 158.615 225.245 158.256C225.12 157.897 225.073 157.515 225.108 157.136L226.317 148.407L221.142 138.724C220.711 137.914 220.684 137.025 221.114 136.558C221.243 136.419 221.411 136.323 221.597 136.284C221.782 136.244 221.975 136.263 222.149 136.338L229.019 138.972L232.083 132.454C232.158 132.283 232.283 132.139 232.441 132.041C232.6 131.942 232.785 131.895 232.972 131.905C233.604 131.951 234.231 132.601 234.502 133.485L237.685 143.927L244.788 149.423C245.086 149.678 245.325 149.993 245.491 150.348C245.657 150.702 245.745 151.088 245.75 151.48C245.758 151.673 245.721 151.864 245.641 152.04C245.562 152.216 245.442 152.371 245.292 152.492L240.254 156.119L241.454 166.168C241.541 166.864 241.312 167.395 240.849 167.583C240.745 167.62 240.635 167.637 240.524 167.633ZM233.279 158.107C233.338 158.107 233.397 158.12 233.45 158.147C233.503 158.173 233.549 158.211 233.586 158.258L240.025 166.502C240.277 166.818 240.483 166.887 240.57 166.855C240.657 166.823 240.749 166.635 240.703 166.25L239.471 155.977C239.462 155.908 239.473 155.838 239.501 155.774C239.529 155.71 239.574 155.656 239.631 155.616L244.839 151.851C244.886 151.798 244.922 151.735 244.944 151.667C244.966 151.599 244.974 151.528 244.967 151.457C244.961 151.186 244.9 150.919 244.786 150.673C244.673 150.428 244.51 150.208 244.307 150.028L237.108 144.468C237.043 144.418 236.995 144.349 236.97 144.271L233.764 133.709C233.567 133.064 233.15 132.702 232.926 132.683C232.889 132.683 232.848 132.683 232.798 132.789L229.592 139.631C229.55 139.72 229.476 139.789 229.385 139.826C229.294 139.862 229.193 139.863 229.102 139.828L221.897 137.08C221.774 137.034 221.742 137.08 221.723 137.08C221.638 137.289 221.606 137.516 221.629 137.74C221.652 137.965 221.73 138.18 221.856 138.367L227.068 148.15C227.108 148.223 227.124 148.306 227.114 148.388L225.882 157.241C225.865 157.507 225.903 157.773 225.995 158.023C226.086 158.273 226.229 158.501 226.413 158.693C226.462 158.756 226.523 158.808 226.592 158.846C226.661 158.885 226.738 158.909 226.816 158.918L233.256 158.121L233.279 158.107Z" fill="#FAFAFA"/>
<path d="M48.5073 271.72H58.8673L58.5593 268.108H48.8433L48.5073 271.72ZM53.6313 263.096L56.4033 269.452L56.2353 270.656L58.5873 275.5H63.9633L53.6313 254.668L43.3273 275.5H48.6753L51.1113 270.46L50.8873 269.424L53.6313 263.096ZM69.1531 269.06C69.1531 268.425 69.3025 267.856 69.6011 267.352C69.8998 266.848 70.3105 266.447 70.8331 266.148C71.3745 265.849 71.9531 265.7 72.5691 265.7C73.0358 265.7 73.5118 265.775 73.9971 265.924C74.4825 266.073 74.9305 266.288 75.3411 266.568C75.7705 266.848 76.1158 267.193 76.3771 267.604V263.46C75.9291 263.143 75.3691 262.881 74.6971 262.676C74.0251 262.452 73.2038 262.34 72.2331 262.34C70.8145 262.34 69.5358 262.62 68.3971 263.18C67.2771 263.74 66.3905 264.524 65.7371 265.532C65.1025 266.521 64.7851 267.697 64.7851 269.06C64.7851 270.404 65.1025 271.58 65.7371 272.588C66.3905 273.596 67.2771 274.38 68.3971 274.94C69.5358 275.5 70.8145 275.78 72.2331 275.78C73.2038 275.78 74.0251 275.677 74.6971 275.472C75.3691 275.248 75.9291 274.959 76.3771 274.604V270.488C76.1158 270.899 75.7798 271.244 75.3691 271.524C74.9771 271.804 74.5385 272.028 74.0531 272.196C73.5865 272.345 73.0918 272.42 72.5691 272.42C71.9531 272.42 71.3745 272.28 70.8331 272C70.3105 271.72 69.8998 271.337 69.6011 270.852C69.3025 270.348 69.1531 269.751 69.1531 269.06ZM82.9891 269.06C82.9891 268.425 83.1384 267.856 83.4371 267.352C83.7357 266.848 84.1464 266.447 84.6691 266.148C85.2104 265.849 85.7891 265.7 86.4051 265.7C86.8717 265.7 87.3477 265.775 87.8331 265.924C88.3184 266.073 88.7664 266.288 89.1771 266.568C89.6064 266.848 89.9517 267.193 90.2131 267.604V263.46C89.7651 263.143 89.2051 262.881 88.5331 262.676C87.8611 262.452 87.0397 262.34 86.0691 262.34C84.6504 262.34 83.3717 262.62 82.2331 263.18C81.1131 263.74 80.2264 264.524 79.5731 265.532C78.9384 266.521 78.6211 267.697 78.6211 269.06C78.6211 270.404 78.9384 271.58 79.5731 272.588C80.2264 273.596 81.1131 274.38 82.2331 274.94C83.3717 275.5 84.6504 275.78 86.0691 275.78C87.0397 275.78 87.8611 275.677 88.5331 275.472C89.2051 275.248 89.7651 274.959 90.2131 274.604V270.488C89.9517 270.899 89.6157 271.244 89.2051 271.524C88.8131 271.804 88.3744 272.028 87.8891 272.196C87.4224 272.345 86.9277 272.42 86.4051 272.42C85.7891 272.42 85.2104 272.28 84.6691 272C84.1464 271.72 83.7357 271.337 83.4371 270.852C83.1384 270.348 82.9891 269.751 82.9891 269.06ZM92.513 269.06C92.513 270.404 92.8303 271.58 93.465 272.588C94.0997 273.596 94.977 274.38 96.097 274.94C97.217 275.5 98.477 275.78 99.877 275.78C101.277 275.78 102.528 275.5 103.629 274.94C104.749 274.38 105.626 273.596 106.261 272.588C106.914 271.58 107.241 270.404 107.241 269.06C107.241 267.697 106.914 266.512 106.261 265.504C105.626 264.496 104.749 263.712 103.629 263.152C102.528 262.592 101.277 262.312 99.877 262.312C98.477 262.312 97.217 262.592 96.097 263.152C94.977 263.712 94.0997 264.496 93.465 265.504C92.8303 266.512 92.513 267.697 92.513 269.06ZM96.853 269.06C96.853 268.388 96.993 267.809 97.273 267.324C97.553 266.839 97.917 266.465 98.365 266.204C98.813 265.943 99.317 265.812 99.877 265.812C100.418 265.812 100.913 265.943 101.361 266.204C101.828 266.465 102.192 266.839 102.453 267.324C102.733 267.809 102.873 268.388 102.873 269.06C102.873 269.732 102.733 270.311 102.453 270.796C102.192 271.263 101.828 271.627 101.361 271.888C100.913 272.149 100.418 272.28 99.877 272.28C99.317 272.28 98.813 272.149 98.365 271.888C97.917 271.627 97.553 271.263 97.273 270.796C96.993 270.311 96.853 269.732 96.853 269.06ZM114.209 270.46V262.62H109.785V270.908C109.785 272.439 110.149 273.643 110.877 274.52C111.623 275.379 112.799 275.808 114.405 275.808C115.357 275.808 116.15 275.612 116.785 275.22C117.419 274.809 117.933 274.259 118.325 273.568V275.5H122.553V262.62H118.325V270.46C118.325 270.964 118.231 271.393 118.045 271.748C117.858 272.103 117.597 272.373 117.261 272.56C116.943 272.747 116.551 272.84 116.085 272.84C115.394 272.84 114.909 272.635 114.629 272.224C114.349 271.795 114.209 271.207 114.209 270.46ZM134.262 267.66V275.5H138.658V267.212C138.658 265.663 138.294 264.459 137.566 263.6C136.838 262.741 135.671 262.312 134.066 262.312C133.114 262.312 132.311 262.508 131.658 262.9C131.023 263.292 130.519 263.843 130.146 264.552V262.62H125.89V275.5H130.146V267.66C130.146 267.156 130.239 266.727 130.426 266.372C130.613 266.017 130.874 265.747 131.21 265.56C131.546 265.373 131.938 265.28 132.386 265.28C133.058 265.28 133.534 265.485 133.814 265.896C134.113 266.307 134.262 266.895 134.262 267.66ZM140.484 262.62V266.12H149.108V262.62H140.484ZM142.752 258.14V275.5H146.812V258.14H142.752ZM167.928 267.604L163.14 255.9H157.624L167.928 276.732L178.26 255.9H172.716L167.928 267.604ZM180.381 271.468C180.381 271.151 180.456 270.889 180.605 270.684C180.754 270.46 180.978 270.292 181.277 270.18C181.576 270.068 181.977 270.012 182.481 270.012C183.134 270.012 183.75 270.105 184.329 270.292C184.926 270.46 185.449 270.712 185.897 271.048V269.172C185.673 268.929 185.337 268.696 184.889 268.472C184.441 268.248 183.9 268.061 183.265 267.912C182.649 267.763 181.949 267.688 181.165 267.688C179.56 267.688 178.318 268.052 177.441 268.78C176.564 269.489 176.125 270.46 176.125 271.692C176.125 272.569 176.33 273.316 176.741 273.932C177.17 274.548 177.73 275.015 178.421 275.332C179.13 275.631 179.896 275.78 180.717 275.78C181.538 275.78 182.304 275.64 183.013 275.36C183.722 275.061 184.301 274.632 184.749 274.072C185.197 273.493 185.421 272.793 185.421 271.972L184.973 270.292C184.973 270.889 184.842 271.393 184.581 271.804C184.32 272.215 183.984 272.523 183.573 272.728C183.162 272.933 182.714 273.036 182.229 273.036C181.893 273.036 181.585 272.98 181.305 272.868C181.025 272.737 180.801 272.56 180.633 272.336C180.465 272.093 180.381 271.804 180.381 271.468ZM178.505 266.568C178.692 266.456 178.99 266.316 179.401 266.148C179.812 265.961 180.288 265.803 180.829 265.672C181.389 265.541 181.958 265.476 182.537 265.476C182.929 265.476 183.274 265.513 183.573 265.588C183.89 265.663 184.152 265.784 184.357 265.952C184.562 266.12 184.712 266.325 184.805 266.568C184.917 266.792 184.973 267.063 184.973 267.38V275.5H189.033V266.428C189.033 265.532 188.772 264.776 188.249 264.16C187.726 263.544 187.017 263.077 186.121 262.76C185.225 262.424 184.208 262.256 183.069 262.256C181.856 262.256 180.736 262.415 179.709 262.732C178.682 263.049 177.805 263.385 177.077 263.74L178.505 266.568ZM192.199 253.66V275.5H196.455V253.66H192.199ZM199.494 257.776C199.494 258.448 199.736 258.999 200.222 259.428C200.707 259.857 201.286 260.072 201.958 260.072C202.648 260.072 203.227 259.857 203.694 259.428C204.179 258.999 204.422 258.448 204.422 257.776C204.422 257.104 204.179 256.563 203.694 256.152C203.227 255.723 202.648 255.508 201.958 255.508C201.286 255.508 200.707 255.723 200.222 256.152C199.736 256.563 199.494 257.104 199.494 257.776ZM199.914 262.62V275.5H204.002V262.62H199.914ZM217.256 253.66V275.5H221.484V253.66H217.256ZM206.728 269.06C206.728 270.497 207.017 271.72 207.596 272.728C208.193 273.717 208.959 274.473 209.892 274.996C210.825 275.519 211.815 275.78 212.86 275.78C213.943 275.78 214.895 275.509 215.716 274.968C216.556 274.427 217.219 273.652 217.704 272.644C218.189 271.636 218.432 270.441 218.432 269.06C218.432 267.66 218.189 266.465 217.704 265.476C217.219 264.468 216.556 263.693 215.716 263.152C214.895 262.611 213.943 262.34 212.86 262.34C211.815 262.34 210.825 262.601 209.892 263.124C208.959 263.647 208.193 264.403 207.596 265.392C207.017 266.381 206.728 267.604 206.728 269.06ZM211.18 269.06C211.18 268.388 211.32 267.809 211.6 267.324C211.88 266.82 212.253 266.437 212.72 266.176C213.187 265.896 213.7 265.756 214.26 265.756C214.745 265.756 215.212 265.887 215.66 266.148C216.127 266.409 216.509 266.792 216.808 267.296C217.107 267.781 217.256 268.369 217.256 269.06C217.256 269.751 217.107 270.348 216.808 270.852C216.509 271.337 216.127 271.711 215.66 271.972C215.212 272.233 214.745 272.364 214.26 272.364C213.7 272.364 213.187 272.233 212.72 271.972C212.253 271.692 211.88 271.309 211.6 270.824C211.32 270.32 211.18 269.732 211.18 269.06ZM228.041 271.468C228.041 271.151 228.116 270.889 228.265 270.684C228.414 270.46 228.638 270.292 228.937 270.18C229.236 270.068 229.637 270.012 230.141 270.012C230.794 270.012 231.41 270.105 231.989 270.292C232.586 270.46 233.109 270.712 233.557 271.048V269.172C233.333 268.929 232.997 268.696 232.549 268.472C232.101 268.248 231.56 268.061 230.925 267.912C230.309 267.763 229.609 267.688 228.825 267.688C227.22 267.688 225.978 268.052 225.101 268.78C224.224 269.489 223.785 270.46 223.785 271.692C223.785 272.569 223.99 273.316 224.401 273.932C224.83 274.548 225.39 275.015 226.081 275.332C226.79 275.631 227.556 275.78 228.377 275.78C229.198 275.78 229.964 275.64 230.673 275.36C231.382 275.061 231.961 274.632 232.409 274.072C232.857 273.493 233.081 272.793 233.081 271.972L232.633 270.292C232.633 270.889 232.502 271.393 232.241 271.804C231.98 272.215 231.644 272.523 231.233 272.728C230.822 272.933 230.374 273.036 229.889 273.036C229.553 273.036 229.245 272.98 228.965 272.868C228.685 272.737 228.461 272.56 228.293 272.336C228.125 272.093 228.041 271.804 228.041 271.468ZM226.165 266.568C226.352 266.456 226.65 266.316 227.061 266.148C227.472 265.961 227.948 265.803 228.489 265.672C229.049 265.541 229.618 265.476 230.197 265.476C230.589 265.476 230.934 265.513 231.233 265.588C231.55 265.663 231.812 265.784 232.017 265.952C232.222 266.12 232.372 266.325 232.465 266.568C232.577 266.792 232.633 267.063 232.633 267.38V275.5H236.693V266.428C236.693 265.532 236.432 264.776 235.909 264.16C235.386 263.544 234.677 263.077 233.781 262.76C232.885 262.424 231.868 262.256 230.729 262.256C229.516 262.256 228.396 262.415 227.369 262.732C226.342 263.049 225.465 263.385 224.737 263.74L226.165 266.568ZM238.347 262.62V266.12H246.971V262.62H238.347ZM240.615 258.14V275.5H244.675V258.14H240.615ZM255.325 275.78C256.968 275.78 258.358 275.463 259.497 274.828C260.654 274.193 261.569 273.241 262.241 271.972L258.461 271.048C258.144 271.608 257.714 272.028 257.173 272.308C256.65 272.588 256.016 272.728 255.269 272.728C254.616 272.728 254.065 272.588 253.617 272.308C253.169 272.009 252.833 271.58 252.609 271.02C252.385 270.46 252.273 269.788 252.273 269.004C252.292 268.145 252.404 267.436 252.609 266.876C252.833 266.297 253.16 265.868 253.589 265.588C254.018 265.308 254.55 265.168 255.185 265.168C255.689 265.168 256.128 265.28 256.501 265.504C256.874 265.728 257.164 266.045 257.369 266.456C257.574 266.867 257.677 267.352 257.677 267.912C257.677 268.043 257.64 268.211 257.565 268.416C257.509 268.603 257.434 268.761 257.341 268.892L258.349 267.604H250.397V269.956H262.157C262.194 269.825 262.213 269.667 262.213 269.48C262.213 269.275 262.213 269.069 262.213 268.864C262.213 267.483 261.942 266.307 261.401 265.336C260.86 264.365 260.076 263.628 259.049 263.124C258.022 262.601 256.762 262.34 255.269 262.34C253.776 262.34 252.478 262.611 251.377 263.152C250.294 263.693 249.464 264.468 248.885 265.476C248.306 266.484 248.017 267.679 248.017 269.06C248.017 270.423 248.316 271.608 248.913 272.616C249.51 273.624 250.35 274.408 251.433 274.968C252.534 275.509 253.832 275.78 255.325 275.78ZM274.596 253.66V275.5H278.824V253.66H274.596ZM264.068 269.06C264.068 270.497 264.357 271.72 264.936 272.728C265.533 273.717 266.298 274.473 267.232 274.996C268.165 275.519 269.154 275.78 270.2 275.78C271.282 275.78 272.234 275.509 273.056 274.968C273.896 274.427 274.558 273.652 275.044 272.644C275.529 271.636 275.772 270.441 275.772 269.06C275.772 267.66 275.529 266.465 275.044 265.476C274.558 264.468 273.896 263.693 273.056 263.152C272.234 262.611 271.282 262.34 270.2 262.34C269.154 262.34 268.165 262.601 267.232 263.124C266.298 263.647 265.533 264.403 264.936 265.392C264.357 266.381 264.068 267.604 264.068 269.06ZM268.52 269.06C268.52 268.388 268.66 267.809 268.94 267.324C269.22 266.82 269.593 266.437 270.06 266.176C270.526 265.896 271.04 265.756 271.6 265.756C272.085 265.756 272.552 265.887 273 266.148C273.466 266.409 273.849 266.792 274.148 267.296C274.446 267.781 274.596 268.369 274.596 269.06C274.596 269.751 274.446 270.348 274.148 270.852C273.849 271.337 273.466 271.711 273 271.972C272.552 272.233 272.085 272.364 271.6 272.364C271.04 272.364 270.526 272.233 270.06 271.972C269.593 271.692 269.22 271.309 268.94 270.824C268.66 270.32 268.52 269.732 268.52 269.06ZM86.9856 308.612L83.6816 310.992C84.1296 311.925 84.755 312.784 85.5576 313.568C86.3603 314.352 87.303 314.977 88.3856 315.444C89.487 315.892 90.6723 316.116 91.9416 316.116C92.8563 316.116 93.743 315.976 94.6016 315.696C95.479 315.435 96.2536 315.043 96.9256 314.52C97.6163 313.997 98.1576 313.353 98.5496 312.588C98.9603 311.804 99.1656 310.917 99.1656 309.928C99.1656 309.107 99.035 308.379 98.7736 307.744C98.5123 307.109 98.1483 306.549 97.6816 306.064C97.2336 305.579 96.711 305.168 96.1136 304.832C95.5163 304.477 94.8723 304.169 94.1816 303.908C93.267 303.591 92.483 303.292 91.8296 303.012C91.195 302.732 90.7003 302.424 90.3456 302.088C90.0096 301.752 89.8416 301.36 89.8416 300.912C89.8416 300.483 90.019 300.128 90.3736 299.848C90.7283 299.549 91.2416 299.4 91.9136 299.4C92.4176 299.4 92.8843 299.503 93.3136 299.708C93.7616 299.895 94.163 300.165 94.5176 300.52C94.891 300.856 95.2176 301.257 95.4976 301.724L99.1096 299.708C98.7736 299.036 98.2883 298.373 97.6536 297.72C97.019 297.067 96.2163 296.525 95.2456 296.096C94.2936 295.667 93.1643 295.452 91.8576 295.452C90.5883 295.452 89.431 295.676 88.3856 296.124C87.359 296.553 86.5376 297.188 85.9216 298.028C85.3243 298.868 85.0256 299.867 85.0256 301.024C85.0256 301.995 85.203 302.825 85.5576 303.516C85.9123 304.188 86.3603 304.767 86.9016 305.252C87.443 305.719 88.0123 306.101 88.6096 306.4C89.2256 306.699 89.767 306.932 90.2336 307.1C91.1856 307.455 91.951 307.772 92.5296 308.052C93.1083 308.332 93.5283 308.631 93.7896 308.948C94.051 309.247 94.1816 309.648 94.1816 310.152C94.1816 310.749 93.9576 311.225 93.5096 311.58C93.0616 311.916 92.4923 312.084 91.8016 312.084C91.1483 312.084 90.523 311.944 89.9256 311.664C89.347 311.384 88.8056 310.983 88.3016 310.46C87.8163 309.937 87.3776 309.321 86.9856 308.612ZM106.334 310.46V302.62H101.91V310.908C101.91 312.439 102.274 313.643 103.002 314.52C103.748 315.379 104.924 315.808 106.53 315.808C107.482 315.808 108.275 315.612 108.91 315.22C109.544 314.809 110.058 314.259 110.45 313.568V315.5H114.678V302.62H110.45V310.46C110.45 310.964 110.356 311.393 110.17 311.748C109.983 312.103 109.722 312.373 109.386 312.56C109.068 312.747 108.676 312.84 108.21 312.84C107.519 312.84 107.034 312.635 106.754 312.224C106.474 311.795 106.334 311.207 106.334 310.46ZM121.571 309.06C121.571 308.425 121.72 307.856 122.019 307.352C122.318 306.848 122.728 306.447 123.251 306.148C123.792 305.849 124.371 305.7 124.987 305.7C125.454 305.7 125.93 305.775 126.415 305.924C126.9 306.073 127.348 306.288 127.759 306.568C128.188 306.848 128.534 307.193 128.795 307.604V303.46C128.347 303.143 127.787 302.881 127.115 302.676C126.443 302.452 125.622 302.34 124.651 302.34C123.232 302.34 121.954 302.62 120.815 303.18C119.695 303.74 118.808 304.524 118.155 305.532C117.52 306.521 117.203 307.697 117.203 309.06C117.203 310.404 117.52 311.58 118.155 312.588C118.808 313.596 119.695 314.38 120.815 314.94C121.954 315.5 123.232 315.78 124.651 315.78C125.622 315.78 126.443 315.677 127.115 315.472C127.787 315.248 128.347 314.959 128.795 314.604V310.488C128.534 310.899 128.198 311.244 127.787 311.524C127.395 311.804 126.956 312.028 126.471 312.196C126.004 312.345 125.51 312.42 124.987 312.42C124.371 312.42 123.792 312.28 123.251 312C122.728 311.72 122.318 311.337 122.019 310.852C121.72 310.348 121.571 309.751 121.571 309.06ZM135.407 309.06C135.407 308.425 135.556 307.856 135.855 307.352C136.154 306.848 136.564 306.447 137.087 306.148C137.628 305.849 138.207 305.7 138.823 305.7C139.29 305.7 139.766 305.775 140.251 305.924C140.736 306.073 141.184 306.288 141.595 306.568C142.024 306.848 142.37 307.193 142.631 307.604V303.46C142.183 303.143 141.623 302.881 140.951 302.676C140.279 302.452 139.458 302.34 138.487 302.34C137.068 302.34 135.79 302.62 134.651 303.18C133.531 303.74 132.644 304.524 131.991 305.532C131.356 306.521 131.039 307.697 131.039 309.06C131.039 310.404 131.356 311.58 131.991 312.588C132.644 313.596 133.531 314.38 134.651 314.94C135.79 315.5 137.068 315.78 138.487 315.78C139.458 315.78 140.279 315.677 140.951 315.472C141.623 315.248 142.183 314.959 142.631 314.604V310.488C142.37 310.899 142.034 311.244 141.623 311.524C141.231 311.804 140.792 312.028 140.307 312.196C139.84 312.345 139.346 312.42 138.823 312.42C138.207 312.42 137.628 312.28 137.087 312C136.564 311.72 136.154 311.337 135.855 310.852C135.556 310.348 135.407 309.751 135.407 309.06ZM152.239 315.78C153.882 315.78 155.272 315.463 156.411 314.828C157.568 314.193 158.483 313.241 159.155 311.972L155.375 311.048C155.058 311.608 154.628 312.028 154.087 312.308C153.564 312.588 152.93 312.728 152.183 312.728C151.53 312.728 150.979 312.588 150.531 312.308C150.083 312.009 149.747 311.58 149.523 311.02C149.299 310.46 149.187 309.788 149.187 309.004C149.206 308.145 149.318 307.436 149.523 306.876C149.747 306.297 150.074 305.868 150.503 305.588C150.932 305.308 151.464 305.168 152.099 305.168C152.603 305.168 153.042 305.28 153.415 305.504C153.788 305.728 154.078 306.045 154.283 306.456C154.488 306.867 154.591 307.352 154.591 307.912C154.591 308.043 154.554 308.211 154.479 308.416C154.423 308.603 154.348 308.761 154.255 308.892L155.263 307.604H147.311V309.956H159.071C159.108 309.825 159.127 309.667 159.127 309.48C159.127 309.275 159.127 309.069 159.127 308.864C159.127 307.483 158.856 306.307 158.315 305.336C157.774 304.365 156.99 303.628 155.963 303.124C154.936 302.601 153.676 302.34 152.183 302.34C150.69 302.34 149.392 302.611 148.291 303.152C147.208 303.693 146.378 304.468 145.799 305.476C145.22 306.484 144.931 307.679 144.931 309.06C144.931 310.423 145.23 311.608 145.827 312.616C146.424 313.624 147.264 314.408 148.347 314.968C149.448 315.509 150.746 315.78 152.239 315.78ZM162.438 310.824L160.674 313.624C161.252 314.072 161.878 314.483 162.55 314.856C163.222 315.211 163.95 315.491 164.734 315.696C165.536 315.92 166.404 316.032 167.338 316.032C168.868 316.032 170.054 315.687 170.894 314.996C171.752 314.287 172.182 313.241 172.182 311.86C172.182 311.057 172.004 310.413 171.65 309.928C171.314 309.443 170.856 309.041 170.278 308.724C169.718 308.407 169.102 308.127 168.43 307.884C167.795 307.641 167.254 307.445 166.806 307.296C166.376 307.128 166.04 306.951 165.798 306.764C165.574 306.577 165.462 306.344 165.462 306.064C165.462 305.821 165.555 305.625 165.742 305.476C165.947 305.327 166.246 305.252 166.638 305.252C167.216 305.252 167.851 305.42 168.542 305.756C169.232 306.073 169.848 306.484 170.39 306.988L171.902 304.244C171.398 303.871 170.856 303.544 170.278 303.264C169.718 302.984 169.111 302.76 168.458 302.592C167.823 302.424 167.132 302.34 166.386 302.34C165.452 302.34 164.622 302.48 163.894 302.76C163.184 303.04 162.615 303.451 162.186 303.992C161.775 304.533 161.57 305.196 161.57 305.98C161.57 306.801 161.747 307.473 162.102 307.996C162.456 308.519 162.904 308.939 163.446 309.256C164.006 309.555 164.594 309.816 165.21 310.04C165.9 310.245 166.442 310.441 166.834 310.628C167.244 310.815 167.534 311.011 167.702 311.216C167.87 311.403 167.954 311.636 167.954 311.916C167.954 312.215 167.851 312.457 167.646 312.644C167.44 312.831 167.123 312.924 166.694 312.924C166.395 312.924 166.04 312.868 165.63 312.756C165.219 312.625 164.743 312.411 164.202 312.112C163.679 311.795 163.091 311.365 162.438 310.824ZM175.207 310.824L173.443 313.624C174.022 314.072 174.647 314.483 175.319 314.856C175.991 315.211 176.719 315.491 177.503 315.696C178.306 315.92 179.174 316.032 180.107 316.032C181.638 316.032 182.823 315.687 183.663 314.996C184.522 314.287 184.951 313.241 184.951 311.86C184.951 311.057 184.774 310.413 184.419 309.928C184.083 309.443 183.626 309.041 183.047 308.724C182.487 308.407 181.871 308.127 181.199 307.884C180.565 307.641 180.023 307.445 179.575 307.296C179.146 307.128 178.81 306.951 178.567 306.764C178.343 306.577 178.231 306.344 178.231 306.064C178.231 305.821 178.325 305.625 178.511 305.476C178.717 305.327 179.015 305.252 179.407 305.252C179.986 305.252 180.621 305.42 181.311 305.756C182.002 306.073 182.618 306.484 183.159 306.988L184.671 304.244C184.167 303.871 183.626 303.544 183.047 303.264C182.487 302.984 181.881 302.76 181.227 302.592C180.593 302.424 179.902 302.34 179.155 302.34C178.222 302.34 177.391 302.48 176.663 302.76C175.954 303.04 175.385 303.451 174.955 303.992C174.545 304.533 174.339 305.196 174.339 305.98C174.339 306.801 174.517 307.473 174.871 307.996C175.226 308.519 175.674 308.939 176.215 309.256C176.775 309.555 177.363 309.816 177.979 310.04C178.67 310.245 179.211 310.441 179.603 310.628C180.014 310.815 180.303 311.011 180.471 311.216C180.639 311.403 180.723 311.636 180.723 311.916C180.723 312.215 180.621 312.457 180.415 312.644C180.21 312.831 179.893 312.924 179.463 312.924C179.165 312.924 178.81 312.868 178.399 312.756C177.989 312.625 177.513 312.411 176.971 312.112C176.449 311.795 175.861 311.365 175.207 310.824ZM186.129 302.62V306.12H194.921V302.62H186.129ZM194.445 297.72L196.153 294.612C195.966 294.425 195.714 294.229 195.397 294.024C195.079 293.8 194.697 293.613 194.249 293.464C193.801 293.296 193.25 293.212 192.597 293.212C191.533 293.212 190.637 293.399 189.909 293.772C189.199 294.145 188.658 294.677 188.285 295.368C187.93 296.059 187.753 296.889 187.753 297.86V315.5H191.813V298.924C191.813 298.476 191.869 298.112 191.981 297.832C192.093 297.552 192.242 297.347 192.429 297.216C192.634 297.085 192.877 297.02 193.157 297.02C193.399 297.02 193.623 297.076 193.829 297.188C194.053 297.3 194.258 297.477 194.445 297.72ZM201.326 310.46V302.62H196.902V310.908C196.902 312.439 197.266 313.643 197.994 314.52C198.74 315.379 199.916 315.808 201.522 315.808C202.474 315.808 203.267 315.612 203.902 315.22C204.536 314.809 205.05 314.259 205.442 313.568V315.5H209.67V302.62H205.442V310.46C205.442 310.964 205.348 311.393 205.162 311.748C204.975 312.103 204.714 312.373 204.378 312.56C204.06 312.747 203.668 312.84 203.202 312.84C202.511 312.84 202.026 312.635 201.746 312.224C201.466 311.795 201.326 311.207 201.326 310.46ZM213.007 293.66V315.5H217.263V293.66H213.007ZM220.554 293.66V315.5H224.81V293.66H220.554ZM241.289 302.62H236.949L232.833 312.924L235.017 312.952L230.845 302.62H226.197L231.769 314.464L228.633 321.66H232.889L241.289 302.62Z" fill="#16161D"/>
</svg>
