<svg width="74" height="74" viewBox="0 0 74 74" fill="none" xmlns="http://www.w3.org/2000/svg">
<circle cx="37" cy="37" r="37" fill="#0A9D56"/>
<path d="M42.3055 22.7628C44.209 21.2395 45.2117 19.3295 44.5452 18.4966C43.8786 17.6637 41.7952 18.2233 39.8918 19.7466C37.9883 21.2698 36.9856 23.1798 37.6521 24.0128C38.3187 24.8456 40.4021 24.286 42.3055 22.7628Z" fill="#29C16E"/>
<path d="M35.9216 24.2586C36.4945 23.6857 35.6838 21.9462 34.1109 20.3733C32.538 18.8004 30.7985 17.9897 30.2256 18.5626C29.6527 19.1355 30.4634 20.875 32.0363 22.4479C33.6092 24.0208 35.3487 24.8315 35.9216 24.2586Z" fill="#29C16E"/>
<path d="M43.6309 32.7221C44.4639 32.0557 43.9042 29.9722 42.381 28.0688C40.8577 26.1653 38.9477 25.1626 38.1148 25.8291C37.2819 26.4957 37.8415 28.579 39.3648 30.4824C40.8879 32.3859 42.798 33.3886 43.6309 32.7221Z" fill="#EF3C56"/>
<path d="M29.8378 33.44C29.8378 35.4228 30.6255 37.3244 32.0275 38.7264C33.4296 40.1286 35.3312 40.9162 37.314 40.9162C41.4431 40.9162 47.6064 34.1436 43.6807 32.8663C39.3736 31.4652 37.3872 26.1089 36.4945 26.0088C32.3914 25.5483 29.8378 29.311 29.8378 33.44Z" fill="#EF3C56"/>
<path d="M27.9739 17.426C27.976 19.038 28.409 20.6201 29.2281 22.0085C30.0472 23.3969 31.2225 24.5411 32.6325 25.3226C31.8935 25.7324 31.2155 26.2436 30.6182 26.8412C29.2781 28.1799 28.393 29.9062 28.088 31.7756C27.7831 33.6451 28.0738 35.5631 28.9189 37.2583C29.7641 38.9535 31.1209 40.34 32.7975 41.2216C34.474 42.1031 36.3853 42.4352 38.2609 42.1706C40.1366 41.9061 41.8816 41.0585 43.2489 39.7476C44.6163 38.4368 45.5367 36.7292 45.8801 34.8664C46.2235 33.0036 45.9725 31.0799 45.1624 29.3677C44.3524 27.6555 43.0243 26.2414 41.3663 25.3254C42.7782 24.5451 43.9552 23.4009 44.7752 22.0118C45.5953 20.6227 46.0285 19.0393 46.0297 17.4262C46.0297 17.278 46.0006 17.1313 45.9439 16.9943C45.8872 16.8574 45.8041 16.733 45.6993 16.6282C45.5944 16.5234 45.47 16.4402 45.3331 16.3835C45.1963 16.3268 45.0495 16.2976 44.9012 16.2976C43.7152 16.2945 42.5401 16.5266 41.4445 16.9805C40.3487 17.4345 39.3538 18.1013 38.5174 18.9423C37.9199 19.5397 37.4088 20.2177 36.999 20.9566C36.2181 19.5461 35.0741 18.3703 33.6855 17.5511C32.297 16.732 30.7145 16.2993 29.1023 16.298C28.9542 16.298 28.8075 16.3271 28.6706 16.3838C28.5337 16.4405 28.4093 16.5235 28.3045 16.6283C28.1997 16.733 28.1166 16.8574 28.0598 16.9943C28.0031 17.1311 27.9739 17.2778 27.9739 17.426ZM38.2452 24.0805C38.4965 22.7383 39.1476 21.5034 40.1132 20.5378C41.0787 19.5722 42.3137 18.921 43.6558 18.6697C43.4027 20.0111 42.7509 21.245 41.7858 22.2102C40.8205 23.1755 39.5866 23.8273 38.2452 24.0805ZM41.7872 28.4393C42.7531 29.4037 43.4045 30.6379 43.6558 31.9795C42.3151 31.726 41.0818 31.0744 40.117 30.1095C39.1521 29.1447 38.5004 27.9115 38.2469 26.5707C39.5886 26.822 40.8227 27.4734 41.7872 28.4393ZM32.2139 28.4371C33.2262 27.4194 34.5378 26.7527 35.9566 26.5345C36.2225 28.4924 37.1231 30.3092 38.5202 31.7065C39.9174 33.1037 41.7341 34.0043 43.6921 34.2703C43.5271 35.3267 43.1143 36.329 42.4874 37.1952C41.8607 38.0613 41.0377 38.7668 40.0858 39.2537C39.1339 39.7406 38.0803 39.9952 37.0111 39.9967C35.9419 39.9981 34.8876 39.7464 33.9344 39.262C32.9813 38.7776 32.1563 38.0745 31.5272 37.2099C30.898 36.3455 30.4825 35.3443 30.3147 34.2884C30.1468 33.2325 30.2314 32.1518 30.5615 31.1348C30.8916 30.1179 31.4579 29.1937 32.2139 28.4376V28.4371ZM30.347 18.6713C31.6878 18.9247 32.9211 19.5764 33.886 20.5413C34.8509 21.5062 35.5026 22.7395 35.756 24.0803C34.4153 23.8268 33.1821 23.1751 32.2173 22.2102C31.2525 21.2453 30.6009 20.012 30.3475 18.6713H30.347Z" fill="#0E1E28"/>
<path d="M4.60257 47.4554H7.54143L4.09514 53.2592H10.0257V51.7263H6.90714L10.4063 45.8592H4.60257V47.4554ZM12.5218 53.2592H16.2535V51.7897H12.5218V53.2592ZM12.5218 47.3286H16.2535V45.8592H12.5218V47.3286ZM12.5218 50.0877H16.0421V48.65H12.5218V50.0877ZM11.3378 45.8592V53.2592H13.0504V45.8592H11.3378ZM19.5575 49.908L21.6295 53.2592H23.7227L21.4075 49.908H19.5575ZM17.7075 45.8592V53.2592H19.4941V45.8592H17.7075ZM18.8281 47.3709H20.2764C20.516 47.3709 20.7204 47.4096 20.8895 47.4872C21.0657 47.5647 21.1996 47.6774 21.2912 47.8254C21.3828 47.9664 21.4287 48.1391 21.4287 48.3434C21.4287 48.5478 21.3828 48.724 21.2912 48.872C21.1996 49.013 21.0657 49.1222 20.8895 49.1997C20.7204 49.2702 20.516 49.3054 20.2764 49.3054H18.8281V50.6903H20.4032C21.0375 50.6903 21.5661 50.5881 21.9889 50.3837C22.4118 50.1793 22.7325 49.8974 22.9509 49.538C23.1694 49.1715 23.2787 48.7522 23.2787 48.28C23.2787 47.8008 23.1694 47.3814 22.9509 47.022C22.7325 46.6555 22.4118 46.3701 21.9889 46.1657C21.5661 45.9613 21.0375 45.8592 20.4032 45.8592H18.8281V47.3709ZM26.0215 49.5592C26.0215 49.1222 26.1061 48.7381 26.2752 48.4069C26.4514 48.0686 26.6946 47.8043 27.0047 47.614C27.3218 47.4237 27.6918 47.3286 28.1147 47.3286C28.5446 47.3286 28.9146 47.4237 29.2247 47.614C29.5348 47.8043 29.7744 48.0686 29.9435 48.4069C30.1127 48.7381 30.1972 49.1222 30.1972 49.5592C30.1972 49.9961 30.1091 50.3837 29.933 50.722C29.7638 51.0533 29.5207 51.314 29.2035 51.5043C28.8934 51.6946 28.5305 51.7897 28.1147 51.7897C27.6918 51.7897 27.3218 51.6946 27.0047 51.5043C26.6946 51.314 26.4514 51.0533 26.2752 50.722C26.1061 50.3837 26.0215 49.9961 26.0215 49.5592ZM24.1292 49.5592C24.1292 50.13 24.2244 50.6551 24.4147 51.1343C24.612 51.6135 24.8869 52.0293 25.2392 52.3817C25.5987 52.7341 26.0215 53.009 26.5078 53.2063C26.9941 53.3966 27.5297 53.4917 28.1147 53.4917C28.6926 53.4917 29.2247 53.3966 29.711 53.2063C30.1972 53.009 30.6166 52.7341 30.969 52.3817C31.3284 52.0293 31.6032 51.6135 31.7935 51.1343C31.9909 50.6551 32.0895 50.13 32.0895 49.5592C32.0895 48.9883 31.9909 48.4668 31.7935 47.9946C31.5962 47.5224 31.3178 47.1136 30.9584 46.7683C30.599 46.423 30.1761 46.1587 29.6898 45.9754C29.2106 45.7852 28.6855 45.69 28.1147 45.69C27.5509 45.69 27.0258 45.7852 26.5395 45.9754C26.0532 46.1587 25.6304 46.423 25.271 46.7683C24.9115 47.1136 24.6296 47.5224 24.4252 47.9946C24.2279 48.4668 24.1292 48.9883 24.1292 49.5592ZM39.7857 50.0772L37.756 45.4892L35.7474 50.0772L34.2885 45.8592H32.1743L35.3774 53.6926L37.756 49.2314L40.1451 53.6926L43.3483 45.8592H41.2234L39.7857 50.0772ZM44.2872 51.832H48.1986L48.0824 50.4683H44.4141L44.2872 51.832ZM46.2218 48.576L47.2684 50.9757L47.2049 51.4303L48.0929 53.2592H50.1226L46.2218 45.394L42.3315 53.2592H44.3506L45.2704 51.3563L45.1858 50.9652L46.2218 48.576ZM51.7121 50.6586L50.4646 51.5572C50.6338 51.9095 50.8699 52.2337 51.1729 52.5297C51.476 52.8257 51.8319 53.0618 52.2406 53.238C52.6565 53.4072 53.104 53.4917 53.5832 53.4917C53.9286 53.4917 54.2633 53.4389 54.5875 53.3332C54.9187 53.2345 55.2112 53.0865 55.4649 52.8892C55.7257 52.6918 55.9301 52.4487 56.0781 52.1597C56.2331 51.8637 56.3106 51.529 56.3106 51.1554C56.3106 50.8453 56.2613 50.5705 56.1626 50.3309C56.064 50.0913 55.9266 49.8798 55.7504 49.6966C55.5812 49.5133 55.3839 49.3583 55.1584 49.2314C54.9328 49.0975 54.6897 48.9813 54.4289 48.8826C54.0836 48.7628 53.7876 48.65 53.5409 48.5443C53.3013 48.4386 53.1146 48.3223 52.9806 48.1954C52.8538 48.0686 52.7904 47.9206 52.7904 47.7514C52.7904 47.5893 52.8573 47.4554 52.9912 47.3497C53.1251 47.237 53.3189 47.1806 53.5726 47.1806C53.7629 47.1806 53.9391 47.2193 54.1012 47.2969C54.2704 47.3673 54.4219 47.4695 54.5558 47.6034C54.6967 47.7303 54.8201 47.8818 54.9258 48.058L56.2895 47.2969C56.1626 47.0432 55.9794 46.793 55.7398 46.5463C55.5002 46.2996 55.1971 46.0953 54.8306 45.9332C54.4712 45.7711 54.0448 45.69 53.5515 45.69C53.0723 45.69 52.6353 45.7746 52.2406 45.9437C51.853 46.1058 51.5429 46.3454 51.3104 46.6626C51.0848 46.9797 50.9721 47.3568 50.9721 47.7937C50.9721 48.1602 51.039 48.4738 51.1729 48.7346C51.3068 48.9883 51.476 49.2068 51.6804 49.39C51.8847 49.5662 52.0997 49.7107 52.3252 49.8234C52.5578 49.9362 52.7622 50.0243 52.9384 50.0877C53.2978 50.2216 53.5867 50.3414 53.8052 50.4472C54.0237 50.5529 54.1823 50.6656 54.2809 50.7854C54.3796 50.8982 54.4289 51.0497 54.4289 51.24C54.4289 51.4655 54.3444 51.6453 54.1752 51.7792C54.0061 51.906 53.7911 51.9694 53.5304 51.9694C53.2837 51.9694 53.0476 51.9166 52.8221 51.8109C52.6036 51.7052 52.3992 51.5536 52.2089 51.3563C52.0257 51.159 51.8601 50.9264 51.7121 50.6586ZM56.7652 47.4554H58.7949V53.2592H60.5815V47.4554H62.6218V45.8592H56.7652V47.4554ZM64.615 53.2592H68.3467V51.7897H64.615V53.2592ZM64.615 47.3286H68.3467V45.8592H64.615V47.3286ZM64.615 50.0877H68.1353V48.65H64.615V50.0877ZM63.431 45.8592V53.2592H65.1436V45.8592H63.431Z" fill="white"/>
</svg>
