<svg width="250" height="250" viewBox="0 0 250 250" fill="none" xmlns="http://www.w3.org/2000/svg">
<g clip-path="url(#clip0_9_22)">
<path d="M250 187.76H0.75V187.885H250V187.76Z" fill="#EBEBEB"/>
<path d="M225.025 195.781H208.515V195.905H225.025V195.781Z" fill="#EBEBEB"/>
<path d="M165.863 197.137H161.531V197.261H165.863V197.137Z" fill="#EBEBEB"/>
<path d="M208.016 191.155H198.45V191.279H208.016V191.155Z" fill="#EBEBEB"/>
<path d="M48.4315 191.992H26.9013V192.117H48.4315V191.992Z" fill="#EBEBEB"/>
<path d="M56.0287 191.992H52.8732V192.117H56.0287V191.992Z" fill="#EBEBEB"/>
<path d="M112.987 194.096H66.2878V194.221H112.987V194.096Z" fill="#EBEBEB"/>
<path d="M118.894 165.527H22.6391C21.8851 165.526 21.1623 165.225 20.6296 164.691C20.0969 164.158 19.7977 163.435 19.7977 162.68V27.3726C19.7977 26.6185 20.0969 25.8953 20.6296 25.3616C21.1623 24.828 21.8851 24.5275 22.6391 24.5262H118.894C119.649 24.5262 120.373 24.8261 120.907 25.3599C121.441 25.8937 121.741 26.6177 121.741 27.3726V162.68C121.741 163.435 121.441 164.159 120.907 164.693C120.373 165.227 119.649 165.527 118.894 165.527ZM22.6391 24.6508C21.9181 24.6521 21.2271 24.9395 20.7177 25.4498C20.2084 25.96 19.9223 26.6516 19.9223 27.3726V162.68C19.9223 163.401 20.2084 164.093 20.7177 164.603C21.2271 165.114 21.9181 165.401 22.6391 165.402H118.894C119.616 165.401 120.307 165.114 120.818 164.604C121.328 164.093 121.615 163.402 121.616 162.68V27.3726C121.615 26.6511 121.328 25.9596 120.818 25.4494C120.307 24.9393 119.616 24.6521 118.894 24.6508H22.6391Z" fill="#EBEBEB"/>
<path d="M226.725 165.527H130.465C129.71 165.526 128.987 165.225 128.453 164.692C127.92 164.158 127.62 163.435 127.618 162.68V27.3726C127.62 26.6181 127.92 25.8948 128.453 25.3613C128.987 24.8278 129.71 24.5275 130.465 24.5262H226.725C227.478 24.5288 228.2 24.8299 228.731 25.3634C229.263 25.8969 229.562 26.6194 229.562 27.3726V162.68C229.562 163.434 229.263 164.156 228.731 164.69C228.2 165.223 227.478 165.524 226.725 165.527ZM130.465 24.6508C129.743 24.6521 129.052 24.9393 128.542 25.4494C128.031 25.9596 127.744 26.6511 127.743 27.3726V162.68C127.744 163.402 128.031 164.093 128.542 164.604C129.052 165.114 129.743 165.401 130.465 165.402H226.725C227.447 165.401 228.138 165.114 228.648 164.604C229.158 164.093 229.446 163.402 229.447 162.68V27.3726C229.446 26.6511 229.158 25.9596 228.648 25.4494C228.138 24.9393 227.447 24.6521 226.725 24.6508H130.465Z" fill="#EBEBEB"/>
<path d="M159.353 183.946C157.587 185.541 156.161 187.476 155.16 189.634C153.535 182.695 148.755 177.73 148.755 177.73C150.737 181.771 151.91 186.16 152.209 190.651C151.212 187.69 149.153 186.848 149.153 186.848C150.689 189.794 150.126 193.727 150.126 193.727H157.204C157.123 190.341 157.86 186.986 159.353 183.946Z" fill="#F0F0F0"/>
<path d="M218.166 195.003C218.393 191.604 219.282 188.281 220.783 185.223C218.466 187.796 216.802 190.889 215.932 194.241C215.173 192.605 214.093 191.139 212.757 189.928C213.888 192.229 214.446 194.769 214.382 197.331H219.741C219.741 197.331 219.317 194.34 220.479 192.122C220.479 192.122 218.909 192.76 218.166 195.003Z" fill="#F0F0F0"/>
<path d="M32.5543 193.139C32.3328 189.925 31.4862 186.786 30.0618 183.897C32.2535 186.328 33.8266 189.252 34.648 192.421C35.362 190.875 36.3791 189.489 37.639 188.343C36.5741 190.513 36.0458 192.906 36.0987 195.322H31.0638C31.0638 195.322 31.4676 192.511 30.3659 190.397C30.8993 190.679 31.3689 191.069 31.7454 191.54C32.1219 192.012 32.3972 192.556 32.5543 193.139Z" fill="#F0F0F0"/>
<path d="M147.738 165.258C143.849 144.635 139.692 113.778 126.915 113.12C107.529 112.123 110.056 143.528 99.2885 142.91C88.5209 142.292 87.7682 94.7549 67.2898 95.029C48.0776 95.2833 39.9969 157.526 39.0697 165.258H147.738Z" fill="#E0E0E0"/>
<g style="mix-blend-mode:multiply">
<path d="M225.284 146.454V137.95H131.576V146.454H225.284Z" fill="#E0E0E0"/>
</g>
<path d="M147.957 133.02H139.453V175.756H147.957V133.02Z" fill="#F0F0F0"/>
<path d="M165.549 133.02H157.045V175.756H165.549V133.02Z" fill="#F0F0F0"/>
<path d="M183.136 133.02H174.632V175.756H183.136V133.02Z" fill="#F0F0F0"/>
<path d="M200.723 133.02H192.219V175.756H200.723V133.02Z" fill="#F0F0F0"/>
<path d="M218.31 133.02H209.806V175.756H218.31V133.02Z" fill="#F0F0F0"/>
<path d="M144.851 141.943C144.851 141.716 144.784 141.494 144.658 141.306C144.532 141.117 144.353 140.97 144.144 140.884C143.934 140.797 143.704 140.774 143.481 140.818C143.259 140.863 143.054 140.972 142.894 141.132C142.734 141.292 142.625 141.497 142.58 141.719C142.536 141.942 142.559 142.172 142.646 142.382C142.732 142.591 142.879 142.77 143.068 142.896C143.256 143.022 143.478 143.089 143.705 143.089C144.009 143.089 144.301 142.969 144.516 142.754C144.731 142.539 144.851 142.247 144.851 141.943Z" fill="#FAFAFA"/>
<path d="M162.438 141.943C162.438 141.716 162.371 141.494 162.245 141.305C162.119 141.117 161.939 140.97 161.729 140.883C161.52 140.797 161.289 140.774 161.066 140.819C160.844 140.863 160.64 140.973 160.479 141.134C160.319 141.295 160.21 141.5 160.167 141.722C160.123 141.945 160.146 142.176 160.234 142.385C160.322 142.595 160.469 142.773 160.659 142.899C160.848 143.024 161.07 143.09 161.297 143.089C161.6 143.088 161.89 142.967 162.104 142.752C162.318 142.537 162.438 142.246 162.438 141.943Z" fill="#FAFAFA"/>
<path d="M180.031 141.943C180.031 141.716 179.963 141.494 179.837 141.306C179.711 141.117 179.532 140.97 179.323 140.884C179.113 140.797 178.883 140.774 178.66 140.818C178.438 140.863 178.234 140.972 178.073 141.132C177.913 141.292 177.804 141.497 177.759 141.719C177.715 141.942 177.738 142.172 177.825 142.382C177.911 142.591 178.058 142.77 178.247 142.896C178.436 143.022 178.657 143.089 178.884 143.089C179.188 143.089 179.48 142.969 179.695 142.754C179.91 142.539 180.031 142.247 180.031 141.943Z" fill="#FAFAFA"/>
<path d="M197.618 141.943C197.618 141.716 197.55 141.494 197.424 141.306C197.298 141.117 197.119 140.97 196.91 140.884C196.7 140.797 196.47 140.774 196.247 140.818C196.025 140.863 195.821 140.972 195.66 141.132C195.5 141.292 195.391 141.497 195.347 141.719C195.302 141.942 195.325 142.172 195.412 142.382C195.499 142.591 195.646 142.77 195.834 142.896C196.023 143.022 196.244 143.089 196.471 143.089C196.775 143.089 197.067 142.969 197.282 142.754C197.497 142.539 197.618 142.247 197.618 141.943Z" fill="#FAFAFA"/>
<path d="M215.205 141.943C215.205 141.716 215.137 141.494 215.011 141.306C214.885 141.117 214.706 140.97 214.497 140.884C214.287 140.797 214.057 140.774 213.834 140.818C213.612 140.863 213.408 140.972 213.247 141.132C213.087 141.292 212.978 141.497 212.934 141.719C212.889 141.942 212.912 142.172 212.999 142.382C213.086 142.591 213.233 142.77 213.421 142.896C213.61 143.022 213.831 143.089 214.058 143.089C214.362 143.089 214.654 142.969 214.869 142.754C215.084 142.539 215.205 142.247 215.205 141.943Z" fill="#FAFAFA"/>
<path d="M83.9347 146.459V137.955H25.2712V146.459H83.9347Z" fill="#E0E0E0"/>
<g style="mix-blend-mode:multiply" opacity="0.3">
<path d="M225.284 146.454V137.95H131.576V146.454H225.284Z" fill="#E0E0E0"/>
</g>
<g style="mix-blend-mode:multiply" opacity="0.3">
<path d="M83.9347 146.459V137.955H25.2712V146.459H83.9347Z" fill="#E0E0E0"/>
</g>
<path d="M41.6519 133.02H33.1475V175.756H41.6519V133.02Z" fill="#F0F0F0"/>
<path d="M59.239 133.02H50.7346V175.756H59.239V133.02Z" fill="#F0F0F0"/>
<path d="M76.8311 133.02H68.3267V175.756H76.8311V133.02Z" fill="#F0F0F0"/>
<path d="M38.5463 141.943C38.5463 141.716 38.479 141.494 38.353 141.306C38.2271 141.117 38.048 140.97 37.8385 140.884C37.629 140.797 37.3985 140.774 37.176 140.818C36.9536 140.863 36.7493 140.972 36.589 141.132C36.4286 141.292 36.3194 141.497 36.2752 141.719C36.231 141.942 36.2537 142.172 36.3405 142.382C36.4272 142.591 36.5742 142.77 36.7627 142.896C36.9513 143.022 37.173 143.089 37.3997 143.089C37.7038 143.089 37.9954 142.969 38.2105 142.754C38.4255 142.539 38.5463 142.247 38.5463 141.943Z" fill="#FAFAFA"/>
<path d="M56.1333 141.943C56.1333 141.716 56.0661 141.494 55.9401 141.306C55.8141 141.117 55.6351 140.97 55.4256 140.884C55.216 140.797 54.9855 140.774 54.7631 140.818C54.5407 140.863 54.3364 140.972 54.1761 141.132C54.0157 141.292 53.9065 141.497 53.8623 141.719C53.818 141.942 53.8407 142.172 53.9275 142.382C54.0143 142.591 54.1613 142.77 54.3498 142.896C54.5383 143.022 54.76 143.089 54.9868 143.089C55.2909 143.089 55.5825 142.969 55.7975 142.754C56.0125 142.539 56.1333 142.247 56.1333 141.943Z" fill="#FAFAFA"/>
<path d="M73.7204 141.943C73.7204 141.716 73.6532 141.494 73.5272 141.306C73.4012 141.117 73.2222 140.97 73.0127 140.884C72.8032 140.797 72.5726 140.774 72.3502 140.818C72.1278 140.863 71.9235 140.972 71.7632 141.132C71.6028 141.292 71.4936 141.497 71.4494 141.719C71.4051 141.942 71.4278 142.172 71.5146 142.382C71.6014 142.591 71.7484 142.77 71.9369 142.896C72.1254 143.022 72.3471 143.089 72.5739 143.089C72.7245 143.089 72.8736 143.06 73.0127 143.002C73.1518 142.945 73.2782 142.86 73.3846 142.754C73.4911 142.647 73.5755 142.521 73.6332 142.382C73.6908 142.243 73.7204 142.093 73.7204 141.943Z" fill="#FAFAFA"/>
<path d="M217.099 76.0611C217.166 75.6709 217.201 75.2757 217.204 74.8797C217.208 73.7847 216.973 72.702 216.515 71.7074C216.057 70.7128 215.387 69.8303 214.552 69.1218C213.718 68.4133 212.738 67.8958 211.682 67.6057C210.626 67.3155 209.52 67.2597 208.44 67.442C207.576 66.0005 206.308 64.8437 204.794 64.1145C203.279 63.3853 201.584 63.1157 199.918 63.3389C198.252 63.5622 196.688 64.2685 195.419 65.3706C194.15 66.4728 193.232 67.9225 192.777 69.5407C191.94 69.2829 191.055 69.2247 190.191 69.371C189.328 69.5172 188.511 69.8638 187.806 70.3829C187.1 70.902 186.527 71.5792 186.13 72.3601C185.734 73.1411 185.526 74.004 185.524 74.8797C185.527 75.2769 185.57 75.6728 185.654 76.0611H217.099Z" fill="#F0F0F0"/>
<path d="M92.6339 59.7936C94.6143 49.5096 87.8829 39.5674 77.5989 37.587C67.3149 35.6066 57.3726 42.338 55.3922 52.622C53.4118 62.906 60.1433 72.8483 70.4273 74.8286C80.7112 76.809 90.6535 70.0776 92.6339 59.7936Z" fill="#F0F0F0"/>
<path opacity="0.1" d="M92.6339 59.7936C94.6143 49.5096 87.8829 39.5674 77.5989 37.587C67.3149 35.6066 57.3726 42.338 55.3922 52.622C53.4118 62.906 60.1433 72.8483 70.4273 74.8286C80.7112 76.809 90.6535 70.0776 92.6339 59.7936Z" fill="black"/>
<path d="M66.7115 55.0942C66.7769 54.6937 66.8119 54.2887 66.8162 53.8829C66.8162 51.8278 66.0012 49.8566 64.5499 48.4016C63.0987 46.9466 61.1296 46.1265 59.0745 46.1212C58.6534 46.1223 58.2332 46.159 57.8183 46.2309C56.9317 44.7397 55.6266 43.5418 54.0651 42.7861C52.5035 42.0303 50.7543 41.75 49.0348 41.98C47.3153 42.2099 45.7012 42.94 44.3931 44.0795C43.085 45.219 42.1404 46.7177 41.6769 48.3894C40.7171 48.0907 39.6959 48.0487 38.7149 48.2676C37.7339 48.4864 36.8274 48.9585 36.0856 49.6367C35.3439 50.315 34.7927 51.1757 34.4871 52.1333C34.1816 53.0908 34.1322 54.1117 34.3439 55.0942H66.7115Z" fill="#F0F0F0"/>
<path d="M84.3784 65.0792C84.275 64.4633 84.3077 63.8323 84.4743 63.2305C84.6408 62.6286 84.9371 62.0705 85.3424 61.5954C85.7477 61.1203 86.252 60.7397 86.8201 60.4804C87.3882 60.221 88.0061 60.0892 88.6306 60.0942C88.8663 60.0955 89.1015 60.1172 89.3335 60.159C89.8242 59.3274 90.5489 58.6587 91.4173 58.2365C92.2857 57.8142 93.2592 57.6571 94.2163 57.7847C95.1734 57.9123 96.0717 58.319 96.7991 58.9541C97.5265 59.5891 98.0508 60.4243 98.3065 61.3554C98.7849 61.2061 99.2917 61.1713 99.786 61.2541C100.28 61.3368 100.748 61.5346 101.152 61.8316C101.556 62.1286 101.884 62.5164 102.11 62.9636C102.336 63.4108 102.454 63.905 102.454 64.4062C102.454 64.634 102.43 64.8611 102.384 65.0842L84.3784 65.0792Z" fill="#F0F0F0"/>
<path d="M50.7346 79.4609C48.282 78.5386 43.6061 77.5516 41.3728 82.1179C41.3728 82.1179 43.9351 80.1239 48.2471 80.5925C48.0743 80.8924 47.9711 81.2273 47.9452 81.5724C47.9193 81.9176 47.9714 82.2642 48.0976 82.5865L50.7596 81.1159H50.7994C56.5621 79.406 60.1014 82.1578 60.1014 82.1578C57.8632 77.5516 53.1873 78.5386 50.7346 79.4609Z" fill="#F0F0F0"/>
<path d="M125.375 213.139C178.756 213.139 222.029 210.612 222.029 207.496C222.029 204.379 178.756 201.853 125.375 201.853C71.9944 201.853 28.7208 204.379 28.7208 207.496C28.7208 210.612 71.9944 213.139 125.375 213.139Z" fill="#F5F5F5"/>
<path d="M185.219 59.4033C192.183 58.6885 197.68 56.6526 197.496 54.856C197.311 53.0594 191.516 52.1824 184.551 52.8972C177.586 53.612 172.09 55.6479 172.274 57.4446C172.459 59.2412 178.254 60.1182 185.219 59.4033Z" fill="#0A9D56"/>
<path opacity="0.35" d="M190.679 53.3744C190.723 53.3744 191.86 53.4342 191.676 53.7582C191.491 54.0823 190.539 53.9975 190.539 53.9975L190.679 53.3744Z" fill="black"/>
<path opacity="0.35" d="M178.281 54.6306C178.281 54.6306 177.324 54.7951 177.528 55.3734C177.732 55.9516 179.746 55.6725 179.746 55.6725L179.248 54.8998L178.281 54.6306Z" fill="black"/>
<path d="M163.76 100.338L156.646 93.5336C156.641 92.6662 156.328 91.8288 155.764 91.1707C154.836 90.1737 150.694 88.7579 150.425 89.082C150.155 89.406 149.772 93.4139 150.235 93.8027C150.699 94.1916 154.881 95.8964 154.881 95.8964L160.43 103.19L163.76 100.338Z" fill="#E4897B"/>
<path d="M177.174 72.5268L174.432 74.0871C171.367 79.4759 164.542 91.38 162.468 95.0241C162.392 95.1583 162.287 95.2743 162.162 95.3641C162.036 95.4539 161.893 95.5154 161.741 95.5443C161.589 95.5733 161.433 95.5689 161.283 95.5316C161.134 95.4943 160.994 95.4248 160.873 95.3282L159.168 93.9772L155.36 99.2514C155.36 99.2514 161.018 105.144 162.952 104.56C166.661 103.429 176.332 87.068 176.332 87.068L177.174 72.5268Z" fill="#0A9D56"/>
<path opacity="0.4" d="M172.324 81.754C172.324 81.754 168.834 93.1646 168.954 98.5883C170.908 95.8316 172.852 92.7658 174.253 90.4827L172.324 81.754Z" fill="black"/>
<path d="M174.756 200.915L170.594 201.354L168.306 180.033L174.756 179.375V200.915Z" fill="#E4897B"/>
<path opacity="0.2" d="M168.56 182.406C170.145 182.346 172.812 182.212 174.756 182.112V179.375L168.306 180.033L168.56 182.406Z" fill="#263238"/>
<path d="M195.509 200.611H191.481L188.395 177.411L194.667 176.619L195.509 200.611Z" fill="#E4897B"/>
<path opacity="0.2" d="M188.59 178.867L188.989 181.878L194.831 181.304L194.666 176.619L188.869 177.351L188.59 178.867Z" fill="#263238"/>
<path d="M197.224 74.2765C196.041 78.6231 195.186 83.0522 194.667 87.5266C194.502 88.8975 194.362 90.2484 194.248 91.5545C194.098 93.2145 193.999 94.8147 193.914 96.3351C193.814 98.2544 193.784 100.528 193.789 102.766C193.789 107.9 194.004 112.84 194.004 112.84C189.901 113.837 178.052 113.184 171.571 112.711C170.808 106.519 170.608 100.27 170.973 94.042C171.187 89.9235 171.638 85.8207 172.324 81.754C172.672 79.5859 173.155 77.4415 173.769 75.3333C174.006 74.5854 174.453 73.9214 175.057 73.4202C175.66 72.9191 176.395 72.6021 177.174 72.5068C177.957 72.4121 178.864 72.3124 179.821 72.2576C180.19 72.2576 180.559 72.2227 180.933 72.2127C183.992 72.2507 187.046 72.4638 190.08 72.8508C190.654 72.9156 191.237 73.0053 191.805 73.0951C193.631 73.3937 195.44 73.7881 197.224 74.2765Z" fill="#0A9D56"/>
<path d="M178.341 54.6555C178.341 54.6555 177.413 59.5558 180.36 61.6944C183.306 63.8329 183.311 53.4891 183.311 53.4891L178.341 54.6555Z" fill="#F5F5F5"/>
<path d="M178.341 54.6555C178.341 54.6555 177.413 59.5558 180.36 61.6944C183.306 63.8329 183.311 53.4891 183.311 53.4891L178.341 54.6555Z" fill="#263238"/>
<path d="M190.085 72.8458C188.121 74.6305 183.311 73.9675 183.311 73.9675C183.311 73.9675 180.32 73.1499 180.938 72.2078C182.708 71.9186 183.565 71.0911 183.929 70.0343C184.121 69.3797 184.182 68.6936 184.108 68.0154C184.078 67.6415 184.024 67.2626 183.959 66.8887L189.906 62.482C189.118 65.3883 188.186 70.7372 190.085 72.8458Z" fill="#E4897B"/>
<path opacity="0.2" d="M188.52 65.3035C188.286 68.8727 185.355 69.8548 183.919 70.0542C184.111 69.3996 184.172 68.7135 184.098 68.0353L188.52 65.3035Z" fill="black"/>
<path d="M188.919 66.1061C188.302 67.0218 187.402 67.7092 186.356 68.0623C185.31 68.4155 184.177 68.4147 183.131 68.0602C181.77 67.6303 180.624 66.698 179.926 65.453C179.829 65.2798 179.741 65.1018 179.662 64.9197C178.211 61.5249 177.747 55.5877 181.337 53.3594C182.128 52.8691 183.031 52.5883 183.961 52.5434C184.891 52.4986 185.817 52.6912 186.651 53.1031C187.486 53.515 188.202 54.1327 188.733 54.8979C189.263 55.6631 189.589 56.5507 189.682 57.477C190.125 61.4451 190.574 63.7581 188.919 66.1061Z" fill="#E4897B"/>
<path d="M184.697 54.8998C184.919 54.7575 185.18 54.6886 185.444 54.7026C185.707 54.7167 185.96 54.8131 186.166 54.9782C186.372 55.1434 186.52 55.3689 186.591 55.6232C186.662 55.8774 186.652 56.1474 186.561 56.3953C186.177 57.9357 187.059 63.0952 188.799 60.8818C188.799 60.8818 188.754 60.2388 189.298 60.3235C189.841 60.4082 190.11 63.7432 189.253 65.4531C189.253 65.4531 190.664 63.8279 191.132 60.2387C191.601 56.6495 191.307 53.7882 190.325 52.8061C189.343 51.8241 189.083 52.846 188.356 51.4801C187.628 50.1142 181.716 49.9846 178.56 53.5638C177.977 54.2169 177.658 58.4093 184.697 54.8998Z" fill="#263238"/>
<path d="M183.899 59.6007C183.979 59.9147 183.829 60.2088 183.62 60.2437C183.41 60.2786 183.196 60.0443 183.121 59.7452C183.046 59.4461 183.191 59.1371 183.4 59.1022C183.61 59.0673 183.844 59.2767 183.899 59.6007Z" fill="#263238"/>
<path d="M180.275 60.2188C180.355 60.5328 180.205 60.827 179.996 60.8619C179.786 60.8968 179.572 60.6625 179.497 60.3634C179.422 60.0643 179.572 59.7552 179.776 59.7203C179.981 59.6854 180.21 59.9147 180.275 60.2188Z" fill="#263238"/>
<path d="M181.342 59.6954C181.126 60.7369 180.767 61.7435 180.275 62.6864C180.773 62.9306 181.441 63.1849 181.95 62.9705L181.342 59.6954Z" fill="#DE5753"/>
<path opacity="0.35" d="M190.32 52.8061C189.597 52.0833 189.268 52.4422 188.854 52.1431L185.469 53.1401C185.504 53.1401 189.213 53.0205 191.247 55.3534C191.097 54.177 190.788 53.2747 190.32 52.8061Z" fill="black"/>
<path d="M191.955 60.4132C191.67 61.3781 191.014 62.1904 190.13 62.6714C188.959 63.2995 188.081 62.3225 188.161 61.0613C188.241 59.9396 188.939 58.2298 190.24 58.1301C191.541 58.0304 192.289 59.2218 191.955 60.4132Z" fill="#E4897B"/>
<path d="M156.581 75.9814L152.169 75.4929L151.457 72.2775L157.977 73.0053L156.581 75.9814Z" fill="black"/>
<path d="M146.641 144.66H146.591C146.366 144.635 146.16 144.521 146.018 144.345C145.876 144.168 145.81 143.943 145.833 143.718L154.069 69.7352L155.818 69.9296L147.583 143.907C147.557 144.131 147.443 144.336 147.267 144.477C147.09 144.618 146.866 144.684 146.641 144.66Z" fill="#263238"/>
<path d="M167.438 57.1131C166.057 59.2896 165.047 61.6799 164.447 64.1868L163.311 68.9924C163.209 69.4422 162.95 69.8406 162.579 70.1151C162.209 70.3896 161.752 70.5219 161.292 70.4879L157.443 70.0592C155.614 69.8548 155.893 68.3643 155.893 68.3643L158.979 55.4432L158.48 56.2457C157.099 58.4236 156.088 60.8156 155.489 63.3244L154.288 68.4839C154.143 68.9027 153.675 69.6554 152.134 69.4809L149.702 69.2117H149.652C149.457 69.1821 149.271 69.1123 149.105 69.0066C148.939 68.901 148.797 68.7619 148.687 68.5981C148.578 68.4344 148.504 68.2497 148.47 68.0558C148.436 67.8619 148.443 67.663 148.49 67.472L151.591 54.511L151.093 55.3086C149.711 57.4864 148.7 59.8785 148.102 62.3873L146.606 68.7481V68.8378C146.47 70.1331 146.849 71.4299 147.662 72.4477C148.474 73.4655 149.655 74.1225 150.948 74.2765L159.019 75.1738C160.312 75.3172 161.609 74.9449 162.629 74.1376C163.649 73.3302 164.31 72.1531 164.467 70.8618L167.957 56.3105L167.438 57.1131Z" fill="#0A9D56"/>
<path opacity="0.5" d="M167.438 57.1131C166.057 59.2896 165.047 61.6799 164.447 64.1868L163.311 68.9924C163.209 69.4422 162.95 69.8406 162.579 70.1151C162.209 70.3896 161.752 70.5219 161.292 70.4879L157.443 70.0592C155.614 69.8548 155.893 68.3643 155.893 68.3643L158.979 55.4432L158.48 56.2457C157.099 58.4236 156.088 60.8156 155.489 63.3244L154.288 68.4839C154.143 68.9027 153.675 69.6554 152.134 69.4809L149.702 69.2117H149.652C149.457 69.1821 149.271 69.1123 149.105 69.0066C148.939 68.901 148.797 68.7619 148.687 68.5981C148.578 68.4344 148.504 68.2497 148.47 68.0558C148.436 67.8619 148.443 67.663 148.49 67.472L151.591 54.511L151.093 55.3086C149.711 57.4864 148.7 59.8785 148.102 62.3873L146.606 68.7481V68.8378C146.47 70.1331 146.849 71.4299 147.662 72.4477C148.474 73.4655 149.655 74.1225 150.948 74.2765L159.019 75.1738C160.312 75.3172 161.609 74.9449 162.629 74.1376C163.649 73.3302 164.31 72.1531 164.467 70.8618L167.957 56.3105L167.438 57.1131Z" fill="white"/>
<path d="M187.099 178.613L195.848 177.536C195.419 169.904 194.951 161.464 194.637 155.851C193.874 142.172 193.545 112.187 193.52 109.376H172.124C170.385 118.887 165.469 149.051 166.955 179.51L175.644 179.011C175.988 163.872 177.199 141.165 181.257 130.253C181.995 139.455 182.867 149.241 183.625 154.45C184.517 160.582 185.903 170.238 187.099 178.613Z" fill="#0A9D56"/>
<path opacity="0.3" d="M187.099 178.613L195.848 177.536C195.419 169.904 194.951 161.464 194.637 155.851C194.003 144.49 193.669 121.878 193.56 112.935C193.709 112.905 193.859 112.875 193.994 112.84C193.994 112.84 193.789 107.9 193.779 102.766C193.779 100.528 193.779 98.2544 193.904 96.3351C193.989 94.8147 194.088 93.2145 194.238 91.5545C194.352 90.2484 194.492 88.8975 194.657 87.5266C195.18 83.0519 196.038 78.6228 197.224 74.2765C195.483 73.8113 193.719 73.437 191.94 73.1549C188.704 76.784 186.98 86.3352 186.98 86.3352C183.919 86.3801 175.32 85.4379 175.32 85.4379C176.062 76.0063 178.126 72.9754 178.65 72.3822C178.126 72.4321 177.628 72.4869 177.154 72.5417C176.375 72.637 175.64 72.954 175.037 73.4551C174.433 73.9563 173.986 74.6203 173.749 75.3682C173.135 77.4765 172.652 79.6208 172.304 81.7889C171.615 85.8488 171.161 89.9449 170.943 94.057C170.579 100.258 170.776 106.48 171.531 112.646C169.487 124.61 165.589 151.958 166.93 179.525L175.624 179.026C175.968 163.887 177.179 141.18 181.237 130.268C181.975 139.47 182.847 149.256 183.605 154.465C184.517 160.582 185.903 170.238 187.099 178.613Z" fill="black"/>
<path opacity="0.35" d="M194.318 148.553C194.148 143.887 194.014 138.548 193.899 133.344L190.958 131.664C190.958 131.664 191.556 145.976 194.318 148.553Z" fill="black"/>
<path d="M166.795 181.07L176.511 180.362L176.416 177.68L166.322 178.244L166.795 181.07Z" fill="#0A9D56"/>
<path d="M186.83 180.128L196.371 179.51L196.207 176.619L186.501 177.361L186.83 180.128Z" fill="#0A9D56"/>
<path d="M177.937 203.572L176.591 199.221L176.511 186.155L167.598 186.703L169.283 199.794C168.141 200.995 165.35 202.391 161.581 203.538C160.744 203.797 161.182 205.841 163.271 205.671C165.36 205.502 169.916 204.968 171.431 204.844C173.884 204.644 175.32 204.644 177.279 204.52C177.333 204.515 177.386 204.505 177.438 204.49C177.531 204.462 177.618 204.417 177.693 204.356C177.769 204.295 177.831 204.22 177.878 204.134C177.924 204.049 177.953 203.956 177.963 203.859C177.973 203.763 177.964 203.665 177.937 203.572Z" fill="#263238"/>
<path d="M166.676 186.155L177.109 185.397V188.847L167.09 189.3L166.676 186.155Z" fill="#263238"/>
<path d="M198.704 203.951L197.358 199.599L197.279 186.534L188.365 187.082L190.05 200.168C188.914 201.374 186.117 202.765 182.349 203.916C181.511 204.176 181.95 206.219 184.043 206.05C186.137 205.88 190.683 205.347 192.199 205.222C194.657 205.023 196.087 205.023 198.046 204.898C198.1 204.894 198.154 204.884 198.206 204.869C198.299 204.841 198.385 204.796 198.461 204.735C198.536 204.674 198.599 204.598 198.645 204.513C198.692 204.428 198.721 204.335 198.731 204.238C198.741 204.142 198.732 204.044 198.704 203.951Z" fill="#263238"/>
<path d="M187.443 186.534L197.877 185.776V189.226L187.857 189.679L187.443 186.534Z" fill="#263238"/>
<path d="M175.051 90.1886L176.631 90.6074C179.053 91.2399 181.557 91.5054 184.058 91.395L186.147 91.3003L184.741 97.4318C184.611 98.0786 184.247 98.6543 183.717 99.0483C183.188 99.4422 182.532 99.6264 181.875 99.5654L177.478 99.1566C176.814 99.0934 176.198 98.7852 175.749 98.2921C175.3 97.7991 175.051 97.1565 175.051 96.4897V90.1886Z" fill="#0A9D56"/>
<path opacity="0.2" d="M175.051 90.1886L176.631 90.6074C179.053 91.2399 181.557 91.5054 184.058 91.395L186.147 91.3003L184.741 97.4318C184.611 98.0786 184.247 98.6543 183.717 99.0483C183.188 99.4422 182.532 99.6264 181.875 99.5654L177.478 99.1566C176.814 99.0934 176.198 98.7852 175.749 98.2921C175.3 97.7991 175.051 97.1565 175.051 96.4897V90.1886Z" fill="black"/>
<path d="M203.799 135.886L202.882 135.677C203.114 134.66 203.229 133.619 203.226 132.576C203.226 127.815 200.938 123.947 198.126 123.947C195.315 123.947 193.031 127.815 193.031 132.601H192.089C192.089 127.327 194.801 123.03 198.126 123.03C201.451 123.03 204.163 127.327 204.163 132.601C204.165 133.706 204.043 134.808 203.799 135.886Z" fill="#263238"/>
<path d="M190.963 131.649L193.63 145.607C193.63 146.205 195.838 146.694 198.565 146.694C201.292 146.694 203.5 146.195 203.5 145.607L206.167 131.649H190.963Z" fill="#EBEBEB"/>
<path opacity="0.3" d="M190.963 131.649L193.63 145.607C193.63 146.205 195.838 146.694 198.565 146.694C201.292 146.694 203.5 146.195 203.5 145.607L206.167 131.649H190.963Z" fill="black"/>
<path d="M198.565 133.319C202.763 133.319 206.167 132.571 206.167 131.649C206.167 130.727 202.763 129.979 198.565 129.979C194.366 129.979 190.963 130.727 190.963 131.649C190.963 132.571 194.366 133.319 198.565 133.319Z" fill="#0A9D56"/>
<path opacity="0.6" d="M198.565 133.319C202.763 133.319 206.167 132.571 206.167 131.649C206.167 130.727 202.763 129.979 198.565 129.979C194.366 129.979 190.963 130.727 190.963 131.649C190.963 132.571 194.366 133.319 198.565 133.319Z" fill="black"/>
<path opacity="0.35" d="M198.565 133.319C202.053 133.319 204.881 132.986 204.881 132.576C204.881 132.166 202.053 131.833 198.565 131.833C195.077 131.833 192.249 132.166 192.249 132.576C192.249 132.986 195.077 133.319 198.565 133.319Z" fill="black"/>
<path d="M203.32 136.734C203.978 136.734 204.512 136.2 204.512 135.542C204.512 134.884 203.978 134.351 203.32 134.351C202.662 134.351 202.129 134.884 202.129 135.542C202.129 136.2 202.662 136.734 203.32 136.734Z" fill="#F5F5F5"/>
<path opacity="0.4" d="M202.413 133.099C202.733 133.771 202.925 134.496 202.977 135.238L203.525 135.093L203.829 133.06V132.865C203.385 132.945 202.917 133.02 202.413 133.099Z" fill="black"/>
<path d="M198.565 123.04V123.982C201.172 124.361 203.226 128.07 203.226 132.576C203.227 133.466 203.143 134.354 202.977 135.228C202.953 135.348 202.976 135.472 203.042 135.574C203.108 135.676 203.212 135.749 203.33 135.776C203.453 135.798 203.579 135.774 203.684 135.707C203.789 135.641 203.866 135.537 203.899 135.418C204.076 134.481 204.164 133.529 204.163 132.576C204.163 127.536 201.69 123.399 198.565 123.04Z" fill="#263238"/>
<path d="M195.409 111.385L195.943 120.587C195.39 121.184 195.069 121.958 195.035 122.771C195.035 124.057 196.97 127.661 197.363 127.611C197.757 127.561 200.579 125.059 200.504 124.5C200.429 123.942 198.66 120.099 198.66 120.099L199.497 111.574L195.409 111.385Z" fill="#E4897B"/>
<path opacity="0.2" d="M181.257 130.238C180.204 133.25 179.404 136.345 178.864 139.49C178.266 131.305 180.659 122.626 180.659 122.626L181.257 130.238Z" fill="black"/>
<path d="M183.595 63.808C183.301 63.6753 182.973 63.6338 182.655 63.6888C182.337 63.7439 182.043 63.8931 181.81 64.1171C181.791 64.1026 181.771 64.0893 181.75 64.0772C181.439 63.9686 181.102 63.9582 180.785 64.0474C180.467 64.1365 180.185 64.3209 179.976 64.5757C179.039 65.5727 178.734 65.0393 178.734 65.0393C178.734 65.0393 179.368 66.7342 181.077 65.6574C181.217 65.5677 181.342 65.483 181.451 65.4032C181.606 65.2909 181.784 65.2139 181.971 65.1777C182.159 65.1415 182.353 65.147 182.538 65.1938C182.721 65.2361 182.908 65.2562 183.096 65.2536C184.672 65.2536 185.16 63.6584 185.16 63.6584C185.16 63.6584 184.886 64.3065 183.595 63.808Z" fill="#263238"/>
<path d="M184.387 53.4741C186.733 53.2088 189.101 53.2088 191.446 53.4741C190.838 50.0943 188.37 48.1252 184.811 48.1252C180.823 48.1252 177.099 50.7672 177.099 54.7602C177.099 54.8549 177.099 54.9447 177.099 55.0344C179.456 54.2188 181.903 53.6948 184.387 53.4741Z" fill="#0A9D56"/>
<path d="M187.428 55.7273C187.339 55.7971 180.788 57.7213 179.168 56.0663C177.548 54.4113 184.652 54.2468 184.652 54.2468L186.765 54.4013L187.428 55.7273Z" fill="#263238"/>
<path d="M197.224 74.2765C197.224 74.2765 200.903 73.778 200.768 98.4039C200.683 114.899 201.202 114.815 201.202 114.815L193.565 115.188C193.565 115.188 188.52 74.3164 197.224 74.2765Z" fill="#0A9D56"/>
<path d="M192.468 112.83L201.915 112.731L201.979 115.173L192.608 115.428L192.468 112.83Z" fill="#0A9D56"/>
<path opacity="0.5" d="M192.468 112.83L201.915 112.731L201.979 115.173L192.608 115.428L192.468 112.83Z" fill="#FAFAFA"/>
<path d="M158.775 92.6861L160.385 93.9373L155.474 100.373L153.984 99.027L158.775 92.6861Z" fill="#0A9D56"/>
<path opacity="0.5" d="M158.775 92.6861L160.385 93.9373L155.474 100.373L153.984 99.027L158.775 92.6861Z" fill="#FAFAFA"/>
<path d="M182.703 58.2846C182.682 58.2789 182.663 58.2692 182.646 58.256C182.63 58.2428 182.616 58.2265 182.606 58.2079C182.596 58.1894 182.589 58.169 182.587 58.1479C182.585 58.1268 182.587 58.1055 182.593 58.0852C182.66 57.9051 182.777 57.7482 182.931 57.6332C183.085 57.5182 183.269 57.4502 183.46 57.4372C183.666 57.3925 183.88 57.4088 184.077 57.484C184.273 57.5593 184.444 57.6903 184.567 57.8609C184.59 57.8974 184.597 57.9413 184.588 57.9832C184.578 58.0251 184.553 58.0618 184.517 58.0852C184.48 58.1074 184.436 58.1141 184.394 58.1038C184.352 58.0935 184.315 58.0672 184.293 58.0304C184.201 57.9146 184.078 57.8274 183.939 57.7788C183.799 57.7303 183.649 57.7224 183.505 57.7562C183.375 57.763 183.249 57.8063 183.142 57.8812C183.036 57.9562 182.952 58.0597 182.902 58.18C182.889 58.2202 182.861 58.2539 182.824 58.2735C182.786 58.2931 182.743 58.2971 182.703 58.2846Z" fill="#263238"/>
<path d="M178.48 58.823H178.435C178.394 58.8103 178.359 58.7817 178.338 58.7434C178.318 58.7051 178.313 58.6603 178.326 58.6186C178.392 58.4385 178.51 58.2815 178.664 58.1666C178.818 58.0516 179.001 57.9835 179.193 57.9706C179.399 57.9271 179.613 57.944 179.809 58.0192C180.005 58.0944 180.176 58.2246 180.3 58.3943C180.311 58.4125 180.319 58.4328 180.323 58.4541C180.326 58.4754 180.325 58.4972 180.32 58.5182C180.315 58.5392 180.306 58.5589 180.293 58.5761C180.28 58.5934 180.264 58.6078 180.245 58.6186C180.227 58.6301 180.207 58.6379 180.186 58.6414C180.165 58.6449 180.144 58.644 180.123 58.6389C180.103 58.6337 180.083 58.6244 180.067 58.6115C180.05 58.5986 180.036 58.5823 180.026 58.5638C179.933 58.4494 179.81 58.3634 179.67 58.3158C179.531 58.2682 179.381 58.2608 179.238 58.2946C179.108 58.2997 178.982 58.3418 178.875 58.416C178.768 58.4902 178.685 58.5933 178.635 58.7133C178.624 58.7457 178.603 58.7739 178.576 58.7936C178.548 58.8133 178.514 58.8236 178.48 58.823Z" fill="#263238"/>
<path d="M61.3875 146.649C61.3875 150.477 55.8293 157.307 52.0008 157.307C48.1723 157.307 47.5143 150.477 47.5143 146.649C47.5143 144.81 48.2448 143.046 49.5452 141.746C50.8456 140.445 52.6094 139.715 54.4484 139.715C56.2875 139.715 58.0512 140.445 59.3516 141.746C60.652 143.046 61.3826 144.81 61.3826 146.649H61.3875Z" fill="#0A9D56"/>
<path opacity="0.4" d="M61.3875 146.649C61.3875 150.477 55.8293 157.307 52.0008 157.307C48.1723 157.307 47.5143 150.477 47.5143 146.649C47.5143 144.81 48.2448 143.046 49.5452 141.746C50.8456 140.445 52.6094 139.715 54.4484 139.715C56.2875 139.715 58.0512 140.445 59.3516 141.746C60.652 143.046 61.3826 144.81 61.3826 146.649H61.3875Z" fill="#FAFAFA"/>
<path d="M57.9429 138.518C57.4419 138.79 57.011 139.175 56.684 139.642C56.357 140.11 56.1429 140.646 56.0586 141.21C56.5756 141.452 57.1419 141.569 57.7123 141.553C58.2826 141.536 58.8413 141.387 59.3436 141.116C59.8459 140.845 60.2779 140.461 60.6051 139.993C60.9323 139.526 61.1456 138.988 61.228 138.423C60.7104 138.184 60.1443 138.068 59.5743 138.085C59.0043 138.101 58.4459 138.25 57.9429 138.518Z" fill="#0A9D56"/>
<path opacity="0.2" d="M57.9429 138.518C57.4419 138.79 57.011 139.175 56.684 139.642C56.357 140.11 56.1429 140.646 56.0586 141.21C56.5756 141.452 57.1419 141.569 57.7123 141.553C58.2826 141.536 58.8413 141.387 59.3436 141.116C59.8459 140.845 60.2779 140.461 60.6051 139.993C60.9323 139.526 61.1456 138.988 61.228 138.423C60.7104 138.184 60.1443 138.068 59.5743 138.085C59.0043 138.101 58.4459 138.25 57.9429 138.518Z" fill="#FAFAFA"/>
<path d="M54.3836 140.243C54.5723 140.524 54.8236 140.757 55.1178 140.924C55.4119 141.091 55.7408 141.187 56.0785 141.205C56.1924 140.887 56.2304 140.546 56.1892 140.211C56.1481 139.875 56.0291 139.554 55.8416 139.272C55.6542 138.991 55.4035 138.757 55.1097 138.59C54.8159 138.423 54.487 138.326 54.1493 138.309C54.0356 138.627 53.9975 138.968 54.0382 139.304C54.0788 139.639 54.1971 139.961 54.3836 140.243Z" fill="#0A9D56"/>
<path opacity="0.2" d="M54.3836 140.243C54.5723 140.524 54.8236 140.757 55.1178 140.924C55.4119 141.091 55.7408 141.187 56.0785 141.205C56.1924 140.887 56.2304 140.546 56.1892 140.211C56.1481 139.875 56.0291 139.554 55.8416 139.272C55.6542 138.991 55.4035 138.757 55.1097 138.59C54.8159 138.423 54.487 138.326 54.1493 138.309C54.0356 138.627 53.9975 138.968 54.0382 139.304C54.0788 139.639 54.1971 139.961 54.3836 140.243Z" fill="#FAFAFA"/>
<path d="M88.2567 144.027C89.5029 147.651 86.472 155.916 82.848 157.162C79.2239 158.408 76.3675 152.177 75.1411 148.543C74.5422 146.804 74.6588 144.898 75.4651 143.245C76.2714 141.591 77.7015 140.326 79.4407 139.727C81.1799 139.128 83.0858 139.245 84.7392 140.051C86.3925 140.857 87.6578 142.287 88.2567 144.027Z" fill="#0A9D56"/>
<path opacity="0.4" d="M88.2567 144.027C89.5029 147.651 86.472 155.916 82.848 157.162C79.2239 158.408 76.3675 152.177 75.1411 148.543C74.5422 146.804 74.6588 144.898 75.4651 143.245C76.2714 141.591 77.7015 140.326 79.4407 139.727C81.1799 139.128 83.0858 139.245 84.7392 140.051C86.3925 140.857 87.6578 142.287 88.2567 144.027Z" fill="#FAFAFA"/>
<path d="M82.3544 137.461C81.9678 137.881 81.6844 138.386 81.5269 138.934C81.3694 139.483 81.3421 140.061 81.4472 140.622C82.0149 140.682 82.5888 140.609 83.1232 140.408C83.6576 140.207 84.1376 139.884 84.525 139.465C84.9124 139.045 85.1964 138.541 85.3544 137.993C85.5125 137.444 85.5401 136.866 85.4352 136.305C84.8671 136.245 84.293 136.319 83.7583 136.519C83.2236 136.72 82.7429 137.043 82.3544 137.461Z" fill="#0A9D56"/>
<path opacity="0.2" d="M82.3544 137.461C81.9678 137.881 81.6844 138.386 81.5269 138.934C81.3694 139.483 81.3421 140.061 81.4472 140.622C82.0149 140.682 82.5888 140.609 83.1232 140.408C83.6576 140.207 84.1376 139.884 84.525 139.465C84.9124 139.045 85.1964 138.541 85.3544 137.993C85.5125 137.444 85.5401 136.866 85.4352 136.305C84.8671 136.245 84.293 136.319 83.7583 136.519C83.2236 136.72 82.7429 137.043 82.3544 137.461Z" fill="#FAFAFA"/>
<path d="M79.5479 140.248C79.8169 140.453 80.1301 140.592 80.4624 140.654C80.7948 140.717 81.1372 140.7 81.4621 140.607C81.4651 140.269 81.3893 139.936 81.2408 139.633C81.0922 139.33 80.8749 139.066 80.6062 138.861C80.3376 138.657 80.025 138.518 79.6932 138.456C79.3615 138.394 79.0199 138.41 78.6955 138.503C78.6914 138.84 78.7664 139.174 78.9144 139.477C79.0624 139.78 79.2794 140.044 79.5479 140.248Z" fill="#0A9D56"/>
<path opacity="0.2" d="M79.5479 140.248C79.8169 140.453 80.1301 140.592 80.4624 140.654C80.7948 140.717 81.1372 140.7 81.4621 140.607C81.4651 140.269 81.3893 139.936 81.2408 139.633C81.0922 139.33 80.8749 139.066 80.6062 138.861C80.3376 138.657 80.025 138.518 79.6932 138.456C79.3615 138.394 79.0199 138.41 78.6955 138.503C78.6914 138.84 78.7664 139.174 78.9144 139.477C79.0624 139.78 79.2794 140.044 79.5479 140.248Z" fill="#FAFAFA"/>
<path d="M61.1333 145.148C60.7345 149.635 66.5121 158.194 70.9937 158.608C75.4752 159.022 76.9457 151.095 77.3495 146.619C77.5426 144.468 76.8734 142.329 75.4894 140.672C74.804 139.852 73.9638 139.174 73.0167 138.679C72.0695 138.183 71.034 137.878 69.9692 137.783C68.9045 137.687 67.8313 137.802 66.811 138.122C65.7907 138.441 64.8433 138.958 64.0228 139.643C62.3657 141.027 61.3264 143.013 61.1333 145.163V145.148Z" fill="#0A9D56"/>
<path opacity="0.5" d="M61.1333 145.148C60.7345 149.635 66.5121 158.194 70.9937 158.608C75.4752 159.022 76.9457 151.095 77.3495 146.619C77.5426 144.468 76.8734 142.329 75.4894 140.672C74.804 139.852 73.9638 139.174 73.0167 138.679C72.0695 138.183 71.034 137.878 69.9692 137.783C68.9045 137.687 67.8313 137.802 66.811 138.122C65.7907 138.441 64.8433 138.958 64.0228 139.643C62.3657 141.027 61.3264 143.013 61.1333 145.163V145.148Z" fill="#FAFAFA"/>
<path d="M66.0136 136.011C66.5709 136.381 67.0348 136.875 67.3687 137.454C67.7026 138.034 67.8974 138.683 67.9378 139.351C67.3085 139.579 66.6346 139.656 65.97 139.578C65.3053 139.499 64.6682 139.266 64.1095 138.898C63.5507 138.529 63.0858 138.035 62.7517 137.455C62.4176 136.875 62.2236 136.225 62.1851 135.557C62.8147 135.33 63.4884 135.253 64.153 135.332C64.8175 135.41 65.4546 135.643 66.0136 136.011Z" fill="#0A9D56"/>
<path opacity="0.2" d="M66.0136 136.011C66.5709 136.381 67.0348 136.875 67.3687 137.454C67.7026 138.034 67.8974 138.683 67.9378 139.351C67.3085 139.579 66.6346 139.656 65.97 139.578C65.3053 139.499 64.6682 139.266 64.1095 138.898C63.5507 138.529 63.0858 138.035 62.7517 137.455C62.4176 136.875 62.2236 136.225 62.1851 135.557C62.8147 135.33 63.4884 135.253 64.153 135.332C64.8175 135.41 65.4546 135.643 66.0136 136.011Z" fill="#FAFAFA"/>
<path d="M69.9917 138.399C69.7415 138.706 69.4238 138.951 69.0632 139.116C68.7026 139.28 68.309 139.359 67.9129 139.346C67.8141 138.962 67.8063 138.56 67.8902 138.172C67.9741 137.784 68.1474 137.422 68.3962 137.113C68.6451 136.804 68.9626 136.557 69.3235 136.393C69.6845 136.228 70.0788 136.15 70.4752 136.165C70.5721 136.55 70.5789 136.951 70.495 137.339C70.4112 137.726 70.2389 138.089 69.9917 138.399Z" fill="#0A9D56"/>
<path opacity="0.2" d="M69.9917 138.399C69.7415 138.706 69.4238 138.951 69.0632 139.116C68.7026 139.28 68.309 139.359 67.9129 139.346C67.8141 138.962 67.8063 138.56 67.8902 138.172C67.9741 137.784 68.1474 137.422 68.3962 137.113C68.6451 136.804 68.9626 136.557 69.3235 136.393C69.6845 136.228 70.0788 136.15 70.4752 136.165C70.5721 136.55 70.5789 136.951 70.495 137.339C70.4112 137.726 70.2389 138.089 69.9917 138.399Z" fill="#FAFAFA"/>
<path d="M87.9875 141.983C86.5718 146.25 90.2357 155.911 94.5029 157.327C98.7701 158.742 102.02 151.379 103.436 147.112C104.116 145.063 103.955 142.828 102.986 140.897C102.018 138.967 100.323 137.501 98.274 136.821C96.2248 136.141 93.9892 136.302 92.0592 137.27C90.1292 138.238 88.6627 139.934 87.9825 141.983H87.9875Z" fill="#0A9D56"/>
<path opacity="0.5" d="M87.9875 141.983C86.5718 146.25 90.2357 155.911 94.5029 157.327C98.7701 158.742 102.02 151.379 103.436 147.112C104.116 145.063 103.955 142.828 102.986 140.897C102.018 138.967 100.323 137.501 98.274 136.821C96.2248 136.141 93.9892 136.302 92.0592 137.27C90.1292 138.238 88.6627 139.934 87.9825 141.983H87.9875Z" fill="#FAFAFA"/>
<path d="M94.812 134.206C95.2694 134.693 95.6074 135.28 95.7995 135.92C95.9915 136.561 96.0323 137.236 95.9186 137.895C95.2537 137.974 94.5795 137.896 93.9501 137.667C93.3207 137.439 92.7534 137.066 92.2937 136.579C91.834 136.093 91.4945 135.505 91.3025 134.863C91.1105 134.222 91.0712 133.545 91.1879 132.885C91.853 132.809 92.5267 132.889 93.1557 133.118C93.7846 133.348 94.3517 133.72 94.812 134.206Z" fill="#0A9D56"/>
<path opacity="0.2" d="M94.812 134.206C95.2694 134.693 95.6074 135.28 95.7995 135.92C95.9915 136.561 96.0323 137.236 95.9186 137.895C95.2537 137.974 94.5795 137.896 93.9501 137.667C93.3207 137.439 92.7534 137.066 92.2937 136.579C91.834 136.093 91.4945 135.505 91.3025 134.863C91.1105 134.222 91.0712 133.545 91.1879 132.885C91.853 132.809 92.5267 132.889 93.1557 133.118C93.7846 133.348 94.3517 133.72 94.812 134.206Z" fill="#FAFAFA"/>
<path d="M98.137 137.436C97.8248 137.681 97.4598 137.849 97.0711 137.927C96.6824 138.005 96.2809 137.99 95.8987 137.885C95.8921 137.49 95.9778 137.098 96.1489 136.742C96.3201 136.386 96.572 136.074 96.8846 135.832C97.1972 135.59 97.5619 135.425 97.9498 135.348C98.3377 135.272 98.738 135.287 99.119 135.393C99.1242 135.786 99.0383 136.175 98.8679 136.53C98.6975 136.884 98.4474 137.195 98.137 137.436Z" fill="#0A9D56"/>
<path opacity="0.2" d="M98.137 137.436C97.8248 137.681 97.4598 137.849 97.0711 137.927C96.6824 138.005 96.2809 137.99 95.8987 137.885C95.8921 137.49 95.9778 137.098 96.1489 136.742C96.3201 136.386 96.572 136.074 96.8846 135.832C97.1972 135.59 97.5619 135.425 97.9498 135.348C98.3377 135.272 98.738 135.287 99.119 135.393C99.1242 135.786 99.0383 136.175 98.8679 136.53C98.6975 136.884 98.4474 137.195 98.137 137.436Z" fill="#FAFAFA"/>
<path d="M36.8015 148.483H114.523C114.523 148.483 115.425 166.085 110.255 170.916C105.864 175.033 72.0554 178.807 58.7405 180.347C56.248 180.636 48.1673 179.909 46.1534 178.129C41.0786 173.643 37.3897 164.699 36.8015 148.483Z" fill="#0A9D56"/>
<g opacity="0.35">
<path opacity="0.35" d="M46.1533 178.139C48.1473 179.919 56.253 180.631 58.7405 180.357C61.6068 180.028 65.4254 179.59 69.7075 179.071C82.4342 177.127 93.9894 174.789 96.5966 172.341C101.392 167.855 101.686 153.897 101.611 148.483H36.8065C37.3897 164.699 41.0786 173.643 46.1533 178.139Z" fill="black"/>
</g>
<path d="M117.304 146.823H35.2761V149.974H117.304V146.823Z" fill="#0A9D56"/>
<g opacity="0.4">
<path opacity="0.4" d="M117.304 146.823H35.2761V149.974H117.304V146.823Z" fill="#FAFAFA"/>
</g>
<path d="M58.5633 208.834C65.7731 207.663 70.669 200.87 69.4987 193.66C68.3284 186.451 61.535 181.555 54.3253 182.725C47.1156 183.895 42.2197 190.689 43.39 197.898C44.5603 205.108 51.3536 210.004 58.5633 208.834Z" fill="#2E353A"/>
<g opacity="0.35">
<path opacity="0.35" d="M114.189 159.316L110.126 165.004C109.419 165.99 108.921 167.112 108.664 168.298C108.407 169.485 108.395 170.712 108.63 171.903C109.217 171.656 109.762 171.319 110.245 170.906C112.598 168.732 113.69 163.922 114.189 159.316Z" fill="black"/>
</g>
<path d="M62.6188 195.781C62.6188 194.558 62.2563 193.363 61.5771 192.347C60.8979 191.33 59.9325 190.538 58.803 190.07C57.6735 189.602 56.4306 189.48 55.2315 189.718C54.0324 189.957 52.931 190.545 52.0665 191.41C51.2021 192.274 50.6133 193.376 50.3748 194.575C50.1363 195.774 50.2587 197.017 50.7266 198.146C51.1944 199.276 51.9867 200.241 53.0032 200.921C54.0198 201.6 55.2149 201.962 56.4374 201.962C58.0769 201.962 59.6491 201.311 60.8084 200.152C61.9676 198.993 62.6188 197.42 62.6188 195.781Z" fill="#F0F0F0"/>
<path d="M59.244 195.781C59.244 195.226 59.0794 194.683 58.771 194.222C58.4626 193.76 58.0243 193.4 57.5115 193.188C56.9986 192.976 56.4343 192.92 55.8899 193.028C55.3455 193.137 54.8454 193.404 54.4529 193.796C54.0604 194.189 53.7931 194.689 53.6848 195.233C53.5765 195.778 53.6321 196.342 53.8445 196.855C54.0569 197.368 54.4167 197.806 54.8782 198.114C55.3397 198.423 55.8824 198.587 56.4374 198.587C57.1818 198.587 57.8956 198.292 58.422 197.765C58.9483 197.239 59.244 196.525 59.244 195.781Z" fill="#263238"/>
<path d="M113.037 207.067C111.391 207.072 109.791 206.518 108.501 205.496C107.21 204.473 106.305 203.043 105.933 201.439L100.355 175.971L66.6567 181.22L58.0127 196.673C57.8968 196.88 57.7413 197.062 57.5551 197.209C57.3689 197.356 57.1556 197.464 56.9274 197.529C56.6992 197.593 56.4605 197.612 56.2251 197.584C55.9896 197.556 55.7619 197.482 55.5551 197.366C55.3482 197.25 55.1662 197.095 55.0194 196.909C54.8726 196.722 54.764 196.509 54.6996 196.281C54.6353 196.053 54.6165 195.814 54.6444 195.579C54.6723 195.343 54.7463 195.115 54.8622 194.909L63.9299 178.692C64.0648 178.454 64.2518 178.248 64.4771 178.092C64.7024 177.936 64.9601 177.833 65.231 177.79L101.477 172.142C101.931 172.072 102.394 172.177 102.773 172.436C103.151 172.696 103.417 173.089 103.516 173.538L109.473 200.656C109.589 201.145 109.804 201.605 110.106 202.007C110.407 202.409 110.788 202.744 111.225 202.992C111.662 203.24 112.145 203.395 112.645 203.448C113.145 203.5 113.65 203.45 114.129 203.298C115.002 203.031 115.743 202.446 116.205 201.658C116.666 200.871 116.815 199.938 116.621 199.046L110.385 168.443C110.307 168.06 110.354 167.661 110.52 167.307L118.246 151.045C118.366 150.793 118.543 150.572 118.763 150.399C118.982 150.226 119.239 150.106 119.513 150.048L149.158 143.912C149.617 143.841 150.085 143.949 150.466 144.214C150.848 144.478 151.112 144.879 151.207 145.333C151.301 145.788 151.217 146.261 150.972 146.655C150.727 147.049 150.34 147.334 149.891 147.451L121.123 153.403L114.044 168.324L120.141 198.308C120.365 199.366 120.35 200.461 120.097 201.512C119.844 202.564 119.36 203.545 118.679 204.386C117.998 205.226 117.138 205.904 116.162 206.369C115.186 206.835 114.119 207.077 113.037 207.077V207.067Z" fill="#0A9D56"/>
<g opacity="0.7">
<path opacity="0.7" d="M113.037 207.067C111.391 207.072 109.791 206.518 108.501 205.496C107.21 204.473 106.305 203.043 105.933 201.439L100.355 175.971L66.6567 181.22L58.0127 196.673C57.8968 196.88 57.7413 197.062 57.5551 197.209C57.3689 197.356 57.1556 197.464 56.9274 197.529C56.6992 197.593 56.4605 197.612 56.2251 197.584C55.9896 197.556 55.7619 197.482 55.5551 197.366C55.3482 197.25 55.1662 197.095 55.0194 196.909C54.8726 196.722 54.764 196.509 54.6996 196.281C54.6353 196.053 54.6165 195.814 54.6444 195.579C54.6723 195.343 54.7463 195.115 54.8622 194.909L63.9299 178.692C64.0648 178.454 64.2518 178.248 64.4771 178.092C64.7024 177.936 64.9601 177.833 65.231 177.79L101.477 172.142C101.931 172.072 102.394 172.177 102.773 172.436C103.151 172.696 103.417 173.089 103.516 173.538L109.473 200.656C109.589 201.145 109.804 201.605 110.106 202.007C110.407 202.409 110.788 202.744 111.225 202.992C111.662 203.24 112.145 203.395 112.645 203.448C113.145 203.5 113.65 203.45 114.129 203.298C115.002 203.031 115.743 202.446 116.205 201.658C116.666 200.871 116.815 199.938 116.621 199.046L110.385 168.443C110.307 168.06 110.354 167.661 110.52 167.307L118.246 151.045C118.366 150.793 118.543 150.572 118.763 150.399C118.982 150.226 119.239 150.106 119.513 150.048L149.158 143.912C149.617 143.841 150.085 143.949 150.466 144.214C150.848 144.478 151.112 144.879 151.207 145.333C151.301 145.788 151.217 146.261 150.972 146.655C150.727 147.049 150.34 147.334 149.891 147.451L121.123 153.403L114.044 168.324L120.141 198.308C120.365 199.366 120.35 200.461 120.097 201.512C119.844 202.564 119.36 203.545 118.679 204.386C117.998 205.226 117.138 205.904 116.162 206.369C115.186 206.835 114.119 207.077 113.037 207.077V207.067Z" fill="white"/>
</g>
<path d="M139.916 144.435L153.46 141.679C154.269 141.542 155.099 141.726 155.775 142.19C156.451 142.654 156.921 143.363 157.084 144.167C157.247 144.97 157.091 145.806 156.649 146.497C156.208 147.188 155.515 147.681 154.717 147.87L141.177 150.627C140.968 150.667 139.916 144.435 139.916 144.435Z" fill="#0A9D56"/>
<path d="M129.049 185.517C129.049 187.944 125.53 192.266 123.107 192.266C120.684 192.266 120.265 187.944 120.265 185.517C120.265 184.352 120.728 183.235 121.552 182.411C122.375 181.588 123.492 181.125 124.657 181.125C125.822 181.125 126.939 181.588 127.763 182.411C128.586 183.235 129.049 184.352 129.049 185.517Z" fill="#0A9D56"/>
<path opacity="0.5" d="M129.049 185.517C129.049 187.944 125.53 192.266 123.107 192.266C120.684 192.266 120.265 187.944 120.265 185.517C120.265 184.352 120.728 183.235 121.552 182.411C122.375 181.588 123.492 181.125 124.657 181.125C125.822 181.125 126.939 181.588 127.763 182.411C128.586 183.235 129.049 184.352 129.049 185.517Z" fill="#FAFAFA"/>
<path d="M126.87 180.372C126.553 180.543 126.279 180.785 126.071 181.081C125.863 181.376 125.727 181.715 125.674 182.072C126.001 182.224 126.359 182.298 126.72 182.287C127.081 182.277 127.434 182.182 127.752 182.012C128.07 181.841 128.343 181.598 128.551 181.303C128.759 181.008 128.895 180.669 128.949 180.312C128.622 180.16 128.264 180.086 127.903 180.096C127.542 180.107 127.188 180.201 126.87 180.372Z" fill="#0A9D56"/>
<path opacity="0.2" d="M126.87 180.372C126.553 180.543 126.279 180.785 126.071 181.081C125.863 181.376 125.727 181.715 125.674 182.072C126.001 182.224 126.359 182.298 126.72 182.287C127.081 182.277 127.434 182.182 127.752 182.012C128.07 181.841 128.343 181.598 128.551 181.303C128.759 181.008 128.895 180.669 128.949 180.312C128.622 180.16 128.264 180.086 127.903 180.096C127.542 180.107 127.188 180.201 126.87 180.372Z" fill="#FAFAFA"/>
<path d="M124.617 181.454C124.736 181.631 124.894 181.778 125.079 181.883C125.264 181.989 125.471 182.05 125.684 182.062C125.757 181.861 125.781 181.645 125.756 181.432C125.73 181.219 125.654 181.016 125.536 180.837C125.417 180.659 125.258 180.511 125.072 180.405C124.885 180.299 124.677 180.238 124.463 180.228C124.392 180.43 124.369 180.646 124.396 180.859C124.423 181.072 124.498 181.275 124.617 181.454Z" fill="#0A9D56"/>
<path opacity="0.2" d="M124.617 181.454C124.736 181.631 124.894 181.778 125.079 181.883C125.264 181.989 125.471 182.05 125.684 182.062C125.757 181.861 125.781 181.645 125.756 181.432C125.73 181.219 125.654 181.016 125.536 180.837C125.417 180.659 125.258 180.511 125.072 180.405C124.885 180.299 124.677 180.238 124.463 180.228C124.392 180.43 124.369 180.646 124.396 180.859C124.423 181.072 124.498 181.275 124.617 181.454Z" fill="#FAFAFA"/>
<path d="M146.058 183.862C146.85 186.155 144.926 191.389 142.633 192.177C140.34 192.964 138.545 189.011 137.753 186.718C137.555 186.17 137.468 185.589 137.497 185.007C137.526 184.425 137.67 183.855 137.921 183.329C138.173 182.804 138.526 182.334 138.961 181.946C139.396 181.559 139.904 181.261 140.455 181.072C141.005 180.883 141.588 180.805 142.17 180.843C142.751 180.881 143.319 181.034 143.84 181.294C144.362 181.553 144.826 181.914 145.207 182.355C145.588 182.796 145.877 183.308 146.058 183.862Z" fill="#0A9D56"/>
<path opacity="0.4" d="M146.058 183.862C146.85 186.155 144.926 191.389 142.633 192.177C140.34 192.964 138.545 189.011 137.753 186.718C137.555 186.17 137.468 185.589 137.497 185.007C137.526 184.425 137.67 183.855 137.921 183.329C138.173 182.804 138.526 182.334 138.961 181.946C139.396 181.559 139.904 181.261 140.455 181.072C141.005 180.883 141.588 180.805 142.17 180.843C142.751 180.881 143.319 181.034 143.84 181.294C144.362 181.553 144.826 181.914 145.207 182.355C145.588 182.796 145.877 183.308 146.058 183.862Z" fill="#FAFAFA"/>
<path d="M142.324 179.704C142.081 179.97 141.903 180.288 141.803 180.634C141.704 180.98 141.686 181.344 141.751 181.698C142.11 181.736 142.473 181.689 142.811 181.561C143.149 181.433 143.452 181.228 143.697 180.962C143.941 180.696 144.12 180.377 144.219 180.029C144.319 179.682 144.335 179.316 144.268 178.962C143.909 178.926 143.546 178.974 143.208 179.103C142.871 179.232 142.568 179.438 142.324 179.704Z" fill="#0A9D56"/>
<path opacity="0.2" d="M142.324 179.704C142.081 179.97 141.903 180.288 141.803 180.634C141.704 180.98 141.686 181.344 141.751 181.698C142.11 181.736 142.473 181.689 142.811 181.561C143.149 181.433 143.452 181.228 143.697 180.962C143.941 180.696 144.12 180.377 144.219 180.029C144.319 179.682 144.335 179.316 144.268 178.962C143.909 178.926 143.546 178.974 143.208 179.103C142.871 179.232 142.568 179.438 142.324 179.704Z" fill="#FAFAFA"/>
<path d="M140.544 181.454C140.662 181.455 140.777 181.427 140.88 181.371C140.983 181.315 141.07 181.233 141.133 181.134C141.196 181.035 141.232 180.922 141.239 180.804C141.245 180.687 141.222 180.571 141.17 180.465C141.119 180.36 141.042 180.269 140.946 180.202C140.849 180.135 140.738 180.093 140.621 180.082C140.504 180.07 140.387 180.088 140.279 180.135C140.171 180.181 140.077 180.254 140.006 180.347C140.003 180.561 140.051 180.772 140.144 180.964C140.238 181.157 140.375 181.324 140.544 181.454Z" fill="#0A9D56"/>
<path opacity="0.2" d="M140.544 181.454C140.662 181.455 140.777 181.427 140.88 181.371C140.983 181.315 141.07 181.233 141.133 181.134C141.196 181.035 141.232 180.922 141.239 180.804C141.245 180.687 141.222 180.571 141.17 180.465C141.119 180.36 141.042 180.269 140.946 180.202C140.849 180.135 140.738 180.093 140.621 180.082C140.504 180.07 140.387 180.088 140.279 180.135C140.171 180.181 140.077 180.254 140.006 180.347C140.003 180.561 140.051 180.772 140.144 180.964C140.238 181.157 140.375 181.324 140.544 181.454Z" fill="#FAFAFA"/>
<path d="M128.889 184.57C128.635 187.406 132.294 192.825 135.131 193.079C137.967 193.333 138.899 188.323 139.154 185.492C139.233 184.808 139.175 184.116 138.982 183.455C138.79 182.794 138.467 182.179 138.033 181.645C137.598 181.111 137.062 180.669 136.454 180.346C135.846 180.023 135.18 179.824 134.495 179.763C133.809 179.701 133.119 179.778 132.463 179.987C131.807 180.197 131.201 180.536 130.678 180.984C130.156 181.432 129.728 181.98 129.421 182.596C129.114 183.212 128.933 183.883 128.889 184.57Z" fill="#0A9D56"/>
<path opacity="0.5" d="M128.889 184.57C128.635 187.406 132.294 192.825 135.131 193.079C137.967 193.333 138.899 188.323 139.154 185.492C139.233 184.808 139.175 184.116 138.982 183.455C138.79 182.794 138.467 182.179 138.033 181.645C137.598 181.111 137.062 180.669 136.454 180.346C135.846 180.023 135.18 179.824 134.495 179.763C133.809 179.701 133.119 179.778 132.463 179.987C131.807 180.197 131.201 180.536 130.678 180.984C130.156 181.432 129.728 181.98 129.421 182.596C129.114 183.212 128.933 183.883 128.889 184.57Z" fill="#FAFAFA"/>
<path d="M131.975 178.782C132.329 179.015 132.623 179.327 132.834 179.694C133.046 180.061 133.168 180.473 133.191 180.896C132.794 181.04 132.367 181.089 131.947 181.04C131.526 180.99 131.123 180.843 130.77 180.61C130.416 180.378 130.122 180.065 129.911 179.698C129.7 179.332 129.577 178.921 129.552 178.498C129.95 178.353 130.377 178.303 130.798 178.352C131.218 178.402 131.622 178.549 131.975 178.782Z" fill="#0A9D56"/>
<path opacity="0.2" d="M131.975 178.782C132.329 179.015 132.623 179.327 132.834 179.694C133.046 180.061 133.168 180.473 133.191 180.896C132.794 181.04 132.367 181.089 131.947 181.04C131.526 180.99 131.123 180.843 130.77 180.61C130.416 180.378 130.122 180.065 129.911 179.698C129.7 179.332 129.577 178.921 129.552 178.498C129.95 178.353 130.377 178.303 130.798 178.352C131.218 178.402 131.622 178.549 131.975 178.782Z" fill="#FAFAFA"/>
<path d="M134.498 180.292C134.339 180.487 134.138 180.643 133.91 180.747C133.682 180.852 133.432 180.903 133.182 180.896C133.122 180.654 133.119 180.402 133.174 180.159C133.228 179.916 133.338 179.689 133.495 179.495C133.652 179.302 133.852 179.148 134.079 179.045C134.305 178.942 134.553 178.893 134.802 178.902C134.86 179.141 134.863 179.391 134.811 179.632C134.758 179.873 134.651 180.099 134.498 180.292Z" fill="#0A9D56"/>
<path opacity="0.2" d="M134.498 180.292C134.339 180.487 134.138 180.643 133.91 180.747C133.682 180.852 133.432 180.903 133.182 180.896C133.122 180.654 133.119 180.402 133.174 180.159C133.228 179.916 133.338 179.689 133.495 179.495C133.652 179.302 133.852 179.148 134.079 179.045C134.305 178.942 134.553 178.893 134.802 178.902C134.86 179.141 134.863 179.391 134.811 179.632C134.758 179.873 134.651 180.099 134.498 180.292Z" fill="#FAFAFA"/>
<path d="M145.878 182.566C144.981 185.268 147.304 191.384 150.001 192.281C152.698 193.179 154.762 188.513 155.659 185.801C155.894 185.153 155.997 184.465 155.962 183.777C155.927 183.089 155.754 182.414 155.453 181.794C155.153 181.174 154.731 180.62 154.213 180.166C153.695 179.712 153.092 179.366 152.437 179.149C151.783 178.932 151.093 178.848 150.406 178.903C149.719 178.957 149.05 179.149 148.438 179.467C147.827 179.784 147.285 180.221 146.845 180.752C146.406 181.282 146.077 181.896 145.878 182.556V182.566Z" fill="#0A9D56"/>
<path opacity="0.5" d="M145.878 182.566C144.981 185.268 147.304 191.384 150.001 192.281C152.698 193.179 154.762 188.513 155.659 185.801C155.894 185.153 155.997 184.465 155.962 183.777C155.927 183.089 155.754 182.414 155.453 181.794C155.153 181.174 154.731 180.62 154.213 180.166C153.695 179.712 153.092 179.366 152.437 179.149C151.783 178.932 151.093 178.848 150.406 178.903C149.719 178.957 149.05 179.149 148.438 179.467C147.827 179.784 147.285 180.221 146.845 180.752C146.406 181.282 146.077 181.896 145.878 182.556V182.566Z" fill="#FAFAFA"/>
<path d="M150.21 177.64C150.5 177.949 150.715 178.321 150.836 178.727C150.957 179.133 150.982 179.561 150.908 179.978C150.487 180.027 150.061 179.976 149.663 179.831C149.265 179.685 148.907 179.449 148.617 179.141C148.326 178.832 148.112 178.46 147.99 178.055C147.869 177.649 147.844 177.22 147.917 176.803C148.338 176.756 148.764 176.807 149.162 176.952C149.56 177.098 149.919 177.333 150.21 177.64Z" fill="#0A9D56"/>
<path opacity="0.2" d="M150.21 177.64C150.5 177.949 150.715 178.321 150.836 178.727C150.957 179.133 150.982 179.561 150.908 179.978C150.487 180.027 150.061 179.976 149.663 179.831C149.265 179.685 148.907 179.449 148.617 179.141C148.326 178.832 148.112 178.46 147.99 178.055C147.869 177.649 147.844 177.22 147.917 176.803C148.338 176.756 148.764 176.807 149.162 176.952C149.56 177.098 149.919 177.333 150.21 177.64Z" fill="#FAFAFA"/>
<path d="M152.294 179.689C152.157 179.691 152.021 179.658 151.9 179.593C151.779 179.528 151.676 179.434 151.602 179.318C151.528 179.202 151.484 179.069 151.476 178.932C151.467 178.795 151.494 178.658 151.553 178.534C151.612 178.41 151.702 178.303 151.814 178.224C151.926 178.144 152.056 178.094 152.193 178.079C152.33 178.064 152.468 178.084 152.595 178.137C152.721 178.19 152.832 178.275 152.917 178.383C152.921 178.634 152.867 178.883 152.758 179.109C152.65 179.336 152.491 179.534 152.294 179.689Z" fill="#0A9D56"/>
<path opacity="0.2" d="M152.294 179.689C152.157 179.691 152.021 179.658 151.9 179.593C151.779 179.528 151.676 179.434 151.602 179.318C151.528 179.202 151.484 179.069 151.476 178.932C151.467 178.795 151.494 178.658 151.553 178.534C151.612 178.41 151.702 178.303 151.814 178.224C151.926 178.144 152.056 178.094 152.193 178.079C152.33 178.064 152.468 178.084 152.595 178.137C152.721 178.19 152.832 178.275 152.917 178.383C152.921 178.634 152.867 178.883 152.758 179.109C152.65 179.336 152.491 179.534 152.294 179.689Z" fill="#FAFAFA"/>
<path d="M149.183 195.063H164.243L159.871 184.864H144.817L149.183 195.063Z" fill="#0A9D56"/>
<path d="M159.856 184.864H132.623V207.386H159.856V184.864Z" fill="#0A9D56"/>
<path opacity="0.3" d="M159.856 184.864H132.623V207.386H159.856V184.864Z" fill="#FAFAFA"/>
<path d="M139.338 184.864H118.232V207.386H139.338V184.864Z" fill="#0A9D56"/>
<path opacity="0.1" d="M139.338 184.864H118.232V207.386H139.338V184.864Z" fill="#E0E0E0"/>
<path opacity="0.35" d="M118.232 196.125H135.684L139.333 184.864H118.232V196.125Z" fill="black"/>
<path d="M134.966 195.063H113.865L118.231 184.864H139.333L134.966 195.063Z" fill="#0A9D56"/>
</g>
<defs>
<clipPath id="clip0_9_22">
<rect width="249.25" height="249.25" fill="white" transform="translate(0.75)"/>
</clipPath>
</defs>
</svg>
