<svg width="55" height="55" viewBox="0 0 55 55" fill="none" xmlns="http://www.w3.org/2000/svg">
<circle cx="27.5" cy="27.5" r="27.5" fill="#FF685B" fill-opacity="0.06"/>
<path d="M38.82 24.6924C38.9738 25.5162 39.0575 26.3774 39.0575 27.2762C39.0575 34.3062 34.3525 39.3049 27.2463 39.3049C25.6302 39.3054 24.0299 38.9875 22.5368 38.3693C21.0436 37.7511 19.6869 36.8447 18.5442 35.702C17.4015 34.5593 16.4951 33.2026 15.8769 31.7094C15.2587 30.2163 14.9408 28.616 14.9413 26.9999C14.9408 25.3839 15.2587 23.7836 15.8769 22.2904C16.4951 20.7973 17.4015 19.4406 18.5442 18.2979C19.6869 17.1552 21.0436 16.2488 22.5368 15.6306C24.0299 15.0124 25.6302 14.6945 27.2463 14.6949C30.5688 14.6949 33.345 15.9174 35.475 17.9024L32.0063 21.3712V21.3624C30.715 20.1324 29.0763 19.5012 27.2463 19.5012C23.1863 19.5012 19.8863 22.9312 19.8863 26.9924C19.8863 31.0524 23.1863 34.4899 27.2463 34.4899C30.93 34.4899 33.4375 32.3837 33.9525 29.4912H27.2463V24.6924H38.8213H38.82Z" fill="#FC3E03"/>
</svg>
