<svg width="55" height="55" viewBox="0 0 55 55" fill="none" xmlns="http://www.w3.org/2000/svg">
<circle cx="27.5" cy="27.5" r="27.5" fill="#1976D2" fill-opacity="0.1"/>
<path fill-rule="evenodd" clip-rule="evenodd" d="M23.7862 23.2112H28.4287V25.5237C29.0975 24.1937 30.8125 22.9987 33.3887 22.9987C38.3275 22.9987 39.5 25.6462 39.5 30.5037V39.5H34.5V31.61C34.5 28.8437 33.8312 27.2837 32.1287 27.2837C29.7675 27.2837 28.7862 28.965 28.7862 31.6087V39.5H23.7862V23.2112ZM15.2125 39.2875H20.2125V22.9987H15.2125V39.2875ZM20.9287 17.6875C20.9289 18.1066 20.8458 18.5215 20.6842 18.9082C20.5226 19.2949 20.2858 19.6456 19.9875 19.94C19.383 20.5408 18.5648 20.8771 17.7125 20.875C16.8617 20.8744 16.0454 20.539 15.44 19.9413C15.1428 19.6459 14.9067 19.2948 14.7454 18.908C14.5841 18.5213 14.5007 18.1065 14.5 17.6875C14.5 16.8413 14.8375 16.0313 15.4412 15.4338C16.0461 14.8352 16.8628 14.4996 17.7137 14.5C18.5662 14.5 19.3837 14.8363 19.9875 15.4338C20.59 16.0313 20.9287 16.8413 20.9287 17.6875Z" fill="#1976D2"/>
</svg>
