<svg width="230" height="230" viewBox="0 0 230 230" fill="none" xmlns="http://www.w3.org/2000/svg">
<path d="M192.764 204.919C149.767 229.83 80.0502 229.83 37.044 204.919C4.83745 186.256 -3.25999 158.904 12.8021 135.88H217.006C233.068 158.904 224.971 186.256 192.764 204.919Z" fill="#FAFAFA"/>
<path opacity="0.2" d="M11.3044 82.8164C8.95354 89.5424 7.18376 96.4576 6.01455 103.486L114.84 135.876L11.3044 82.8164ZM102.24 6.98535L114.84 135.876L127.44 6.98535H102.24ZM54.2969 25.2321L114.84 135.876L75.9099 13.4569C68.279 16.5426 61.0273 20.4935 54.2969 25.2321ZM21.3942 61.0751L114.826 135.876L34.9876 42.4575C29.8617 48.2064 25.3089 54.4418 21.3942 61.0751ZM218.375 82.8164L114.84 135.876L223.661 103.486C222.493 96.4577 220.725 89.5425 218.375 82.8164ZM114.84 135.876H224.852C225.157 132.541 225.325 129.169 225.355 125.758L114.84 135.876ZM4.82375 135.876H114.84L4.31995 125.758C4.35659 129.169 4.52452 132.541 4.82375 135.876ZM194.688 42.4437L114.84 135.876L208.272 61.0751C204.36 54.4423 199.81 48.2069 194.688 42.4575V42.4437ZM153.747 13.4569L114.84 135.876L175.36 25.2321C168.629 20.4943 161.378 16.5434 153.747 13.4569Z" fill="#0A9D56"/>
<path d="M114.904 219.639C138.603 219.639 157.814 208.509 157.814 194.779C157.814 181.049 138.603 169.919 114.904 169.919C91.2056 169.919 71.9941 181.049 71.9941 194.779C71.9941 208.509 91.2056 219.639 114.904 219.639Z" fill="#E6E6E6"/>
<path d="M133.888 178.465C133.705 173.949 136.274 147.848 136.274 147.848L120.995 154.26C122.406 165.632 124.701 174.457 124.783 180.947C124.783 180.947 128.635 184.813 130.783 187.281C132.592 189.434 134.584 191.427 136.737 193.235C138.395 194.559 142.141 195.434 142.86 194.339C140.254 191.316 137.204 187.968 135.303 184.721C134.396 183.242 134.012 181.579 133.888 178.465Z" fill="#FFA8A7"/>
<path d="M147.843 197.87C148.008 197.893 147.875 199.817 146.84 200.476C145.645 201.241 142.366 202.286 138.541 201.127C134.717 199.968 132.844 198.347 131.543 196.707C130.242 195.067 128.429 192.755 126.734 192.058C125.159 191.413 123.528 190.341 123.098 189.718C122.667 189.095 123.226 186.709 123.226 186.709L147.843 197.87Z" fill="#263238"/>
<path d="M124.701 179.12C124.559 179.174 124.437 179.269 124.351 179.394C124.264 179.518 124.217 179.665 124.215 179.816C124.142 180.709 124.444 181.589 124.009 183.086C123.551 184.535 123.262 186.032 123.148 187.547C123.125 188.807 125.649 190.089 127.233 191.051C128.818 192.013 130.595 193.799 132.07 195.654C133.545 197.509 137.167 199.776 139.718 200.234C143.621 200.912 146.378 200.193 147.454 198.832C148.787 197.147 148.237 195.961 144.179 193.052C143.41 192.498 140.79 190.158 139.906 189.32C137.511 187.053 135.285 184.071 134.662 180.618C134.64 180.211 134.478 179.825 134.204 179.523C133.949 179.357 133.647 179.279 133.343 179.303C132.567 179.298 131.794 179.414 131.053 179.647C130.389 179.857 129.097 180.036 128.946 180.851C128.924 181.23 128.952 181.611 129.029 181.983C129.029 182.161 129.093 182.775 128.933 182.853C128.772 182.931 128.502 182.477 128.42 182.335C128.026 181.671 127.925 181.286 127.32 181.048C126.716 180.81 125.085 180.531 124.76 179.798L124.701 179.12Z" fill="#37474F"/>
<path d="M144.816 193.524C139.073 193.039 136.572 196.451 135.862 198.7C137.05 199.417 138.348 199.934 139.705 200.229C143.607 200.907 146.524 200.229 147.601 198.855C148.856 197.266 148.512 195.768 144.816 193.524Z" fill="#FAFAFA"/>
<path d="M136.315 192.242C136.251 192.232 136.193 192.199 136.151 192.15C136.104 192.087 136.082 192.008 136.091 191.93C136.099 191.852 136.137 191.78 136.196 191.729C137.186 190.835 139.727 189.846 141.738 190.41C141.774 190.42 141.807 190.438 141.836 190.462C141.865 190.486 141.888 190.516 141.905 190.549C141.923 190.583 141.933 190.619 141.935 190.656C141.938 190.694 141.933 190.731 141.921 190.767C141.912 190.804 141.895 190.839 141.872 190.87C141.849 190.901 141.82 190.927 141.786 190.946C141.753 190.966 141.716 190.979 141.678 190.984C141.64 190.989 141.601 190.987 141.564 190.977C139.686 190.46 137.337 191.458 136.549 192.168C136.518 192.198 136.481 192.22 136.441 192.232C136.4 192.245 136.357 192.248 136.315 192.242Z" fill="#F0F0F0"/>
<path d="M134.172 190.355C134.109 190.345 134.052 190.312 134.012 190.263C133.963 190.202 133.941 190.124 133.948 190.047C133.956 189.969 133.993 189.897 134.053 189.847C135.042 188.931 137.589 187.955 139.595 188.523C139.631 188.534 139.665 188.552 139.694 188.576C139.723 188.601 139.747 188.631 139.764 188.665C139.781 188.698 139.791 188.735 139.794 188.773C139.796 188.811 139.791 188.849 139.778 188.885C139.757 188.959 139.709 189.023 139.642 189.063C139.575 189.102 139.496 189.114 139.421 189.095C137.543 188.573 135.193 189.553 134.406 190.282C134.375 190.312 134.338 190.334 134.298 190.347C134.257 190.36 134.214 190.362 134.172 190.355Z" fill="#F0F0F0"/>
<path d="M132.253 188.28C132.188 188.27 132.129 188.236 132.088 188.184C132.041 188.122 132.02 188.044 132.029 187.966C132.037 187.889 132.075 187.818 132.134 187.767C133.123 186.874 135.674 185.885 137.676 186.443C137.712 186.455 137.745 186.473 137.774 186.498C137.803 186.522 137.826 186.552 137.843 186.586C137.86 186.62 137.87 186.656 137.873 186.694C137.876 186.732 137.871 186.769 137.859 186.805C137.849 186.843 137.832 186.878 137.809 186.908C137.786 186.939 137.757 186.965 137.724 186.985C137.691 187.004 137.654 187.017 137.616 187.022C137.578 187.028 137.539 187.026 137.502 187.016C135.624 186.498 133.274 187.497 132.487 188.207C132.455 188.235 132.418 188.257 132.378 188.269C132.338 188.282 132.295 188.286 132.253 188.28Z" fill="#F0F0F0"/>
<path d="M130.375 186.219C130.314 186.209 130.258 186.176 130.219 186.127C130.172 186.066 130.149 185.989 130.156 185.912C130.163 185.834 130.198 185.763 130.256 185.711C131.63 184.437 134.268 183.879 136.274 184.433C136.311 184.444 136.344 184.462 136.373 184.486C136.403 184.51 136.426 184.54 136.444 184.574C136.461 184.608 136.471 184.645 136.473 184.683C136.476 184.721 136.47 184.759 136.457 184.795C136.436 184.869 136.387 184.932 136.321 184.971C136.254 185.01 136.175 185.022 136.1 185.005C134.291 184.502 131.832 185.005 130.604 186.141C130.574 186.17 130.538 186.191 130.498 186.205C130.459 186.218 130.417 186.223 130.375 186.219Z" fill="#F0F0F0"/>
<path d="M106.523 156.554L92.5719 154.764C91.9215 163.502 92.2467 171.563 91.3811 179.748C90.8132 182.184 90.1582 193.222 90.314 196.455C90.5475 201.315 96.2679 201.429 96.9458 198.631C97.6236 195.833 100.152 182.289 100.358 181.039C101.714 175.502 106.403 156.994 106.523 156.554Z" fill="#FFA8A7"/>
<path d="M98.2969 201.269C97.958 204.062 97.3809 205.89 96.2451 207.465C95.1092 209.041 93.1032 209.421 91.1384 208.803C89.1735 208.184 86.7003 206.719 86.279 204.259C85.8576 201.8 86.0729 200.137 86.682 197.577L98.2969 201.269Z" fill="#263238"/>
<path d="M91.3811 179.747C90.5567 179.747 90.3094 184.158 89.6087 187.899C88.853 191.907 87.4881 193.496 86.8332 196.78C86.0866 200.531 86.192 202.239 87.4423 204.621C88.6927 207.003 93.4742 209.595 96.0985 206.481C98.242 203.939 98.503 200.985 98.5534 197.188C98.6038 193.263 99.0526 190.574 99.4007 187.62C99.7305 184.794 101.05 181.405 100.358 181.039C100.275 181.451 100.193 181.978 100.111 182.385C100.046 182.692 99.8679 184.217 99.4099 184.217C99.3916 183.859 99.41 183.5 99.4648 183.145C99.5289 182.83 99.4682 182.501 99.2954 182.229C99.0568 181.984 98.7449 181.824 98.4068 181.771C97.6099 181.561 95.2008 181.313 94.3719 181.167C93.9642 181.103 93.552 181.057 93.1444 181.034C92.7934 181.004 92.4397 181.027 92.0956 181.103C91.9983 181.126 91.9071 181.17 91.8281 181.232C91.7492 181.294 91.6842 181.371 91.6376 181.46C91.5849 181.596 91.5615 181.741 91.5689 181.886C91.5509 182.149 91.5001 182.409 91.4178 182.66C91.3811 182.765 91.2895 182.898 91.175 182.861C91.0605 182.825 91.0514 182.719 91.0559 182.623C91.0788 182.165 91.1613 181.84 91.2162 181.309C91.2391 181.066 91.3033 180.732 91.3216 180.484C91.3399 180.237 91.3491 179.985 91.3811 179.747Z" fill="#37474F"/>
<path d="M86.4713 198.956C86.1874 201.301 86.2286 202.922 87.2087 204.786C88.459 207.173 93.6207 209.792 96.2634 206.678C97.5687 205.13 98.0129 203.225 98.2969 201.264C96.9962 198.635 88.8941 196.982 86.4713 198.956Z" fill="#FAFAFA"/>
<path d="M96.442 196.982C96.4066 196.978 96.3723 196.967 96.3412 196.95C94.1583 195.884 91.7131 195.473 89.3018 195.768C89.2237 195.78 89.1438 195.762 89.079 195.717C89.0142 195.671 88.9693 195.603 88.9537 195.525C88.9465 195.487 88.9473 195.448 88.9561 195.41C88.9648 195.372 88.9813 195.336 89.0045 195.304C89.0277 195.273 89.0572 195.247 89.091 195.227C89.1248 195.208 89.1622 195.195 89.201 195.191C91.7493 194.866 94.3368 195.301 96.6389 196.441C96.673 196.46 96.7031 196.484 96.7276 196.514C96.752 196.544 96.7703 196.579 96.7814 196.616C96.7924 196.653 96.7961 196.692 96.7921 196.73C96.788 196.769 96.7765 196.806 96.758 196.84C96.7262 196.893 96.6789 196.935 96.6224 196.961C96.5658 196.986 96.5029 196.993 96.442 196.982Z" fill="#F0F0F0"/>
<path d="M89.6727 192.975C89.6163 192.967 89.5635 192.942 89.5204 192.905C89.4774 192.868 89.446 192.819 89.4299 192.764C89.4197 192.727 89.417 192.688 89.4221 192.649C89.4272 192.611 89.4399 192.574 89.4596 192.541C89.4792 192.507 89.5054 192.478 89.5365 192.455C89.5676 192.432 89.603 192.416 89.6406 192.407C93.3916 191.468 96.9228 193.506 97.0694 193.593C97.1037 193.611 97.1339 193.636 97.1581 193.666C97.1823 193.697 97.1999 193.732 97.2098 193.769C97.2197 193.807 97.2217 193.846 97.2156 193.884C97.2096 193.922 97.1957 193.959 97.1747 193.991C97.1307 194.058 97.0629 194.105 96.9854 194.122C96.908 194.14 96.8266 194.128 96.7579 194.088C96.7213 194.088 93.2955 192.095 89.8055 192.97C89.7624 192.983 89.7166 192.985 89.6727 192.975Z" fill="#F0F0F0"/>
<path d="M90.0484 190.327C89.9923 190.319 89.9396 190.295 89.896 190.259C89.8524 190.222 89.8196 190.175 89.8011 190.121C89.7907 190.084 89.7877 190.045 89.7925 190.007C89.7972 189.968 89.8095 189.931 89.8287 189.897C89.8479 189.864 89.8735 189.834 89.9041 189.811C89.9348 189.787 89.9698 189.77 90.0072 189.76C91.286 189.44 92.6158 189.38 93.9183 189.582C95.2209 189.784 96.4698 190.245 97.5916 190.937C97.6239 190.957 97.6516 190.984 97.6731 191.016C97.6946 191.048 97.7094 191.084 97.7167 191.121C97.724 191.159 97.7236 191.198 97.7154 191.235C97.7073 191.273 97.6917 191.308 97.6695 191.34C97.6211 191.404 97.5498 191.447 97.4704 191.46C97.391 191.472 97.3097 191.454 97.2436 191.408C95.121 190.13 92.5802 189.74 90.1721 190.323C90.1315 190.332 90.0895 190.334 90.0484 190.327Z" fill="#F0F0F0"/>
<path d="M90.4788 187.364C90.4236 187.355 90.3719 187.331 90.3291 187.295C90.2864 187.258 90.2543 187.211 90.2361 187.158C90.2243 187.121 90.2202 187.082 90.2241 187.044C90.2279 187.005 90.2397 186.968 90.2585 186.934C90.2774 186.9 90.3031 186.87 90.3339 186.846C90.3647 186.823 90.4 186.806 90.4376 186.796C94.3123 185.702 97.9168 187.96 98.0679 188.056C98.1009 188.076 98.1295 188.102 98.1518 188.134C98.1742 188.165 98.19 188.201 98.1981 188.239C98.2063 188.276 98.2066 188.315 98.1992 188.353C98.1918 188.391 98.1767 188.427 98.1549 188.459C98.1324 188.492 98.1037 188.52 98.0703 188.542C98.0369 188.563 97.9996 188.578 97.9604 188.585C97.9213 188.593 97.8811 188.592 97.8421 188.584C97.8032 188.575 97.7663 188.559 97.7336 188.537C97.6969 188.537 94.2161 186.338 90.6163 187.355C90.5715 187.367 90.5248 187.37 90.4788 187.364Z" fill="#EBEBEB"/>
<path d="M105.744 77.0867C103.17 81.6667 97.7931 89.3382 97.1152 102.813C96.0481 124.036 95.4206 135.051 95.4206 135.051C94.1749 139.072 93.2497 139.416 92.5169 150.06C91.9306 158.556 91.8345 169.122 91.8345 169.122C91.8345 169.122 98.045 172.424 103.147 170.638C105.478 163.841 109.252 148.805 111.877 139.677C114.263 131.392 116.915 118.041 116.915 118.041L120.716 138.472C119.981 142.903 119.852 147.413 120.331 151.878C120.959 157.562 123.157 168.847 123.157 168.847C123.157 168.847 130.077 171.38 134.534 168.389C134.534 168.389 136.778 143.909 136.975 137.039C137.273 126.729 137.538 109.476 136.732 95.3151C136.425 89.9016 134.538 80.7278 133.865 77.073L105.744 77.0867Z" fill="#37474F"/>
<path d="M91.6835 167.111C93.662 168.485 100.958 169.978 103.784 169.076L102.68 172.177C102.68 172.177 100.848 172.823 97.0238 172.42C93.1995 172.017 91.6835 170.226 91.6835 170.226V167.111Z" fill="#455A64"/>
<path d="M122.841 167.62C125.108 168.536 132.093 168.394 134.69 166.882L134.442 170.432C134.442 170.432 133.224 171.522 129.102 171.755C125.2 171.98 123.386 170.862 123.386 170.862L122.841 167.62Z" fill="#455A64"/>
<path d="M116.892 118.041L119.763 101.374C119.763 101.374 128.759 100.752 132.161 97.7837C132.161 97.7837 127.778 103.371 121.664 104.017L118.678 118.041L120.675 138.294L116.892 118.041Z" fill="#263238"/>
<path d="M101.544 35.7659C101.544 35.7659 102.144 40.2909 100.605 44.0099C99.6067 46.4419 97.935 50.8799 96.0252 55.7347C94.239 60.3147 92.0635 72.928 106.912 77.2973C115.495 79.8255 127.577 77.3981 131.644 74.1875C142.517 65.6 140.305 55.7622 128.195 43.1901C125.388 40.268 124.348 33.8423 124.348 33.8423L101.544 35.7659Z" fill="#37474F"/>
<path d="M123.734 48.9243C128.497 49.1167 129.743 49.1487 137.552 51.9151L146.222 55.002L157.122 60.3148C157.315 61.7895 157.718 64.5238 156.481 66.6077C155.478 68.2977 153.756 68.055 150.564 67.3222C145.956 66.2642 132.977 62.9758 132.977 62.9758L123.734 48.9243Z" fill="#FFA8A7"/>
<path d="M143.758 54.1086C144.147 59.8978 144.889 60.9786 147.115 63.461L146.657 55.1849L146.236 54.9788L143.758 54.1086Z" fill="#F28F8F"/>
<path d="M144.674 56.3253C144.715 58.6674 145.42 60.9498 146.708 62.9067C148.263 65.1894 150.564 66.8603 153.216 67.6333C154.892 68.0409 157.072 67.6104 157.283 63.6212C157.535 58.8031 155.501 54.7177 153.646 49.5744C151.123 42.5761 150.44 40.8724 150.051 38.7976C149.804 37.474 149.959 34.9413 149.401 33.6864C148.771 32.224 147.955 30.8492 146.973 29.5964C145.901 28.1675 144.94 29.0926 144.779 29.3354C143.763 28.3781 142.489 28.4194 141.921 29.2667C141.412 29.1936 140.893 29.2842 140.439 29.5254C139.984 29.7665 139.618 30.1459 139.393 30.6086C138.628 30.4117 137.525 30.92 137.561 31.9185C137.658 32.3194 137.841 32.6945 138.097 33.0177C138.033 33.6497 139.325 36.155 138.903 36.9656C138.482 37.7763 137.502 37.7992 136.261 38.0236C134.942 38.2664 133.709 38.9396 133.421 39.8556C133.197 40.5701 133.632 40.8632 134.273 40.8586C134.841 40.8586 136.251 40.5609 137.332 40.5335C138.922 40.4922 139.535 40.4235 140.332 40.7579C141.259 41.1044 142.14 41.566 142.952 42.1319C143.552 42.6311 144.202 43.2998 144.477 45.5531C144.752 47.8065 144.674 53.7605 144.674 56.3253Z" fill="#FFA8A7"/>
<path opacity="0.5" d="M140.579 35.2072C140.373 35.3186 140.136 35.36 139.904 35.3253C139.672 35.2906 139.457 35.1817 139.292 35.0149C139.531 35.4729 139.7 35.7614 139.87 36.0179C140.135 36.4118 140.657 36.7553 141.17 36.2606C141.683 35.766 141.564 35.3034 141.317 34.4836C141.253 34.6499 141.154 34.8006 141.027 34.9255C140.899 35.0503 140.747 35.1464 140.579 35.2072ZM145.475 33.2745C145.306 33.263 145.144 33.2035 145.008 33.1029C144.872 33.0022 144.767 32.8647 144.706 32.7066C144.706 32.7661 144.706 33.0317 144.729 33.2562C144.729 33.3432 144.729 33.4256 144.729 33.4897C144.729 33.7508 144.216 34.1355 143.96 34.1538C143.703 34.1722 143.259 34.108 142.934 33.4027C142.936 33.4194 142.936 33.4364 142.934 33.4531C142.947 33.6955 142.886 33.9361 142.758 34.1425C142.63 34.3489 142.442 34.5111 142.219 34.6073C142.072 34.6824 141.905 34.7109 141.742 34.6888C141.578 34.6667 141.425 34.5951 141.303 34.4836C141.447 34.9023 141.662 35.2929 141.94 35.6378C142.398 36.1828 143.039 35.6652 143.19 35.3355C143.2 35.4693 143.248 35.5974 143.329 35.704C143.411 35.8106 143.521 35.8911 143.648 35.9355C144.134 36.1095 144.564 35.7019 144.679 34.7355C144.679 34.7355 144.679 34.7034 144.679 34.6851C144.958 35.5233 145.755 35.4454 145.998 34.9233C146.236 34.1923 146.39 33.4362 146.456 32.6699C146.451 33.018 146.071 33.302 145.475 33.2745Z" fill="#F28F8F"/>
<path d="M144.912 34.5612V34.6025C144.99 34.8773 145.173 35.1108 145.42 35.12C145.482 35.1234 145.544 35.1142 145.603 35.0929C145.661 35.0717 145.714 35.0388 145.759 34.9963C145.858 34.8922 145.929 34.7645 145.965 34.6254C146.159 33.98 146.298 33.3198 146.382 32.6514V32.7018V32.6743C146.428 32.2987 146.451 31.9003 146.533 31.5201C146.575 31.3278 146.634 31.14 146.689 30.9568C146.743 30.771 146.759 30.5762 146.735 30.3843C146.776 30.5759 146.776 30.7743 146.735 30.9659C146.694 31.1583 146.648 31.3415 146.625 31.5339C146.565 31.914 146.575 32.2987 146.552 32.6926V32.6422V32.6743C146.514 33.3622 146.418 34.0456 146.263 34.717C146.225 34.9116 146.135 35.0921 146.002 35.2391C145.928 35.3189 145.839 35.3828 145.74 35.4269C145.641 35.471 145.534 35.4944 145.425 35.4956C145.201 35.4984 144.986 35.4128 144.825 35.2574C144.678 35.1161 144.566 34.9419 144.5 34.749V34.7902L144.912 34.5612Z" fill="#F28F8F"/>
<path d="M147.422 31.3506C147.353 31.5634 147.239 31.7587 147.088 31.9231C146.938 32.0933 146.771 32.2469 146.588 32.3811L146.474 32.1887C146.869 32.0141 147.2 31.7213 147.422 31.3506Z" fill="#F28F8F"/>
<path d="M141.926 29.2668C142.094 29.5879 142.232 29.9236 142.338 30.2699C142.448 30.6088 142.553 30.9523 142.641 31.2958L142.787 31.8087L142.906 32.3309L143.135 33.3934V33.4667L143.318 34.5796L143.401 35.1338C143.411 35.2938 143.455 35.4499 143.529 35.5918C143.566 35.6419 143.612 35.6839 143.666 35.7154C143.719 35.7469 143.779 35.7672 143.84 35.775C143.899 35.785 143.96 35.7797 144.016 35.7596C144.072 35.7396 144.122 35.7055 144.161 35.6605C144.36 35.3941 144.479 35.0763 144.505 34.7445V34.6667C144.542 34.2387 144.551 33.8088 144.532 33.3797V32.0103C144.532 31.5523 144.532 31.0943 144.555 30.6637C144.555 30.4347 144.587 30.2057 144.61 29.9859C144.621 29.7592 144.68 29.5375 144.784 29.3355C144.715 29.5465 144.688 29.7692 144.706 29.9905C144.706 30.2149 144.706 30.4485 144.706 30.6592L144.798 32.0011L144.894 33.343L144.926 34.0209C144.938 34.2608 144.93 34.5013 144.903 34.7399V34.7674C144.877 35.1951 144.716 35.6037 144.445 35.9353C144.359 36.0327 144.249 36.107 144.127 36.1518C144.005 36.1966 143.873 36.2103 143.744 36.1918C143.623 36.1721 143.507 36.1302 143.401 36.0681C143.288 36.0015 143.192 35.9089 143.121 35.7979C143.019 35.6087 142.959 35.3991 142.947 35.1842L142.87 34.6163L142.76 33.4759V33.4392L142.599 32.3996L142.521 31.8729L142.412 31.3462C142.294 30.6435 142.132 29.949 141.926 29.2668Z" fill="#F28F8F"/>
<path d="M139.407 30.6042C140.15 31.5627 140.773 32.6087 141.262 33.7186L141.592 34.5614C141.688 34.8315 141.809 35.0921 141.953 35.34C142.109 35.5919 142.26 35.798 142.521 35.7705C142.662 35.754 142.797 35.7074 142.918 35.6339C143.039 35.5604 143.143 35.4617 143.222 35.3445C143.17 35.4971 143.082 35.635 142.966 35.7466C142.849 35.8581 142.708 35.9402 142.553 35.9857C142.373 36.025 142.184 35.9921 142.027 35.8941C141.888 35.7982 141.767 35.6789 141.67 35.5415C141.486 35.2867 141.332 35.0116 141.212 34.7217L140.868 33.8973C140.639 33.3477 140.378 32.8118 140.135 32.2668C139.892 31.7218 139.636 31.1859 139.407 30.6042Z" fill="#F28F8F"/>
<path d="M141.285 34.392L141.326 34.4881C141.458 34.8065 141.54 35.1433 141.569 35.4866C141.572 35.6687 141.532 35.849 141.452 36.0129C141.373 36.1767 141.256 36.3196 141.111 36.4301C140.962 36.5535 140.773 36.6172 140.58 36.6087C140.389 36.5928 140.208 36.5175 140.062 36.3934C139.811 36.1467 139.606 35.8566 139.457 35.537L138.45 33.7691C138.285 33.4714 138.116 33.1783 137.955 32.8531C137.78 32.5595 137.655 32.2392 137.584 31.905C137.691 32.231 137.846 32.5396 138.042 32.821L138.592 33.6775C138.963 34.2454 139.302 34.8454 139.641 35.4225C139.782 35.7173 139.969 35.9878 140.195 36.224C140.302 36.3283 140.444 36.3907 140.593 36.4C140.743 36.4092 140.891 36.3647 141.01 36.2743C141.145 36.1872 141.257 36.0689 141.337 35.9294C141.416 35.7899 141.461 35.6334 141.468 35.4728C141.464 35.1368 141.416 34.8028 141.326 34.479L141.285 34.392Z" fill="#F28F8F"/>
<path d="M143.643 35.679C144.281 36.0936 144.832 36.6288 145.265 37.2545C145.71 37.8533 146.004 38.551 146.121 39.288C145.937 38.5816 145.583 37.9307 145.091 37.3919C144.628 36.8467 144.063 36.3971 143.428 36.0683L143.643 35.679Z" fill="#F28F8F"/>
<path d="M148.691 39.9978C148.031 40.4558 147.179 40.4558 146.584 40.8359C145.988 41.216 144.674 42.0862 143.3 41.4771C142.247 41.0191 140.644 40.5336 139.792 40.5611C139.977 40.6073 140.159 40.6655 140.337 40.7351C141.264 41.0817 142.144 41.5433 142.957 42.1091C143.557 42.6084 144.207 43.277 144.482 45.5304C144.482 45.6586 144.514 45.8098 144.527 45.9884C144.527 45.9884 144.587 44.1885 145.054 43.2862C145.521 42.3839 146.854 41.8389 148.127 41.0878C149.401 40.3367 149.35 39.5535 148.691 39.9978Z" fill="#F28F8F"/>
<path d="M114.812 49.3777C111.452 49.8181 108.13 50.5101 104.874 51.4478C103.468 52.1761 100.546 53.6875 101.421 62.6917C101.718 65.7558 104.269 70.4365 104.169 75.8043C104.104 79.5003 101.879 81.7583 99.6755 89.013C106.829 96.625 132.748 96.7395 136.21 90.2908C135.349 80.6041 133.43 79.9171 134.332 70.7892C134.332 70.7892 136.206 66.7313 135.89 64.1619C135.432 60.3972 134.566 59.0964 130.888 55.0523C128.767 52.7212 126.364 50.6627 123.734 48.9243C120.753 48.8581 117.771 49.0096 114.812 49.3777Z" fill="#0A9D56"/>
<path d="M111.18 47.2616C110.031 46.2815 108.272 45.6769 105.565 43.4785C101.796 40.4236 97.8343 30.2881 103.275 27.9798C102.753 19.8457 114.217 16.7405 119.342 17.7389C134.268 20.6518 128.104 30.3934 128.104 30.3934L111.18 47.2616Z" fill="#37474F"/>
<path d="M124.76 25.163C126.633 26.6653 127.65 27.105 128.369 35.239C128.928 41.5823 127.636 44.0097 124.92 45.4937C123.959 46.0203 122.053 46.4555 120.194 46.4509L120.496 49.4187C120.496 49.4187 123.922 53.3942 123.885 58.4917C112.536 53.701 110.686 50.3439 110.686 50.3439L109.216 40.3457C108.9 41.0373 107.068 42.1457 105.304 40.3824C103.23 38.3122 103.298 35.5276 104.768 34.3276C106.239 33.1277 108.309 33.8421 109.266 35.6238C111.07 36.1276 112.248 34.3963 111.327 27.7645C114.977 25.2592 120.093 23.3585 124.76 25.163Z" fill="#FFA8A7"/>
<path d="M124.458 21.7602C125.562 24.5861 125.127 29.4776 121.128 31.4332C121.815 29.505 121.366 26.0517 121.366 26.0517C121.366 26.0517 119.099 33.2377 110.626 32.9217L109.335 25.3281C113.109 21.9618 119.241 19.058 124.458 21.7602Z" fill="#37474F"/>
<path d="M120.194 46.4373C114.638 46.2358 111.492 44.1473 110.686 42.0588C110.686 42.0588 111.093 44.6878 113.008 45.8923C115.33 47.3487 120.336 47.9075 120.336 47.9075L120.194 46.4373Z" fill="#F28F8F"/>
<path d="M122.328 40.5337L118.453 39.6177C118.381 39.8659 118.36 40.1263 118.391 40.383C118.423 40.6396 118.507 40.8871 118.638 41.1102C118.768 41.3333 118.943 41.5272 119.152 41.6801C119.361 41.833 119.598 41.9416 119.85 41.9993C120.372 42.1172 120.92 42.0311 121.38 41.7586C121.841 41.4862 122.18 41.0479 122.328 40.5337Z" fill="#B16668"/>
<path d="M120.711 42.0085C120.428 42.0702 120.134 42.0702 119.85 42.0085C119.501 41.9277 119.182 41.7491 118.931 41.4936C118.679 41.2381 118.506 40.9163 118.431 40.5658C118.915 40.5337 119.396 40.6562 119.806 40.9155C120.216 41.1747 120.533 41.5575 120.711 42.0085Z" fill="#F28F8F"/>
<path d="M115.934 33.8056C115.959 34.0194 116.046 34.2211 116.186 34.3852C116.325 34.5492 116.51 34.6682 116.717 34.7269C116.924 34.7856 117.144 34.7815 117.348 34.715C117.553 34.6485 117.733 34.5227 117.866 34.3535C117.999 34.1844 118.079 33.9795 118.095 33.7649C118.112 33.5503 118.064 33.3357 117.958 33.1484C117.852 32.9611 117.693 32.8094 117.5 32.7128C117.308 32.6161 117.091 32.5788 116.878 32.6056C116.594 32.64 116.335 32.7856 116.158 33.0106C115.981 33.2355 115.901 33.5214 115.934 33.8056Z" fill="#263238"/>
<path d="M123.757 32.9173C123.781 33.1314 123.867 33.3337 124.006 33.4984C124.145 33.6631 124.33 33.7828 124.537 33.8422C124.744 33.9016 124.964 33.8981 125.169 33.832C125.374 33.766 125.555 33.6404 125.688 33.4713C125.822 33.3022 125.902 33.0973 125.918 32.8825C125.935 32.6677 125.887 32.4528 125.781 32.2653C125.676 32.0777 125.516 31.9258 125.324 31.8291C125.131 31.7323 124.914 31.695 124.701 31.7219C124.56 31.7383 124.424 31.7823 124.301 31.8513C124.177 31.9204 124.069 32.013 123.981 32.124C123.894 32.235 123.829 32.3622 123.79 32.4983C123.752 32.6345 123.741 32.7768 123.757 32.9173Z" fill="#263238"/>
<path d="M120.359 31.9094L121.806 39.0359L125.067 37.2634L120.359 31.9094Z" fill="#F28F8F"/>
<path d="M126.569 30.6363L124 30.0867C124.029 29.9183 124.091 29.7575 124.184 29.614C124.277 29.4705 124.398 29.3473 124.54 29.2519C124.681 29.1564 124.841 29.0907 125.009 29.0586C125.176 29.0265 125.349 29.0288 125.516 29.0653C125.859 29.1425 126.16 29.3484 126.356 29.6407C126.552 29.933 126.628 30.2893 126.569 30.6363Z" fill="#263238"/>
<path d="M114.753 31.6667L117.043 30.3293C116.962 30.1772 116.852 30.0427 116.719 29.9339C116.585 29.8251 116.431 29.7441 116.266 29.6959C116.101 29.6476 115.928 29.633 115.757 29.6529C115.585 29.6728 115.42 29.7269 115.27 29.8118C114.958 29.9915 114.729 30.2865 114.632 30.6334C114.536 30.9803 114.579 31.3514 114.753 31.6667Z" fill="#263238"/>
<path d="M116.58 36.7919C116.631 37.7079 115.664 38.5185 114.391 38.5872C113.118 38.6559 112.069 37.9689 112.019 37.0438C111.968 36.1186 112.935 35.3171 114.208 35.2438C115.481 35.1705 116.53 35.8667 116.58 36.7919Z" fill="#F28F8F"/>
<path d="M130.197 34.3277C130.522 35.1933 129.835 36.2559 128.658 36.7047C127.481 37.1536 126.253 36.8192 125.91 35.9536C125.566 35.088 126.267 34.0254 127.449 33.5766C128.63 33.1278 129.867 33.4758 130.197 34.3277Z" fill="#F28F8F"/>
<path d="M93.3002 102.813C92.6957 101.897 91.8621 101.077 91.7201 99.9547C91.6735 99.6675 91.6948 99.3733 91.7823 99.0957C91.8697 98.8182 92.021 98.5649 92.2239 98.3563C92.3245 98.286 92.4075 98.1936 92.4667 98.0861C92.4966 97.9899 92.5059 97.8885 92.4941 97.7884C92.4538 97.3681 92.545 96.9455 92.7552 96.5793C92.8557 96.4322 92.9858 96.3077 93.1373 96.2138C93.2887 96.1199 93.4581 96.0588 93.6346 96.0343C93.5345 95.4085 93.6355 94.767 93.9231 94.2023C94.2712 93.5382 95.0773 93.0893 95.4345 93.9412C95.6003 94.3644 95.723 94.8033 95.8009 95.2511C96.0038 96.364 96.0745 97.497 96.0116 98.6265C95.9566 99.8036 95.7459 103.129 93.9277 103.014C93.7857 102.991 93.3781 102.941 93.3002 102.813Z" fill="#F28F8F"/>
<path d="M105.982 51.2144C100.129 52.1304 98.3885 53.1196 94.697 57.9653C90.456 63.53 84.7218 70.1298 83.0226 72.6991C80.925 75.8777 80.3891 77.1417 83.5081 81.3279C85.134 83.4805 87.424 86.1094 89.714 89.0314C91.546 91.3214 93.7581 93.8267 95.494 96.1945C95.7343 96.4578 95.8954 96.7837 95.9586 97.1346C96.0218 97.4855 95.9846 97.847 95.8512 98.1777C95.634 98.6101 95.4428 99.0552 95.2787 99.5105C95.189 100.126 95.1476 100.748 95.155 101.37C95.0909 101.988 94.7932 102.666 94.1932 102.84C93.9003 102.916 93.5931 102.916 93.3001 102.84C93.7543 103.307 94.278 103.701 94.8528 104.008C95.4344 104.318 96.1118 104.397 96.7489 104.228C97.3489 104.04 97.8527 103.568 98.4801 103.477C98.8145 103.431 99.1625 103.5 99.5015 103.477C99.8446 103.434 100.165 103.283 100.417 103.046C100.825 102.666 101.059 102.071 101.581 101.878C101.839 101.82 102.101 101.776 102.364 101.745C102.625 101.666 102.862 101.525 103.056 101.333C103.25 101.142 103.394 100.906 103.477 100.646C103.637 100.128 103.703 99.5851 103.674 99.0433C103.673 97.5835 103.592 96.1249 103.431 94.674C103.352 94.1799 103.186 93.7038 102.941 93.2679C102.689 92.755 102.451 92.2283 102.167 91.729C100.239 88.349 94.2116 77.128 94.2116 77.128L104.782 66.4383C104.782 66.4383 110.324 57.0172 105.982 51.2144Z" fill="#FFA8A7"/>
<path d="M94.2299 77.0867C91.8208 78.8316 88.5323 78.511 87.3599 78.2591C89.9934 80.5491 94.7932 78.0988 94.7932 78.0988L94.2299 77.0867Z" fill="#F28F8F"/>
<path d="M81.6852 169.044C81.6048 169.058 81.522 169.041 81.4532 168.997C81.3845 168.953 81.3349 168.885 81.3143 168.806L81.241 168.503C81.1461 168.123 80.9175 167.79 80.5971 167.565C80.2767 167.339 79.8858 167.237 79.496 167.276L79.1846 167.308C79.1007 167.323 79.0146 167.303 78.945 167.254C78.8754 167.205 78.8282 167.131 78.8136 167.047C78.799 166.963 78.8183 166.877 78.8673 166.807C78.9162 166.738 78.9908 166.691 79.0746 166.676L79.3769 166.598C79.757 166.503 80.0903 166.275 80.3157 165.954C80.541 165.634 80.6435 165.243 80.6044 164.853L80.5723 164.542C80.5577 164.458 80.577 164.372 80.626 164.302C80.675 164.233 80.7496 164.185 80.8334 164.171C80.9172 164.156 81.0034 164.176 81.0729 164.224C81.1425 164.273 81.1898 164.348 81.2043 164.432L81.2822 164.734C81.3762 165.115 81.6046 165.449 81.9252 165.674C82.2459 165.9 82.6372 166.002 83.0272 165.962L83.334 165.929C83.4147 165.922 83.4951 165.946 83.5595 165.995C83.6239 166.044 83.6676 166.115 83.6821 166.195C83.6973 166.275 83.6809 166.358 83.6366 166.426C83.5922 166.494 83.5232 166.543 83.444 166.562L83.1417 166.639C82.7624 166.735 82.4303 166.964 82.2058 167.284C81.9813 167.605 81.8794 167.995 81.9188 168.384L81.9463 168.696C81.9545 168.776 81.9322 168.856 81.8839 168.921C81.8355 168.985 81.7646 169.029 81.6852 169.044ZM80.4395 166.754C80.8137 166.892 81.1452 167.126 81.4013 167.432C81.5389 167.056 81.7726 166.723 82.0791 166.465C81.705 166.327 81.3734 166.093 81.1173 165.788C80.9797 166.163 80.746 166.497 80.4395 166.754Z" fill="#E0E0E0"/>
<path d="M72.31 159.211C72.2301 159.225 72.1479 159.208 72.0799 159.164C72.0119 159.12 71.9632 159.051 71.9436 158.973L71.8657 158.67C71.7709 158.29 71.5423 157.957 71.2219 157.732C70.9014 157.506 70.5106 157.404 70.1208 157.443L69.8093 157.475C69.7286 157.482 69.6482 157.459 69.5839 157.41C69.5195 157.36 69.4758 157.289 69.4612 157.209C69.4472 157.13 69.464 157.047 69.5082 156.979C69.5524 156.911 69.6207 156.863 69.6994 156.843L70.0017 156.765C70.3818 156.67 70.715 156.442 70.9404 156.121C71.1658 155.801 71.2683 155.41 71.2291 155.02L71.1971 154.709C71.1911 154.628 71.2148 154.548 71.2638 154.484C71.3127 154.42 71.3835 154.376 71.4627 154.361C71.5424 154.348 71.6241 154.365 71.6919 154.409C71.7596 154.453 71.8085 154.521 71.8291 154.599L71.907 154.901C72.001 155.282 72.2293 155.615 72.55 155.841C72.8706 156.067 73.262 156.169 73.6519 156.128L73.9634 156.096C74.0438 156.09 74.1237 156.114 74.1879 156.163C74.252 156.212 74.296 156.283 74.3115 156.362C74.3244 156.442 74.3071 156.524 74.2631 156.591C74.2191 156.659 74.1514 156.708 74.0733 156.728L73.771 156.806C73.3904 156.9 73.0566 157.129 72.8311 157.449C72.6055 157.77 72.5034 158.161 72.5436 158.551L72.5756 158.863C72.5827 158.943 72.5593 159.024 72.5102 159.088C72.4611 159.153 72.3897 159.196 72.31 159.211ZM71.0642 156.921C71.4401 157.058 71.7733 157.292 72.0306 157.599C72.1682 157.223 72.4019 156.89 72.7085 156.632C72.3326 156.495 71.9994 156.261 71.7421 155.954C71.6059 156.334 71.3721 156.67 71.0642 156.93V156.921Z" fill="#E0E0E0"/>
<path d="M147.88 146.909C147.8 146.92 147.718 146.901 147.651 146.855C147.584 146.81 147.537 146.741 147.518 146.662L147.449 146.355C147.364 145.973 147.144 145.635 146.829 145.402C146.515 145.17 146.126 145.059 145.736 145.091L145.425 145.114C145.344 145.118 145.264 145.093 145.201 145.042C145.137 144.991 145.095 144.919 145.082 144.839C145.07 144.759 145.089 144.677 145.135 144.61C145.181 144.543 145.25 144.496 145.329 144.477L145.636 144.408C146.018 144.322 146.356 144.1 146.589 143.785C146.822 143.47 146.934 143.082 146.904 142.691L146.881 142.384C146.875 142.303 146.9 142.224 146.95 142.16C147.001 142.097 147.073 142.055 147.153 142.043C147.233 142.031 147.314 142.049 147.381 142.095C147.448 142.14 147.495 142.209 147.514 142.288L147.582 142.59C147.667 142.973 147.888 143.313 148.204 143.546C148.519 143.779 148.909 143.89 149.3 143.859L149.611 143.836C149.692 143.831 149.771 143.857 149.834 143.908C149.896 143.959 149.938 144.031 149.95 144.111C149.962 144.191 149.944 144.273 149.898 144.34C149.852 144.408 149.782 144.455 149.703 144.472L149.4 144.541C149.019 144.627 148.68 144.847 148.447 145.162C148.215 145.476 148.103 145.864 148.132 146.254L148.155 146.566C148.161 146.647 148.137 146.728 148.086 146.792C148.034 146.856 147.961 146.898 147.88 146.909ZM146.694 144.596C147.065 144.744 147.391 144.985 147.642 145.297C147.789 144.925 148.03 144.598 148.343 144.349C147.968 144.206 147.64 143.964 147.394 143.648C147.246 144.022 147.001 144.349 146.685 144.596H146.694Z" fill="#E0E0E0"/>
<path d="M155.414 158.098C155.339 158.068 155.278 158.011 155.243 157.938C155.208 157.865 155.202 157.781 155.226 157.704L155.322 157.406C155.44 157.032 155.419 156.628 155.263 156.269C155.108 155.909 154.828 155.617 154.475 155.446L154.196 155.309C154.123 155.273 154.066 155.211 154.037 155.136C154.007 155.06 154.007 154.977 154.035 154.901C154.065 154.826 154.122 154.764 154.196 154.73C154.269 154.695 154.352 154.689 154.429 154.713L154.732 154.805C155.104 154.923 155.507 154.903 155.867 154.748C156.226 154.593 156.517 154.314 156.687 153.962L156.825 153.683C156.86 153.61 156.922 153.553 156.997 153.524C157.073 153.494 157.157 153.493 157.232 153.522C157.308 153.552 157.369 153.609 157.404 153.682C157.438 153.755 157.444 153.839 157.42 153.916L157.329 154.214C157.21 154.587 157.23 154.991 157.385 155.351C157.539 155.711 157.819 156.003 158.171 156.174L158.455 156.312C158.494 156.327 158.53 156.35 158.56 156.38C158.59 156.409 158.614 156.444 158.631 156.483C158.647 156.522 158.656 156.563 158.657 156.605C158.657 156.647 158.649 156.689 158.634 156.728C158.618 156.767 158.595 156.803 158.566 156.833C158.536 156.863 158.501 156.887 158.462 156.904C158.424 156.921 158.382 156.929 158.34 156.93C158.298 156.93 158.256 156.923 158.217 156.907L157.919 156.815C157.546 156.696 157.142 156.715 156.782 156.87C156.421 157.025 156.129 157.305 155.959 157.658L155.822 157.937C155.787 158.011 155.725 158.068 155.65 158.098C155.574 158.128 155.49 158.128 155.414 158.098ZM155.551 155.501C155.796 155.817 155.954 156.191 156.009 156.586C156.321 156.338 156.695 156.18 157.09 156.128C156.844 155.813 156.686 155.439 156.632 155.043C156.32 155.29 155.946 155.448 155.551 155.501Z" fill="#E0E0E0"/>
<path d="M81.699 150.014C81.5764 150.034 81.4507 150.007 81.3465 149.94C81.2423 149.872 81.1671 149.768 81.1357 149.648L81.0212 149.19C80.8748 148.607 80.5243 148.097 80.0334 147.752C79.5425 147.406 78.9439 147.248 78.3465 147.307L77.8885 147.358C77.7644 147.369 77.6406 147.333 77.5415 147.258C77.4423 147.182 77.375 147.072 77.3526 146.95C77.3315 146.827 77.3575 146.701 77.4255 146.596C77.4934 146.492 77.5982 146.417 77.719 146.387L78.177 146.267C78.7598 146.123 79.2707 145.772 79.6157 145.281C79.9607 144.79 80.1167 144.19 80.0548 143.593L80.009 143.135C79.9983 143.011 80.0342 142.888 80.1097 142.79C80.1852 142.692 80.2947 142.626 80.4167 142.605C80.5387 142.583 80.6643 142.608 80.7686 142.675C80.8729 142.742 80.9483 142.846 80.98 142.965L81.0945 143.423C81.241 144.006 81.5924 144.516 82.0844 144.861C82.5764 145.206 83.1761 145.362 83.7738 145.301L84.2318 145.255C84.3553 145.244 84.4785 145.28 84.5769 145.356C84.6753 145.431 84.7417 145.541 84.763 145.663C84.7851 145.785 84.7594 145.911 84.6913 146.015C84.6231 146.119 84.5176 146.193 84.3966 146.222L83.9386 146.341C83.3559 146.485 82.845 146.836 82.5 147.327C82.1549 147.819 81.999 148.418 82.0608 149.015L82.1066 149.473C82.119 149.598 82.084 149.723 82.0084 149.823C81.9329 149.923 81.8224 149.992 81.699 150.014ZM79.7937 146.515C80.3699 146.725 80.8803 147.083 81.2731 147.554C81.4814 146.979 81.8385 146.468 82.3082 146.075C81.7333 145.865 81.2245 145.506 80.8334 145.035C80.6246 145.612 80.2657 146.123 79.7937 146.515Z" fill="#E0E0E0"/>
<path d="M145.819 169.081C145.696 169.06 145.586 168.994 145.51 168.895C145.435 168.797 145.399 168.673 145.411 168.549L145.457 168.068C145.514 167.47 145.353 166.872 145.005 166.383C144.657 165.893 144.144 165.545 143.561 165.403L143.103 165.288C142.984 165.256 142.881 165.181 142.815 165.078C142.749 164.974 142.723 164.849 142.744 164.728C142.764 164.607 142.83 164.497 142.926 164.421C143.023 164.345 143.145 164.308 143.268 164.317L143.726 164.363C144.323 164.421 144.922 164.262 145.411 163.914C145.901 163.567 146.249 163.055 146.391 162.472L146.51 162.014C146.532 161.886 146.604 161.771 146.71 161.696C146.816 161.621 146.948 161.591 147.076 161.613C147.204 161.635 147.318 161.707 147.394 161.813C147.469 161.919 147.499 162.05 147.477 162.179L147.436 162.637C147.378 163.234 147.537 163.832 147.884 164.322C148.232 164.812 148.744 165.16 149.327 165.302L149.785 165.417C149.904 165.449 150.007 165.524 150.073 165.627C150.14 165.731 150.165 165.856 150.144 165.977C150.124 166.098 150.059 166.208 149.962 166.284C149.865 166.36 149.743 166.397 149.62 166.388L149.162 166.342C148.565 166.285 147.967 166.445 147.478 166.792C146.988 167.139 146.64 167.651 146.497 168.233L146.378 168.691C146.352 168.815 146.28 168.925 146.176 168.997C146.072 169.07 145.944 169.1 145.819 169.081ZM145.191 165.146C145.665 165.536 146.025 166.045 146.236 166.621C146.625 166.147 147.134 165.785 147.71 165.572C147.238 165.183 146.878 164.676 146.666 164.102C146.276 164.575 145.767 164.936 145.191 165.146Z" fill="#E0E0E0"/>
<path d="M144.972 83.3612L146.282 84.9367L148.256 84.41C149.726 84.0207 153.619 82.9857 154.64 79.7842C154.886 79.0094 154.828 78.17 154.479 77.4361C154.129 76.7022 153.514 76.1285 152.757 75.8311C152 75.5337 151.159 75.5348 150.403 75.8343C149.648 76.1337 149.034 76.709 148.686 77.4439C148.891 76.6179 148.76 75.7442 148.321 75.0149C147.882 74.2857 147.172 73.7607 146.346 73.5554C145.52 73.3502 144.646 73.4814 143.917 73.9203C143.188 74.3592 142.663 75.0698 142.457 75.8958C141.422 79.0972 144.001 82.1979 144.972 83.3612Z" fill="#0A9D56"/>
<path opacity="0.25" d="M144.972 83.3612L146.282 84.9367L148.256 84.41C149.726 84.0207 153.619 82.9857 154.64 79.7842C154.886 79.0094 154.828 78.17 154.479 77.4361C154.129 76.7022 153.514 76.1285 152.757 75.8311C152 75.5337 151.159 75.5348 150.403 75.8343C149.648 76.1337 149.034 76.709 148.686 77.4439C148.891 76.6179 148.76 75.7442 148.321 75.0149C147.882 74.2857 147.172 73.7607 146.346 73.5554C145.52 73.3502 144.646 73.4814 143.917 73.9203C143.188 74.3592 142.663 75.0698 142.457 75.8958C141.422 79.0972 144.001 82.1979 144.972 83.3612Z" fill="white"/>
<path d="M88.4546 45.0406L90.6759 45.5948L92.1095 43.8177C93.1766 42.4941 96.0025 38.9858 94.8071 35.4226C94.5192 34.5553 93.9115 33.8305 93.1078 33.3957C92.3041 32.9609 91.3649 32.8489 90.4815 33.0824C89.598 33.316 88.8369 33.8775 88.3531 34.6527C87.8693 35.4279 87.6992 36.3584 87.8775 37.2546C87.4751 36.4368 86.7771 35.8024 85.9247 35.4797C85.0723 35.157 84.1291 35.17 83.286 35.5162C82.4429 35.8624 81.7627 36.516 81.3831 37.3446C81.0035 38.1732 80.9527 39.1151 81.2411 39.9797C82.4365 43.5521 86.8104 44.633 88.4546 45.0406Z" fill="#0A9D56"/>
<path opacity="0.35" d="M88.4546 45.0406L90.6759 45.5948L92.1095 43.8177C93.1766 42.4941 96.0025 38.9858 94.8071 35.4226C94.5192 34.5553 93.9115 33.8305 93.1078 33.3957C92.3041 32.9609 91.3649 32.8489 90.4815 33.0824C89.598 33.316 88.8369 33.8775 88.3531 34.6527C87.8693 35.4279 87.6992 36.3584 87.8775 37.2546C87.4751 36.4368 86.7771 35.8024 85.9247 35.4797C85.0723 35.157 84.1291 35.17 83.286 35.5162C82.4429 35.8624 81.7627 36.516 81.3831 37.3446C81.0035 38.1732 80.9527 39.1151 81.2411 39.9797C82.4365 43.5521 86.8104 44.633 88.4546 45.0406Z" fill="white"/>
<path d="M82.1845 57.3744L83.5082 57.2599L83.9662 56.0142C84.3005 55.0982 85.1936 52.6341 83.87 50.9075C83.5433 50.5067 83.0793 50.2416 82.5681 50.1639C82.057 50.0861 81.5351 50.2011 81.104 50.4866C80.6729 50.7721 80.3634 51.2077 80.2355 51.7087C80.1076 52.2097 80.1706 52.7403 80.4121 53.1975C80.0447 52.7929 79.5331 52.5488 78.9875 52.5178C78.4419 52.4868 77.9059 52.6714 77.4951 53.0318C77.0843 53.3922 76.8314 53.8995 76.7911 54.4445C76.7507 54.9895 76.9261 55.5285 77.2794 55.9455C78.603 57.6813 81.2044 57.4569 82.1845 57.3744Z" fill="#0A9D56"/>
<path d="M51.2969 118.344C47.3948 116.127 42.027 116.466 36.1005 119.887C24.1925 126.757 14.5104 143.515 14.5104 157.287C14.5104 164.157 16.924 168.994 20.8262 171.252L28.2046 175.497C32.1067 177.746 37.502 177.416 43.456 173.981C55.364 167.111 65.0507 150.353 65.0507 136.581C65.0507 129.711 62.6462 124.893 58.7578 122.631C57.1227 121.682 52.9457 119.278 51.2969 118.344Z" fill="#0A9D56"/>
<path opacity="0.15" d="M15.3027 150.129C14.7918 152.481 14.5262 154.88 14.5104 157.287C14.5104 164.157 16.924 168.994 20.8262 171.252L28.2046 175.498C32.1067 177.746 37.502 177.417 43.456 173.982C45.5286 172.767 47.4688 171.339 49.2451 169.722L15.3027 150.129Z" fill="black"/>
<path d="M58.7303 157.846C62.6325 151.081 65.0461 143.46 65.0461 136.581C65.0461 122.814 55.3778 117.231 43.4514 124.119C31.5251 131.007 21.8613 147.747 21.8613 161.515C21.8613 175.282 31.548 180.865 43.456 173.981C46.587 172.126 49.428 169.821 51.8878 167.139L60.6997 168.751C60.9546 168.797 61.2171 168.774 61.4601 168.685C61.7031 168.595 61.9177 168.442 62.0817 168.242C62.2457 168.041 62.3531 167.801 62.3928 167.545C62.4325 167.289 62.4029 167.027 62.3073 166.786L58.7303 157.846Z" fill="#0A9D56"/>
<path opacity="0.35" d="M58.7303 157.846C62.6325 151.081 65.0461 143.46 65.0461 136.581C65.0461 122.814 55.3778 117.231 43.4514 124.119C31.5251 131.007 21.8613 147.747 21.8613 161.515C21.8613 175.282 31.548 180.865 43.456 173.981C46.587 172.126 49.428 169.821 51.8878 167.139L60.6997 168.751C60.9546 168.797 61.2171 168.774 61.4601 168.685C61.7031 168.595 61.9177 168.442 62.0817 168.242C62.2457 168.041 62.3531 167.801 62.3928 167.545C62.4325 167.289 62.4029 167.027 62.3073 166.786L58.7303 157.846Z" fill="white"/>
<path d="M53.9167 145.48C54.7205 144.477 55.1826 143.243 55.2357 141.958C55.2357 140.735 54.7777 140.227 54.3197 140.062C54.7415 139.241 54.9702 138.334 54.9884 137.41C54.9884 136.165 54.2831 134.722 52.7763 135.578L47.1475 138.821C47.5139 136.274 47.3536 134.314 46.6253 132.381C45.9567 130.609 44.2712 131.159 43.3644 131.923C43.1349 132.084 42.9439 132.293 42.8052 132.536C42.6666 132.779 42.5838 133.05 42.5629 133.33C42.5629 133.504 42.5629 133.856 42.5995 134.31C42.6453 135.395 42.7552 137.932 42.5995 138.597C42.4438 139.261 40.708 143.786 39.595 146.602C39.553 146.707 39.5298 146.819 39.5263 146.932V162.211C39.5263 162.472 39.6683 162.605 39.8515 162.541L39.9156 162.509L50.0329 156.678C50.8004 156.174 51.4395 155.497 51.8991 154.702C52.3587 153.907 52.6262 153.015 52.6801 152.098C52.6815 151.636 52.6324 151.176 52.5335 150.724C53.432 149.68 53.9925 148.388 54.1411 147.019C54.1614 146.497 54.0853 145.975 53.9167 145.48ZM52.0252 150.06C51.8728 150.163 51.7585 150.312 51.7 150.486C51.6269 150.648 51.6155 150.83 51.6679 150.999C51.8284 151.487 51.9058 151.998 51.8969 152.511C51.8476 153.138 51.6536 153.746 51.3302 154.286C51.0068 154.827 50.5628 155.285 50.0329 155.625L40.2958 161.258V146.662C40.7904 145.407 43.0438 139.604 43.3186 138.597C43.5384 137.754 43.4743 135.849 43.3873 133.833C43.3873 133.504 43.3598 133.233 43.3552 133.05C43.6481 132.738 44.0225 132.514 44.4361 132.404C44.5867 132.355 44.7456 132.338 44.9033 132.352C45.061 132.366 45.2141 132.413 45.3533 132.488C45.4925 132.563 45.6149 132.666 45.7131 132.791C45.8114 132.915 45.8833 133.058 45.9246 133.21C46.6482 135.134 46.7627 137.085 46.3002 139.728C46.2789 139.796 46.274 139.869 46.2859 139.94C46.2978 140.011 46.3263 140.078 46.3689 140.135C46.4075 140.178 46.4607 140.203 46.5177 140.208C46.5748 140.212 46.6313 140.194 46.6757 140.158L52.7992 136.636C53.8755 136.018 54.2281 137.186 54.2281 137.855C54.2058 138.717 53.925 139.553 53.4221 140.255C53.2848 140.435 53.2195 140.66 53.2389 140.887C53.2389 141.079 53.3763 141.184 53.532 141.143C53.5686 141.143 54.448 140.928 54.448 142.403C54.4136 143.404 53.9896 144.352 53.2663 145.045C53.1233 145.179 53.0243 145.353 52.9824 145.544C52.9585 145.621 52.9519 145.701 52.963 145.781C52.9741 145.86 53.0026 145.936 53.0465 146.002C53.0465 146.002 53.3534 146.35 53.3534 147.436C53.3579 148.082 52.6389 149.731 52.0252 150.079V150.06ZM38.0012 146.854L33.5861 149.392C33.4688 149.47 33.3741 149.577 33.3113 149.703C33.2399 149.837 33.2007 149.986 33.1968 150.138V167.922C33.1968 168.179 33.3388 168.316 33.522 168.247L33.5861 168.22L38.0012 165.678C38.1195 165.601 38.2145 165.494 38.276 165.367C38.3479 165.233 38.3871 165.084 38.3905 164.932V147.147C38.3905 146.859 38.221 146.717 38.0012 146.85V146.854ZM35.7845 164.226C35.3265 164.492 34.9509 164.226 34.9509 163.599C34.9562 163.287 35.0343 162.98 35.1791 162.703C35.3238 162.426 35.5311 162.187 35.7845 162.005C36.2425 161.739 36.618 162.005 36.618 162.637C36.612 162.948 36.5335 163.253 36.3888 163.528C36.2441 163.803 36.0372 164.041 35.7845 164.222V164.226Z" fill="#FAFAFA"/>
<path d="M178.511 118.344C182.413 116.127 187.781 116.466 193.708 119.887C205.616 126.757 215.298 143.515 215.298 157.287C215.298 164.157 212.884 168.994 208.982 171.252L201.603 175.497C197.701 177.746 192.306 177.416 186.352 173.981C174.444 167.111 164.757 150.353 164.757 136.581C164.757 129.711 167.162 124.893 171.05 122.631C172.685 121.682 176.862 119.278 178.511 118.344Z" fill="#0A9D56"/>
<path opacity="0.15" d="M214.505 150.129C215.016 152.481 215.282 154.88 215.297 157.287C215.297 164.157 212.884 168.994 208.982 171.252L201.603 175.498C197.701 177.746 192.306 177.417 186.352 173.982C184.279 172.767 182.339 171.339 180.563 169.722L214.505 150.129Z" fill="black"/>
<path d="M171.078 157.846C167.176 151.081 164.762 143.46 164.762 136.581C164.762 122.814 174.43 117.231 186.357 124.119C198.283 131.007 207.947 147.747 207.947 161.515C207.947 175.282 198.26 180.865 186.352 173.981C183.221 172.126 180.38 169.821 177.92 167.139L169.108 168.751C168.853 168.797 168.591 168.774 168.348 168.685C168.105 168.595 167.89 168.442 167.726 168.242C167.562 168.041 167.455 167.801 167.415 167.545C167.376 167.289 167.405 167.027 167.501 166.786L171.078 157.846Z" fill="#0A9D56"/>
<path opacity="0.35" d="M171.078 157.846C167.176 151.081 164.762 143.46 164.762 136.581C164.762 122.814 174.43 117.231 186.357 124.119C198.283 131.007 207.947 147.747 207.947 161.515C207.947 175.282 198.26 180.865 186.352 173.981C183.221 172.126 180.38 169.821 177.92 167.139L169.108 168.751C168.853 168.797 168.591 168.774 168.348 168.685C168.105 168.595 167.89 168.442 167.726 168.242C167.562 168.041 167.455 167.801 167.415 167.545C167.376 167.289 167.405 167.027 167.501 166.786L171.078 157.846Z" fill="white"/>
<path d="M193.524 167.634C193.301 167.614 193.084 167.545 192.891 167.43C192.699 167.315 192.534 167.157 192.411 166.97L186.109 158.909L179.885 159.678C179.686 159.69 179.487 159.655 179.303 159.575C179.12 159.496 178.959 159.374 178.832 159.22C178.57 158.944 178.37 158.616 178.245 158.256C178.12 157.897 178.073 157.515 178.108 157.136L179.317 148.407L174.142 138.725C173.711 137.914 173.684 137.026 174.114 136.558C174.243 136.419 174.411 136.323 174.597 136.284C174.782 136.244 174.975 136.264 175.149 136.339L182.019 138.972L185.083 132.455C185.158 132.283 185.283 132.139 185.441 132.041C185.6 131.943 185.785 131.895 185.972 131.905C186.604 131.951 187.231 132.601 187.502 133.485L190.685 143.928L197.788 149.424C198.086 149.678 198.325 149.993 198.491 150.348C198.657 150.702 198.745 151.088 198.75 151.48C198.758 151.673 198.721 151.865 198.641 152.04C198.562 152.216 198.442 152.371 198.292 152.492L193.254 156.12L194.454 166.168C194.541 166.864 194.312 167.396 193.849 167.583C193.745 167.62 193.635 167.637 193.524 167.634ZM186.279 158.107C186.338 158.107 186.397 158.121 186.45 158.147C186.503 158.173 186.549 158.211 186.586 158.258L193.025 166.502C193.277 166.818 193.483 166.887 193.57 166.855C193.657 166.823 193.749 166.635 193.703 166.251L192.471 155.978C192.462 155.908 192.473 155.838 192.501 155.774C192.529 155.711 192.574 155.656 192.631 155.616L197.839 151.851C197.886 151.798 197.922 151.735 197.944 151.668C197.966 151.6 197.974 151.528 197.967 151.457C197.961 151.186 197.9 150.92 197.786 150.674C197.673 150.428 197.51 150.208 197.307 150.028L190.108 144.468C190.043 144.418 189.995 144.349 189.97 144.271L186.764 133.71C186.567 133.064 186.15 132.702 185.926 132.684C185.889 132.684 185.848 132.684 185.798 132.789L182.592 139.632C182.55 139.72 182.476 139.789 182.385 139.826C182.294 139.862 182.193 139.863 182.102 139.828L174.897 137.08C174.774 137.035 174.742 137.08 174.723 137.08C174.638 137.289 174.606 137.516 174.629 137.741C174.652 137.965 174.73 138.18 174.856 138.367L180.068 148.15C180.108 148.223 180.124 148.306 180.114 148.389L178.882 157.242C178.865 157.507 178.903 157.774 178.995 158.024C179.086 158.274 179.229 158.502 179.413 158.694C179.462 158.756 179.523 158.808 179.592 158.846C179.661 158.885 179.738 158.909 179.816 158.918L186.256 158.121L186.279 158.107Z" fill="#FAFAFA"/>
</svg>
